%TF.GenerationSoftware,KiCad,Pcbnew,8.0.4*%
%TF.CreationDate,2024-09-14T10:14:20+02:00*%
%TF.ProjectId,tmc2208-breakout,746d6332-3230-4382-9d62-7265616b6f75,rev?*%
%TF.SameCoordinates,Original*%
%TF.FileFunction,Copper,L1,Top*%
%TF.FilePolarity,Positive*%
%FSLAX46Y46*%
G04 Gerber Fmt 4.6, Leading zero omitted, Abs format (unit mm)*
G04 Created by KiCad (PCBNEW 8.0.4) date 2024-09-14 10:14:20*
%MOMM*%
%LPD*%
G01*
G04 APERTURE LIST*
G04 Aperture macros list*
%AMRoundRect*
0 Rectangle with rounded corners*
0 $1 Rounding radius*
0 $2 $3 $4 $5 $6 $7 $8 $9 X,Y pos of 4 corners*
0 Add a 4 corners polygon primitive as box body*
4,1,4,$2,$3,$4,$5,$6,$7,$8,$9,$2,$3,0*
0 Add four circle primitives for the rounded corners*
1,1,$1+$1,$2,$3*
1,1,$1+$1,$4,$5*
1,1,$1+$1,$6,$7*
1,1,$1+$1,$8,$9*
0 Add four rect primitives between the rounded corners*
20,1,$1+$1,$2,$3,$4,$5,0*
20,1,$1+$1,$4,$5,$6,$7,0*
20,1,$1+$1,$6,$7,$8,$9,0*
20,1,$1+$1,$8,$9,$2,$3,0*%
G04 Aperture macros list end*
%TA.AperFunction,ComponentPad*%
%ADD10C,1.000000*%
%TD*%
%TA.AperFunction,ComponentPad*%
%ADD11R,1.000000X1.000000*%
%TD*%
%TA.AperFunction,SMDPad,CuDef*%
%ADD12RoundRect,0.237500X-0.300000X-0.237500X0.300000X-0.237500X0.300000X0.237500X-0.300000X0.237500X0*%
%TD*%
%TA.AperFunction,ComponentPad*%
%ADD13RoundRect,0.250000X-0.725000X0.600000X-0.725000X-0.600000X0.725000X-0.600000X0.725000X0.600000X0*%
%TD*%
%TA.AperFunction,ComponentPad*%
%ADD14O,1.950000X1.700000*%
%TD*%
%TA.AperFunction,SMDPad,CuDef*%
%ADD15RoundRect,0.237500X-0.237500X0.250000X-0.237500X-0.250000X0.237500X-0.250000X0.237500X0.250000X0*%
%TD*%
%TA.AperFunction,SMDPad,CuDef*%
%ADD16RoundRect,0.237500X-0.237500X0.300000X-0.237500X-0.300000X0.237500X-0.300000X0.237500X0.300000X0*%
%TD*%
%TA.AperFunction,SMDPad,CuDef*%
%ADD17RoundRect,0.250001X0.624999X-0.462499X0.624999X0.462499X-0.624999X0.462499X-0.624999X-0.462499X0*%
%TD*%
%TA.AperFunction,SMDPad,CuDef*%
%ADD18R,0.909599X0.254800*%
%TD*%
%TA.AperFunction,SMDPad,CuDef*%
%ADD19R,0.254800X0.909599*%
%TD*%
%TA.AperFunction,SMDPad,CuDef*%
%ADD20R,3.098800X3.098800*%
%TD*%
%TA.AperFunction,SMDPad,CuDef*%
%ADD21RoundRect,0.237500X0.237500X-0.300000X0.237500X0.300000X-0.237500X0.300000X-0.237500X-0.300000X0*%
%TD*%
%TA.AperFunction,ComponentPad*%
%ADD22R,1.700000X1.700000*%
%TD*%
%TA.AperFunction,ComponentPad*%
%ADD23O,1.700000X1.700000*%
%TD*%
%TA.AperFunction,SMDPad,CuDef*%
%ADD24RoundRect,0.237500X0.237500X-0.250000X0.237500X0.250000X-0.237500X0.250000X-0.237500X-0.250000X0*%
%TD*%
%TA.AperFunction,SMDPad,CuDef*%
%ADD25RoundRect,0.237500X0.300000X0.237500X-0.300000X0.237500X-0.300000X-0.237500X0.300000X-0.237500X0*%
%TD*%
%TA.AperFunction,ComponentPad*%
%ADD26R,2.600000X2.600000*%
%TD*%
%TA.AperFunction,ComponentPad*%
%ADD27C,2.600000*%
%TD*%
%TA.AperFunction,SMDPad,CuDef*%
%ADD28RoundRect,0.250000X0.550000X-1.500000X0.550000X1.500000X-0.550000X1.500000X-0.550000X-1.500000X0*%
%TD*%
%TA.AperFunction,SMDPad,CuDef*%
%ADD29RoundRect,0.237500X0.250000X0.237500X-0.250000X0.237500X-0.250000X-0.237500X0.250000X-0.237500X0*%
%TD*%
%TA.AperFunction,SMDPad,CuDef*%
%ADD30C,0.500000*%
%TD*%
%TA.AperFunction,SMDPad,CuDef*%
%ADD31RoundRect,0.237500X-0.250000X-0.237500X0.250000X-0.237500X0.250000X0.237500X-0.250000X0.237500X0*%
%TD*%
%TA.AperFunction,ViaPad*%
%ADD32C,0.400000*%
%TD*%
%TA.AperFunction,ViaPad*%
%ADD33C,0.600000*%
%TD*%
%TA.AperFunction,Conductor*%
%ADD34C,0.200000*%
%TD*%
%TA.AperFunction,Conductor*%
%ADD35C,0.500000*%
%TD*%
G04 APERTURE END LIST*
D10*
%TO.P,TP2,1,1*%
%TO.N,/DIR*%
X147300000Y-43900000D03*
%TD*%
D11*
%TO.P,TP20,1,1*%
%TO.N,GND*%
X152500000Y-49100000D03*
%TD*%
D12*
%TO.P,C4,1*%
%TO.N,/VCC_IO*%
X162137500Y-61000000D03*
%TO.P,C4,2*%
%TO.N,GND*%
X163862500Y-61000000D03*
%TD*%
D10*
%TO.P,TP15,1,1*%
%TO.N,+5V*%
X164000000Y-68500000D03*
%TD*%
%TO.P,TP4,1,1*%
%TO.N,/MS2*%
X147300000Y-54100000D03*
%TD*%
D13*
%TO.P,J3,1,Pin_1*%
%TO.N,/OB2*%
X169525000Y-57750000D03*
D14*
%TO.P,J3,2,Pin_2*%
%TO.N,/OB1*%
X169525000Y-60250000D03*
%TO.P,J3,3,Pin_3*%
%TO.N,/OA1*%
X169525000Y-62750000D03*
%TO.P,J3,4,Pin_4*%
%TO.N,/OA2*%
X169525000Y-65250000D03*
%TD*%
D10*
%TO.P,TP6,1,1*%
%TO.N,/DIAG*%
X147300000Y-56600000D03*
%TD*%
D11*
%TO.P,TP19,1,1*%
%TO.N,GND*%
X162600000Y-71000000D03*
%TD*%
D15*
%TO.P,R6,1*%
%TO.N,/VCC_IO*%
X160500000Y-66087500D03*
%TO.P,R6,2*%
%TO.N,+3V3*%
X160500000Y-67912500D03*
%TD*%
D16*
%TO.P,C1,1*%
%TO.N,+5V*%
X155750000Y-66137500D03*
%TO.P,C1,2*%
%TO.N,GND*%
X155750000Y-67862500D03*
%TD*%
D17*
%TO.P,STEP1,1,K*%
%TO.N,GND*%
X153500000Y-72737500D03*
%TO.P,STEP1,2,A*%
%TO.N,Net-(STEP1-Pad2)*%
X153500000Y-69762500D03*
%TD*%
D10*
%TO.P,TP1,1,1*%
%TO.N,/EN#*%
X147300000Y-49100000D03*
%TD*%
D18*
%TO.P,U1,1,OB2*%
%TO.N,/OB2*%
X154652900Y-59500000D03*
%TO.P,U1,2,ENN*%
%TO.N,/EN#*%
X154652900Y-59999999D03*
%TO.P,U1,3,GND*%
%TO.N,GND*%
X154652900Y-60500001D03*
%TO.P,U1,4,CPO*%
%TO.N,/CPO*%
X154652900Y-61000000D03*
%TO.P,U1,5,CPI*%
%TO.N,/CPI*%
X154652900Y-61499999D03*
%TO.P,U1,6,VCP*%
%TO.N,/VCP*%
X154652900Y-62000001D03*
%TO.P,U1,7,NC*%
%TO.N,GND*%
X154652900Y-62500000D03*
D19*
%TO.P,U1,8,5VOUT*%
%TO.N,+5V*%
X155500000Y-63347100D03*
%TO.P,U1,9,MS1*%
%TO.N,/MS1*%
X155999999Y-63347100D03*
%TO.P,U1,10,MS2*%
%TO.N,/MS2*%
X156500001Y-63347100D03*
%TO.P,U1,11,DIAG*%
%TO.N,/DIAG*%
X157000000Y-63347100D03*
%TO.P,U1,12,INDEX*%
%TO.N,/INDEX*%
X157499999Y-63347100D03*
%TO.P,U1,13,CLK*%
%TO.N,/CLK*%
X158000001Y-63347100D03*
%TO.P,U1,14,PDN_UART*%
%TO.N,/PDN_UART*%
X158500000Y-63347100D03*
D18*
%TO.P,U1,15,VCC_IO*%
%TO.N,/VCC_IO*%
X159347100Y-62500000D03*
%TO.P,U1,16,STEP*%
%TO.N,/STEP*%
X159347100Y-62000001D03*
%TO.P,U1,17,VREF*%
%TO.N,/VREF*%
X159347100Y-61499999D03*
%TO.P,U1,18,GND*%
%TO.N,GND*%
X159347100Y-61000000D03*
%TO.P,U1,19,DIR*%
%TO.N,/DIR*%
X159347100Y-60500001D03*
%TO.P,U1,20,NC*%
%TO.N,GND*%
X159347100Y-59999999D03*
%TO.P,U1,21,OA2*%
%TO.N,/OA2*%
X159347100Y-59500000D03*
D19*
%TO.P,U1,22,VS*%
%TO.N,/VS*%
X158500000Y-58652900D03*
%TO.P,U1,23,BRA*%
%TO.N,/BRA*%
X158000001Y-58652900D03*
%TO.P,U1,24,OA1*%
%TO.N,/OA1*%
X157499999Y-58652900D03*
%TO.P,U1,25,NC*%
%TO.N,GND*%
X157000000Y-58652900D03*
%TO.P,U1,26,OB1*%
%TO.N,/OB1*%
X156500001Y-58652900D03*
%TO.P,U1,27,BRB*%
%TO.N,/BRB*%
X155999999Y-58652900D03*
%TO.P,U1,28,VS*%
%TO.N,/VS*%
X155500000Y-58652900D03*
D20*
%TO.P,U1,29,GND*%
%TO.N,GND*%
X157000000Y-61000000D03*
%TD*%
D15*
%TO.P,R3,1*%
%TO.N,GND*%
X158250000Y-54087500D03*
%TO.P,R3,2*%
%TO.N,/BRA*%
X158250000Y-55912500D03*
%TD*%
%TO.P,R8,1*%
%TO.N,/VS*%
X153250000Y-66087500D03*
%TO.P,R8,2*%
%TO.N,+5V*%
X153250000Y-67912500D03*
%TD*%
D21*
%TO.P,C5,1*%
%TO.N,/VS*%
X153250000Y-55862500D03*
%TO.P,C5,2*%
%TO.N,GND*%
X153250000Y-54137500D03*
%TD*%
D17*
%TO.P,EN1,1,K*%
%TO.N,Net-(EN1-Pad1)*%
X157500000Y-72737500D03*
%TO.P,EN1,2,A*%
%TO.N,+3V3*%
X157500000Y-69762500D03*
%TD*%
D22*
%TO.P,J1,1,Pin_1*%
%TO.N,/DIR*%
X144000000Y-41500000D03*
D23*
%TO.P,J1,2,Pin_2*%
%TO.N,/VREF*%
X144000000Y-44040000D03*
%TO.P,J1,3,Pin_3*%
%TO.N,/STEP*%
X144000000Y-46580000D03*
%TO.P,J1,4,Pin_4*%
%TO.N,/EN#*%
X144000000Y-49120000D03*
%TO.P,J1,5,Pin_5*%
%TO.N,/MS1*%
X144000000Y-51660000D03*
%TO.P,J1,6,Pin_6*%
%TO.N,/MS2*%
X144000000Y-54200000D03*
%TO.P,J1,7,Pin_7*%
%TO.N,/DIAG*%
X144000000Y-56740000D03*
%TO.P,J1,8,Pin_8*%
%TO.N,/INDEX*%
X144000000Y-59280000D03*
%TO.P,J1,9,Pin_9*%
%TO.N,/PDN_UART*%
X144000000Y-61820000D03*
%TO.P,J1,10,Pin_10*%
%TO.N,GND*%
X144000000Y-64360000D03*
%TO.P,J1,11,Pin_11*%
%TO.N,+3V3*%
X144000000Y-66900000D03*
%TD*%
D15*
%TO.P,R10,1*%
%TO.N,/STEP*%
X143000000Y-70587500D03*
%TO.P,R10,2*%
%TO.N,Net-(STEP1-Pad2)*%
X143000000Y-72412500D03*
%TD*%
D10*
%TO.P,TP7,1,1*%
%TO.N,/INDEX*%
X147300000Y-60500000D03*
%TD*%
D24*
%TO.P,R2,1*%
%TO.N,/BRB*%
X155750000Y-55912500D03*
%TO.P,R2,2*%
%TO.N,GND*%
X155750000Y-54087500D03*
%TD*%
D25*
%TO.P,C3,1*%
%TO.N,/VCP*%
X151862500Y-63500000D03*
%TO.P,C3,2*%
%TO.N,/VS*%
X150137500Y-63500000D03*
%TD*%
D10*
%TO.P,TP5,1,1*%
%TO.N,/STEP*%
X147300000Y-46500000D03*
%TD*%
D24*
%TO.P,R1,1*%
%TO.N,GND*%
X149500000Y-61412500D03*
%TO.P,R1,2*%
%TO.N,/EN#*%
X149500000Y-59587500D03*
%TD*%
%TO.P,R7,1*%
%TO.N,GND*%
X158250000Y-67912500D03*
%TO.P,R7,2*%
%TO.N,/CLK*%
X158250000Y-66087500D03*
%TD*%
D21*
%TO.P,C2,1*%
%TO.N,/CPI*%
X152000000Y-61362500D03*
%TO.P,C2,2*%
%TO.N,/CPO*%
X152000000Y-59637500D03*
%TD*%
D26*
%TO.P,J4,1,Pin_1*%
%TO.N,/VS*%
X167305000Y-51500000D03*
D27*
%TO.P,J4,2,Pin_2*%
%TO.N,GND*%
X167305000Y-46500000D03*
%TD*%
D10*
%TO.P,TP3,1,1*%
%TO.N,/MS1*%
X147300000Y-51600000D03*
%TD*%
D28*
%TO.P,C7,1*%
%TO.N,/VS*%
X157500000Y-48800000D03*
%TO.P,C7,2*%
%TO.N,GND*%
X157500000Y-43200000D03*
%TD*%
D21*
%TO.P,C6,1*%
%TO.N,/VS*%
X160750000Y-55862500D03*
%TO.P,C6,2*%
%TO.N,GND*%
X160750000Y-54137500D03*
%TD*%
D10*
%TO.P,TP14,1,1*%
%TO.N,/VS*%
X152500000Y-51600000D03*
%TD*%
D29*
%TO.P,R5,1*%
%TO.N,+5V*%
X163912500Y-58500000D03*
%TO.P,R5,2*%
%TO.N,/VREF*%
X162087500Y-58500000D03*
%TD*%
D10*
%TO.P,TP12,1,1*%
%TO.N,/VCC_IO*%
X160200000Y-71000000D03*
%TD*%
D30*
%TO.P,FID1,*%
%TO.N,*%
X153500000Y-41000000D03*
%TD*%
D11*
%TO.P,TP18,1,1*%
%TO.N,GND*%
X147400000Y-67400000D03*
%TD*%
D30*
%TO.P,FID2,*%
%TO.N,*%
X165000000Y-71000000D03*
%TD*%
D31*
%TO.P,R4,1*%
%TO.N,/VCC_IO*%
X162087500Y-63500000D03*
%TO.P,R4,2*%
%TO.N,+5V*%
X163912500Y-63500000D03*
%TD*%
D10*
%TO.P,TP16,1,1*%
%TO.N,+3V3*%
X143250000Y-69250000D03*
%TD*%
D24*
%TO.P,R9,1*%
%TO.N,Net-(EN1-Pad1)*%
X145500000Y-72412500D03*
%TO.P,R9,2*%
%TO.N,/EN#*%
X145500000Y-70587500D03*
%TD*%
D10*
%TO.P,TP8,1,1*%
%TO.N,/PDN_UART*%
X147300000Y-62900000D03*
%TD*%
D32*
%TO.N,GND*%
X153300000Y-60500000D03*
X159500000Y-63500000D03*
X156000000Y-60000000D03*
X158000000Y-62000000D03*
X162217570Y-65617570D03*
X154500000Y-67800000D03*
X159400000Y-67800000D03*
X163000000Y-59700000D03*
X163000000Y-62300000D03*
X158000000Y-60000000D03*
X154500000Y-55200000D03*
X156000000Y-62000000D03*
X150800000Y-61400000D03*
X159500000Y-55200000D03*
X157000000Y-55400000D03*
X160700000Y-59300000D03*
X154500000Y-63500000D03*
X159400000Y-67000000D03*
X154500000Y-67000000D03*
%TO.N,+3V3*%
X155500001Y-69399999D03*
D33*
X161776089Y-67976089D03*
D32*
%TO.N,/VCC_IO*%
X160693750Y-64893750D03*
D33*
%TO.N,/VS*%
X152000000Y-55000000D03*
X157000000Y-52400000D03*
X162000000Y-55000000D03*
D32*
%TO.N,/EN#*%
X152996218Y-59983164D03*
%TO.N,/DIR*%
X160200000Y-60500000D03*
%TO.N,/MS1*%
X156000000Y-64100000D03*
%TO.N,/MS2*%
X156500000Y-64500000D03*
%TO.N,/STEP*%
X160200000Y-62000000D03*
%TO.N,/DIAG*%
X156985931Y-64891559D03*
%TO.N,/INDEX*%
X157500000Y-65200000D03*
%TO.N,/PDN_UART*%
X158500000Y-64200000D03*
%TO.N,/OA1*%
X157500000Y-57700000D03*
%TO.N,/OA2*%
X159400000Y-58900000D03*
%TO.N,/OB1*%
X156500000Y-57700000D03*
%TO.N,/OB2*%
X154600000Y-58900000D03*
%TO.N,/VREF*%
X160600001Y-61499999D03*
%TO.N,Net-(STEP1-Pad2)*%
X144200000Y-72400000D03*
X153500000Y-71200000D03*
%TO.N,Net-(EN1-Pad1)*%
X145500000Y-73200000D03*
X155700000Y-73200000D03*
%TD*%
D34*
%TO.N,GND*%
X154652900Y-60500001D02*
X153300000Y-60500000D01*
X160407107Y-61000000D02*
X160700000Y-60707107D01*
X150975000Y-64575000D02*
X151400000Y-65000000D01*
X155500000Y-62500000D02*
X154652900Y-62500000D01*
X160700000Y-60707107D02*
X160700000Y-59300000D01*
X157000000Y-61000000D02*
X156500001Y-60500001D01*
X154652900Y-63347100D02*
X154500000Y-63500000D01*
X163000000Y-64835140D02*
X163000000Y-62300000D01*
X156500001Y-60500001D02*
X154652900Y-60500001D01*
X157000000Y-61000000D02*
X157000000Y-58652900D01*
X162217570Y-65617570D02*
X163000000Y-64835140D01*
X154652900Y-62500000D02*
X154652900Y-63347100D01*
X150975000Y-61575000D02*
X150975000Y-64575000D01*
X163000000Y-59700000D02*
X163000000Y-57400000D01*
X159400000Y-67000000D02*
X160835140Y-67000000D01*
X160835140Y-67000000D02*
X162217570Y-65617570D01*
X157000000Y-58652900D02*
X157000000Y-55400000D01*
X150800000Y-61400000D02*
X150975000Y-61575000D01*
X157000000Y-61000000D02*
X159347100Y-61000000D01*
X158000000Y-60000000D02*
X159347100Y-59999999D01*
X159347100Y-61000000D02*
X160407107Y-61000000D01*
X156000000Y-62000000D02*
X155500000Y-62500000D01*
X154500000Y-67000000D02*
X152200000Y-67000000D01*
D35*
%TO.N,+3V3*%
X161776089Y-67976089D02*
X161712500Y-67912500D01*
D34*
X157137499Y-69399999D02*
X155500001Y-69399999D01*
X157500000Y-69762500D02*
X157137499Y-69399999D01*
D35*
X161712500Y-67912500D02*
X160500000Y-67912500D01*
D34*
%TO.N,/VCC_IO*%
X160693750Y-64893750D02*
X162087500Y-63500000D01*
X159347100Y-62500000D02*
X160637500Y-62500000D01*
X162087500Y-63500000D02*
X162087500Y-61050000D01*
X160637500Y-62500000D02*
X162137500Y-61000000D01*
X160500000Y-66087500D02*
X160500000Y-65087500D01*
X162087500Y-61050000D02*
X162137500Y-61000000D01*
X160500000Y-65087500D02*
X160693750Y-64893750D01*
%TO.N,+5V*%
X155500000Y-65887500D02*
X155500000Y-63347100D01*
X164700000Y-59287500D02*
X163912500Y-58500000D01*
X154037500Y-68700000D02*
X153250000Y-67912500D01*
X164000000Y-68500000D02*
X162100000Y-68500000D01*
X161900000Y-68700000D02*
X157100000Y-68700000D01*
X157100000Y-67487500D02*
X157100000Y-68700000D01*
X164700000Y-62712500D02*
X164700000Y-59287500D01*
X163912500Y-63500000D02*
X163912500Y-66687500D01*
X155750000Y-66137500D02*
X155500000Y-65887500D01*
X157100000Y-68700000D02*
X154037500Y-68700000D01*
X163912500Y-66687500D02*
X161900000Y-68700000D01*
X155750000Y-66137500D02*
X157100000Y-67487500D01*
X163912500Y-63500000D02*
X164700000Y-62712500D01*
X162100000Y-68500000D02*
X161900000Y-68700000D01*
%TO.N,/CPI*%
X152137499Y-61499999D02*
X154652900Y-61499999D01*
X152000000Y-61362500D02*
X152137499Y-61499999D01*
%TO.N,/CPO*%
X153000000Y-61000000D02*
X154652900Y-61000000D01*
X152000000Y-60000000D02*
X153000000Y-61000000D01*
X152000000Y-59637500D02*
X152000000Y-60000000D01*
%TO.N,/VCP*%
X153999999Y-62000001D02*
X154652900Y-62000001D01*
X152500000Y-63500000D02*
X153999999Y-62000001D01*
X151862500Y-63500000D02*
X152500000Y-63500000D01*
%TO.N,/VS*%
X158500000Y-57862500D02*
X158500000Y-58652900D01*
X150137500Y-63500000D02*
X150137500Y-63437500D01*
X154600000Y-51600000D02*
X157400000Y-48800000D01*
X157400000Y-48800000D02*
X157500000Y-48800000D01*
X152500000Y-51600000D02*
X154600000Y-51600000D01*
X153000000Y-56152900D02*
X155500000Y-58652900D01*
D35*
X157000000Y-49200000D02*
X157500000Y-48700000D01*
D34*
X148500000Y-57500000D02*
X150137500Y-55862500D01*
X150137500Y-64937500D02*
X151287500Y-66087500D01*
D35*
X157000000Y-52400000D02*
X157000000Y-49300000D01*
X152387500Y-55000000D02*
X153250000Y-55862500D01*
X152000000Y-55000000D02*
X152387500Y-55000000D01*
D34*
X150137500Y-55862500D02*
X153250000Y-55862500D01*
X150137500Y-63500000D02*
X150137500Y-64937500D01*
X153250000Y-55862500D02*
X153250000Y-56152900D01*
X150137500Y-63437500D02*
X148500000Y-61800000D01*
X151287500Y-66087500D02*
X153250000Y-66087500D01*
D35*
X157000000Y-49300000D02*
X157500000Y-48800000D01*
X162000000Y-55000000D02*
X161612500Y-55000000D01*
D34*
X160500000Y-55862500D02*
X158500000Y-57862500D01*
X148500000Y-61800000D02*
X148500000Y-57500000D01*
D35*
X161612500Y-55000000D02*
X160750000Y-55862500D01*
D34*
%TO.N,/EN#*%
X152996218Y-59983164D02*
X152996218Y-59336078D01*
X152460140Y-58800000D02*
X150287500Y-58800000D01*
X152996218Y-59983164D02*
X154636065Y-59983164D01*
X144000000Y-49120000D02*
X142850000Y-50270000D01*
X144000000Y-49005000D02*
X147205000Y-49005000D01*
X150287500Y-58800000D02*
X149500000Y-59587500D01*
X154636065Y-59983164D02*
X154652900Y-59999999D01*
X142850000Y-50270000D02*
X142850000Y-67376346D01*
X145500000Y-70026346D02*
X145500000Y-70587500D01*
X142850000Y-67376346D02*
X145500000Y-70026346D01*
X152996218Y-59336078D02*
X152460140Y-58800000D01*
X147205000Y-49005000D02*
X147300000Y-49100000D01*
%TO.N,/DIR*%
X146400000Y-43900000D02*
X144000000Y-41500000D01*
X159347100Y-60500001D02*
X160200000Y-60500000D01*
X146400000Y-43900000D02*
X147300000Y-43900000D01*
%TO.N,/MS1*%
X144000000Y-51545000D02*
X147245000Y-51545000D01*
X155999999Y-63347100D02*
X156000000Y-64100000D01*
X147245000Y-51545000D02*
X147300000Y-51600000D01*
%TO.N,/MS2*%
X156500001Y-63347100D02*
X156500000Y-64500000D01*
X147285000Y-54085000D02*
X147300000Y-54100000D01*
X144000000Y-54085000D02*
X147285000Y-54085000D01*
%TO.N,/STEP*%
X144000000Y-46580000D02*
X142450000Y-48130000D01*
X142450000Y-70037500D02*
X143000000Y-70587500D01*
X142450000Y-48130000D02*
X142450000Y-70037500D01*
X147265000Y-46465000D02*
X147300000Y-46500000D01*
X159347100Y-62000001D02*
X160200000Y-62000000D01*
X144000000Y-46465000D02*
X147265000Y-46465000D01*
%TO.N,/DIAG*%
X144140000Y-56600000D02*
X144000000Y-56740000D01*
X156985931Y-64891559D02*
X157000000Y-64877490D01*
X157000000Y-64877490D02*
X157000000Y-63347100D01*
X147300000Y-56600000D02*
X144140000Y-56600000D01*
%TO.N,/INDEX*%
X145220000Y-60500000D02*
X144000000Y-59280000D01*
X157499999Y-63347100D02*
X157500000Y-65200000D01*
X147300000Y-60500000D02*
X145220000Y-60500000D01*
%TO.N,/PDN_UART*%
X158500000Y-63347100D02*
X158500000Y-64200000D01*
X145080000Y-62900000D02*
X144000000Y-61820000D01*
X147300000Y-62900000D02*
X145080000Y-62900000D01*
%TO.N,/OA1*%
X157499999Y-58652900D02*
X157500000Y-57700000D01*
%TO.N,/OA2*%
X159347100Y-59500000D02*
X159347100Y-58952900D01*
X159347100Y-58952900D02*
X159400000Y-58900000D01*
%TO.N,/OB1*%
X156500001Y-58652900D02*
X156500000Y-57700000D01*
%TO.N,/OB2*%
X154652900Y-58952900D02*
X154652900Y-59500000D01*
X154600000Y-58900000D02*
X154652900Y-58952900D01*
%TO.N,/BRB*%
X155999999Y-58652900D02*
X155999999Y-56412499D01*
%TO.N,/BRA*%
X158000001Y-58652900D02*
X158000000Y-55912500D01*
%TO.N,/VREF*%
X162087500Y-59752360D02*
X162087500Y-58500000D01*
X159347100Y-61499999D02*
X160600001Y-61499999D01*
X161100000Y-60739860D02*
X162087500Y-59752360D01*
X161100000Y-61136397D02*
X161100000Y-60739860D01*
X160600001Y-61499999D02*
X160736398Y-61499999D01*
X160736398Y-61499999D02*
X161100000Y-61136397D01*
%TO.N,/CLK*%
X158000001Y-65837501D02*
X158250000Y-66087500D01*
X158000001Y-63347100D02*
X158000001Y-65837501D01*
%TO.N,Net-(STEP1-Pad2)*%
X153500000Y-71200000D02*
X153500000Y-69762500D01*
X143000000Y-72412500D02*
X144187500Y-72412500D01*
X144187500Y-72412500D02*
X144200000Y-72400000D01*
%TO.N,Net-(EN1-Pad1)*%
X155700000Y-73200000D02*
X157037500Y-73200000D01*
X157037500Y-73200000D02*
X157500000Y-72737500D01*
X145500000Y-72412500D02*
X145500000Y-73200000D01*
%TD*%
%TA.AperFunction,Conductor*%
%TO.N,GND*%
G36*
X171501551Y-38000038D02*
G01*
X171587403Y-38002141D01*
X171608896Y-38004523D01*
X171778820Y-38038323D01*
X171802443Y-38045489D01*
X171961076Y-38111197D01*
X171982856Y-38122840D01*
X172125612Y-38218226D01*
X172144705Y-38233896D01*
X172266103Y-38355294D01*
X172281773Y-38374387D01*
X172377159Y-38517143D01*
X172388803Y-38538926D01*
X172454507Y-38697547D01*
X172461677Y-38721185D01*
X172495475Y-38891102D01*
X172497858Y-38912596D01*
X172499962Y-38998447D01*
X172500000Y-39001534D01*
X172500000Y-72998465D01*
X172499962Y-73001552D01*
X172497858Y-73087403D01*
X172495475Y-73108897D01*
X172461677Y-73278814D01*
X172454507Y-73302452D01*
X172388803Y-73461073D01*
X172377159Y-73482856D01*
X172281773Y-73625612D01*
X172266103Y-73644705D01*
X172144705Y-73766103D01*
X172125612Y-73781773D01*
X171982856Y-73877159D01*
X171961073Y-73888803D01*
X171802452Y-73954507D01*
X171778814Y-73961677D01*
X171608897Y-73995475D01*
X171587403Y-73997858D01*
X171503631Y-73999911D01*
X171501550Y-73999962D01*
X171498465Y-74000000D01*
X158701872Y-74000000D01*
X158633751Y-73979998D01*
X158587258Y-73926342D01*
X158577154Y-73856068D01*
X158606648Y-73791488D01*
X158612777Y-73784905D01*
X158724024Y-73673657D01*
X158724030Y-73673651D01*
X158817115Y-73522738D01*
X158872887Y-73354425D01*
X158879452Y-73290168D01*
X158883500Y-73250552D01*
X158883500Y-72224447D01*
X158872898Y-72120681D01*
X158872887Y-72120575D01*
X158817115Y-71952262D01*
X158724030Y-71801349D01*
X158724029Y-71801348D01*
X158724024Y-71801342D01*
X158598657Y-71675975D01*
X158598651Y-71675970D01*
X158460046Y-71590477D01*
X158447738Y-71582885D01*
X158279425Y-71527113D01*
X158279423Y-71527112D01*
X158279421Y-71527112D01*
X158175552Y-71516500D01*
X158175544Y-71516500D01*
X156824456Y-71516500D01*
X156824448Y-71516500D01*
X156720578Y-71527112D01*
X156552262Y-71582885D01*
X156552260Y-71582886D01*
X156401348Y-71675970D01*
X156401342Y-71675975D01*
X156275975Y-71801342D01*
X156275970Y-71801348D01*
X156182886Y-71952260D01*
X156182885Y-71952262D01*
X156127112Y-72120578D01*
X156116500Y-72224447D01*
X156116500Y-72412126D01*
X156096498Y-72480247D01*
X156042842Y-72526740D01*
X155972568Y-72536844D01*
X155960347Y-72534465D01*
X155786031Y-72491500D01*
X155786028Y-72491500D01*
X155613972Y-72491500D01*
X155613968Y-72491500D01*
X155446920Y-72532673D01*
X155446912Y-72532677D01*
X155294573Y-72612630D01*
X155294568Y-72612634D01*
X155165785Y-72726727D01*
X155068045Y-72868326D01*
X155052173Y-72910180D01*
X155009315Y-72966781D01*
X154942659Y-72991226D01*
X154934361Y-72991500D01*
X152117001Y-72991500D01*
X152117001Y-73250507D01*
X152127605Y-73354318D01*
X152183342Y-73522525D01*
X152276366Y-73673339D01*
X152276371Y-73673345D01*
X152387931Y-73784905D01*
X152421957Y-73847217D01*
X152416892Y-73918032D01*
X152374345Y-73974868D01*
X152307825Y-73999679D01*
X152298836Y-74000000D01*
X145997651Y-74000000D01*
X145929530Y-73979998D01*
X145883037Y-73926342D01*
X145872933Y-73856068D01*
X145902427Y-73791488D01*
X145914091Y-73779693D01*
X146034215Y-73673273D01*
X146131954Y-73531675D01*
X146192965Y-73370801D01*
X146194954Y-73354425D01*
X146202755Y-73290171D01*
X146230821Y-73224957D01*
X146238742Y-73216261D01*
X146326653Y-73128351D01*
X146326655Y-73128349D01*
X146326658Y-73128346D01*
X146418209Y-72979920D01*
X146473062Y-72814381D01*
X146483500Y-72712213D01*
X146483499Y-72112788D01*
X146473062Y-72010619D01*
X146418209Y-71845080D01*
X146326658Y-71696654D01*
X146326657Y-71696653D01*
X146326652Y-71696647D01*
X146219100Y-71589095D01*
X146185074Y-71526783D01*
X146190139Y-71455968D01*
X146219100Y-71410905D01*
X146326652Y-71303352D01*
X146326658Y-71303346D01*
X146418209Y-71154920D01*
X146473062Y-70989381D01*
X146482836Y-70893713D01*
X148149500Y-70893713D01*
X148149500Y-71106287D01*
X148182754Y-71316243D01*
X148248443Y-71518412D01*
X148344949Y-71707816D01*
X148469896Y-71879792D01*
X148469898Y-71879794D01*
X148469900Y-71879797D01*
X148620202Y-72030099D01*
X148620205Y-72030101D01*
X148620208Y-72030104D01*
X148792184Y-72155051D01*
X148981588Y-72251557D01*
X149183757Y-72317246D01*
X149393713Y-72350500D01*
X149393716Y-72350500D01*
X149606284Y-72350500D01*
X149606287Y-72350500D01*
X149816243Y-72317246D01*
X150018412Y-72251557D01*
X150207816Y-72155051D01*
X150379792Y-72030104D01*
X150530104Y-71879792D01*
X150655051Y-71707816D01*
X150751557Y-71518412D01*
X150817246Y-71316243D01*
X150850500Y-71106287D01*
X150850500Y-70893713D01*
X150817246Y-70683757D01*
X150751557Y-70481588D01*
X150655051Y-70292184D01*
X150530104Y-70120208D01*
X150530101Y-70120205D01*
X150530099Y-70120202D01*
X150379797Y-69969900D01*
X150379794Y-69969898D01*
X150379792Y-69969896D01*
X150207816Y-69844949D01*
X150018412Y-69748443D01*
X149816243Y-69682754D01*
X149606287Y-69649500D01*
X149393713Y-69649500D01*
X149183757Y-69682754D01*
X149183754Y-69682754D01*
X149183753Y-69682755D01*
X148981588Y-69748443D01*
X148981586Y-69748444D01*
X148792180Y-69844951D01*
X148620205Y-69969898D01*
X148620202Y-69969900D01*
X148469900Y-70120202D01*
X148469898Y-70120205D01*
X148344951Y-70292180D01*
X148248444Y-70481586D01*
X148248443Y-70481588D01*
X148206006Y-70612196D01*
X148182754Y-70683757D01*
X148149500Y-70893713D01*
X146482836Y-70893713D01*
X146483500Y-70887213D01*
X146483499Y-70287788D01*
X146473062Y-70185619D01*
X146418209Y-70020080D01*
X146326658Y-69871654D01*
X146326657Y-69871653D01*
X146326652Y-69871647D01*
X146203352Y-69748347D01*
X146203346Y-69748342D01*
X146198727Y-69745493D01*
X146054920Y-69656791D01*
X146054918Y-69656790D01*
X146054916Y-69656789D01*
X145987658Y-69634502D01*
X145938196Y-69603993D01*
X144624864Y-68290661D01*
X144590838Y-68228349D01*
X144595903Y-68157534D01*
X144638450Y-68100698D01*
X144653982Y-68090756D01*
X144745576Y-68041189D01*
X144864537Y-67948597D01*
X146392000Y-67948597D01*
X146398505Y-68009093D01*
X146449555Y-68145964D01*
X146449555Y-68145965D01*
X146537095Y-68262904D01*
X146654034Y-68350444D01*
X146790906Y-68401494D01*
X146851402Y-68407999D01*
X146851415Y-68408000D01*
X147146000Y-68408000D01*
X147654000Y-68408000D01*
X147948585Y-68408000D01*
X147948597Y-68407999D01*
X148009093Y-68401494D01*
X148145964Y-68350444D01*
X148145965Y-68350444D01*
X148262904Y-68262904D01*
X148350444Y-68145965D01*
X148350444Y-68145964D01*
X148401494Y-68009093D01*
X148407999Y-67948597D01*
X148408000Y-67948585D01*
X148408000Y-67654000D01*
X147654000Y-67654000D01*
X147654000Y-68408000D01*
X147146000Y-68408000D01*
X147146000Y-67654000D01*
X146392000Y-67654000D01*
X146392000Y-67948597D01*
X144864537Y-67948597D01*
X144923240Y-67902906D01*
X145075722Y-67737268D01*
X145198860Y-67548791D01*
X145285938Y-67350272D01*
X147150000Y-67350272D01*
X147150000Y-67449728D01*
X147188060Y-67541614D01*
X147258386Y-67611940D01*
X147350272Y-67650000D01*
X147449728Y-67650000D01*
X147541614Y-67611940D01*
X147611940Y-67541614D01*
X147650000Y-67449728D01*
X147650000Y-67350272D01*
X147611940Y-67258386D01*
X147541614Y-67188060D01*
X147449728Y-67150000D01*
X147350272Y-67150000D01*
X147258386Y-67188060D01*
X147188060Y-67258386D01*
X147150000Y-67350272D01*
X145285938Y-67350272D01*
X145289296Y-67342616D01*
X145344564Y-67124368D01*
X145363156Y-66900000D01*
X145359129Y-66851402D01*
X146392000Y-66851402D01*
X146392000Y-67146000D01*
X147146000Y-67146000D01*
X147654000Y-67146000D01*
X148408000Y-67146000D01*
X148408000Y-66851414D01*
X148407999Y-66851402D01*
X148401494Y-66790906D01*
X148350444Y-66654035D01*
X148350444Y-66654034D01*
X148262904Y-66537095D01*
X148145965Y-66449555D01*
X148009093Y-66398505D01*
X147948597Y-66392000D01*
X147654000Y-66392000D01*
X147654000Y-67146000D01*
X147146000Y-67146000D01*
X147146000Y-66392000D01*
X146851402Y-66392000D01*
X146790906Y-66398505D01*
X146654035Y-66449555D01*
X146654034Y-66449555D01*
X146537095Y-66537095D01*
X146449555Y-66654034D01*
X146449555Y-66654035D01*
X146398505Y-66790906D01*
X146392000Y-66851402D01*
X145359129Y-66851402D01*
X145344564Y-66675632D01*
X145302360Y-66508972D01*
X145289297Y-66457387D01*
X145289296Y-66457386D01*
X145289296Y-66457384D01*
X145198860Y-66251209D01*
X145122940Y-66135004D01*
X145075724Y-66062734D01*
X145075720Y-66062729D01*
X144923237Y-65897091D01*
X144782805Y-65787788D01*
X144745576Y-65758811D01*
X144711792Y-65740528D01*
X144661402Y-65690516D01*
X144646050Y-65621199D01*
X144670610Y-65554586D01*
X144711793Y-65518901D01*
X144745300Y-65500767D01*
X144745301Y-65500767D01*
X144922902Y-65362534D01*
X145075325Y-65196958D01*
X145198419Y-65008548D01*
X145288820Y-64802456D01*
X145288823Y-64802449D01*
X145336544Y-64614000D01*
X144430703Y-64614000D01*
X144465925Y-64552993D01*
X144500000Y-64425826D01*
X144500000Y-64294174D01*
X144465925Y-64167007D01*
X144430703Y-64106000D01*
X145336544Y-64106000D01*
X145336544Y-64105999D01*
X145288823Y-63917550D01*
X145288820Y-63917543D01*
X145198418Y-63711448D01*
X145193170Y-63703415D01*
X145172657Y-63635447D01*
X145192146Y-63567177D01*
X145245451Y-63520283D01*
X145298653Y-63508500D01*
X146435150Y-63508500D01*
X146503271Y-63528502D01*
X146532546Y-63554563D01*
X146583432Y-63616568D01*
X146583434Y-63616570D01*
X146651410Y-63672356D01*
X146736996Y-63742595D01*
X146912196Y-63836241D01*
X147102299Y-63893908D01*
X147102303Y-63893908D01*
X147102305Y-63893909D01*
X147299997Y-63913380D01*
X147300000Y-63913380D01*
X147300003Y-63913380D01*
X147497694Y-63893909D01*
X147497695Y-63893908D01*
X147497701Y-63893908D01*
X147687804Y-63836241D01*
X147863004Y-63742595D01*
X148016568Y-63616568D01*
X148142595Y-63463004D01*
X148236241Y-63287804D01*
X148293908Y-63097701D01*
X148295049Y-63086124D01*
X148313380Y-62900003D01*
X148313380Y-62899998D01*
X148301866Y-62783099D01*
X148301347Y-62777829D01*
X148314575Y-62708077D01*
X148363415Y-62656549D01*
X148432360Y-62639605D01*
X148499521Y-62662626D01*
X148515835Y-62676384D01*
X149054596Y-63215145D01*
X149088620Y-63277456D01*
X149091500Y-63304239D01*
X149091500Y-63787212D01*
X149101937Y-63889380D01*
X149156791Y-64054920D01*
X149248342Y-64203346D01*
X149248347Y-64203352D01*
X149371647Y-64326652D01*
X149371653Y-64326657D01*
X149371654Y-64326658D01*
X149469148Y-64386794D01*
X149516625Y-64439578D01*
X149529000Y-64494033D01*
X149529000Y-65017612D01*
X149541577Y-65064547D01*
X149541577Y-65064550D01*
X149541578Y-65064550D01*
X149541578Y-65064551D01*
X149570468Y-65172373D01*
X149570469Y-65172375D01*
X149570470Y-65172377D01*
X149650575Y-65311123D01*
X149650583Y-65311133D01*
X150913866Y-66574416D01*
X150913871Y-66574420D01*
X150913873Y-66574422D01*
X150913874Y-66574423D01*
X150913876Y-66574424D01*
X150914959Y-66575049D01*
X150972898Y-66608500D01*
X151052628Y-66654532D01*
X151207389Y-66696000D01*
X151207390Y-66696000D01*
X151367611Y-66696000D01*
X152286807Y-66696000D01*
X152354928Y-66716002D01*
X152394047Y-66755853D01*
X152423338Y-66803340D01*
X152423342Y-66803346D01*
X152423344Y-66803348D01*
X152423347Y-66803352D01*
X152530900Y-66910905D01*
X152564926Y-66973217D01*
X152559861Y-67044032D01*
X152530900Y-67089095D01*
X152423347Y-67196647D01*
X152423342Y-67196653D01*
X152331791Y-67345080D01*
X152276937Y-67510622D01*
X152266500Y-67612778D01*
X152266500Y-68212212D01*
X152276937Y-68314380D01*
X152331791Y-68479920D01*
X152390355Y-68574866D01*
X152409092Y-68643345D01*
X152387833Y-68711084D01*
X152372210Y-68730108D01*
X152275970Y-68826348D01*
X152182886Y-68977260D01*
X152182885Y-68977262D01*
X152127112Y-69145578D01*
X152116500Y-69249447D01*
X152116500Y-70275552D01*
X152116499Y-70275552D01*
X152127112Y-70379421D01*
X152127112Y-70379423D01*
X152127113Y-70379425D01*
X152182885Y-70547738D01*
X152259723Y-70672310D01*
X152275970Y-70698651D01*
X152275975Y-70698657D01*
X152401342Y-70824024D01*
X152401348Y-70824029D01*
X152401349Y-70824030D01*
X152552262Y-70917115D01*
X152712388Y-70970174D01*
X152770757Y-71010586D01*
X152798013Y-71076142D01*
X152797834Y-71104963D01*
X152786296Y-71199994D01*
X152786296Y-71200003D01*
X152807033Y-71370793D01*
X152808365Y-71376196D01*
X152805246Y-71447124D01*
X152764277Y-71505106D01*
X152725659Y-71525954D01*
X152552478Y-71583340D01*
X152401660Y-71676366D01*
X152401654Y-71676371D01*
X152276371Y-71801654D01*
X152276366Y-71801660D01*
X152183342Y-71952474D01*
X152127606Y-72120678D01*
X152127605Y-72120681D01*
X152117000Y-72224484D01*
X152117000Y-72483500D01*
X154882999Y-72483500D01*
X154882999Y-72224492D01*
X154872394Y-72120681D01*
X154816657Y-71952474D01*
X154723633Y-71801660D01*
X154723628Y-71801654D01*
X154598345Y-71676371D01*
X154598339Y-71676366D01*
X154447521Y-71583340D01*
X154274341Y-71525954D01*
X154215969Y-71485540D01*
X154188714Y-71419984D01*
X154191636Y-71376193D01*
X154192966Y-71370795D01*
X154213704Y-71200003D01*
X154213704Y-71199997D01*
X154202165Y-71104965D01*
X154213810Y-71034930D01*
X154245450Y-70999996D01*
X159186620Y-70999996D01*
X159186620Y-71000003D01*
X159206090Y-71197694D01*
X159206091Y-71197700D01*
X159206092Y-71197701D01*
X159263759Y-71387804D01*
X159357405Y-71563004D01*
X159483432Y-71716568D01*
X159636996Y-71842595D01*
X159812196Y-71936241D01*
X160002299Y-71993908D01*
X160002303Y-71993908D01*
X160002305Y-71993909D01*
X160199997Y-72013380D01*
X160200000Y-72013380D01*
X160200003Y-72013380D01*
X160397694Y-71993909D01*
X160397695Y-71993908D01*
X160397701Y-71993908D01*
X160587804Y-71936241D01*
X160763004Y-71842595D01*
X160916568Y-71716568D01*
X161042595Y-71563004D01*
X161050296Y-71548597D01*
X161592000Y-71548597D01*
X161598505Y-71609093D01*
X161649555Y-71745964D01*
X161649555Y-71745965D01*
X161737095Y-71862904D01*
X161854034Y-71950444D01*
X161990906Y-72001494D01*
X162051402Y-72007999D01*
X162051415Y-72008000D01*
X162346000Y-72008000D01*
X162854000Y-72008000D01*
X163148585Y-72008000D01*
X163148597Y-72007999D01*
X163209093Y-72001494D01*
X163345964Y-71950444D01*
X163345965Y-71950444D01*
X163462904Y-71862904D01*
X163550444Y-71745965D01*
X163550444Y-71745964D01*
X163601494Y-71609093D01*
X163607999Y-71548597D01*
X163608000Y-71548585D01*
X163608000Y-71254000D01*
X162854000Y-71254000D01*
X162854000Y-72008000D01*
X162346000Y-72008000D01*
X162346000Y-71254000D01*
X161592000Y-71254000D01*
X161592000Y-71548597D01*
X161050296Y-71548597D01*
X161136241Y-71387804D01*
X161193908Y-71197701D01*
X161196828Y-71168061D01*
X161213380Y-71000003D01*
X161213380Y-70999996D01*
X161208483Y-70950272D01*
X162350000Y-70950272D01*
X162350000Y-71049728D01*
X162388060Y-71141614D01*
X162458386Y-71211940D01*
X162550272Y-71250000D01*
X162649728Y-71250000D01*
X162741614Y-71211940D01*
X162811940Y-71141614D01*
X162850000Y-71049728D01*
X162850000Y-71000000D01*
X164244751Y-71000000D01*
X164263687Y-71168059D01*
X164274863Y-71199997D01*
X164319543Y-71327689D01*
X164319544Y-71327690D01*
X164409523Y-71470890D01*
X164409526Y-71470893D01*
X164409526Y-71470894D01*
X164529105Y-71590473D01*
X164529107Y-71590474D01*
X164529110Y-71590477D01*
X164672310Y-71680456D01*
X164831941Y-71736313D01*
X165000000Y-71755249D01*
X165168059Y-71736313D01*
X165327690Y-71680456D01*
X165470890Y-71590477D01*
X165590477Y-71470890D01*
X165680456Y-71327690D01*
X165736313Y-71168059D01*
X165755249Y-71000000D01*
X165743273Y-70893713D01*
X167649500Y-70893713D01*
X167649500Y-71106287D01*
X167682754Y-71316243D01*
X167748443Y-71518412D01*
X167844949Y-71707816D01*
X167969896Y-71879792D01*
X167969898Y-71879794D01*
X167969900Y-71879797D01*
X168120202Y-72030099D01*
X168120205Y-72030101D01*
X168120208Y-72030104D01*
X168292184Y-72155051D01*
X168481588Y-72251557D01*
X168683757Y-72317246D01*
X168893713Y-72350500D01*
X168893716Y-72350500D01*
X169106284Y-72350500D01*
X169106287Y-72350500D01*
X169316243Y-72317246D01*
X169518412Y-72251557D01*
X169707816Y-72155051D01*
X169879792Y-72030104D01*
X170030104Y-71879792D01*
X170155051Y-71707816D01*
X170251557Y-71518412D01*
X170317246Y-71316243D01*
X170350500Y-71106287D01*
X170350500Y-70893713D01*
X170317246Y-70683757D01*
X170251557Y-70481588D01*
X170155051Y-70292184D01*
X170030104Y-70120208D01*
X170030101Y-70120205D01*
X170030099Y-70120202D01*
X169879797Y-69969900D01*
X169879794Y-69969898D01*
X169879792Y-69969896D01*
X169707816Y-69844949D01*
X169518412Y-69748443D01*
X169316243Y-69682754D01*
X169106287Y-69649500D01*
X168893713Y-69649500D01*
X168683757Y-69682754D01*
X168683754Y-69682754D01*
X168683753Y-69682755D01*
X168481588Y-69748443D01*
X168481586Y-69748444D01*
X168292180Y-69844951D01*
X168120205Y-69969898D01*
X168120202Y-69969900D01*
X167969900Y-70120202D01*
X167969898Y-70120205D01*
X167844951Y-70292180D01*
X167748444Y-70481586D01*
X167748443Y-70481588D01*
X167706006Y-70612196D01*
X167682754Y-70683757D01*
X167649500Y-70893713D01*
X165743273Y-70893713D01*
X165736313Y-70831941D01*
X165680456Y-70672310D01*
X165590477Y-70529110D01*
X165590473Y-70529106D01*
X165590473Y-70529105D01*
X165470894Y-70409526D01*
X165470891Y-70409524D01*
X165470890Y-70409523D01*
X165389700Y-70358507D01*
X165327689Y-70319543D01*
X165201967Y-70275552D01*
X165168059Y-70263687D01*
X165000000Y-70244751D01*
X164831941Y-70263687D01*
X164831938Y-70263687D01*
X164831938Y-70263688D01*
X164672310Y-70319543D01*
X164577017Y-70379421D01*
X164529110Y-70409523D01*
X164529108Y-70409524D01*
X164529106Y-70409526D01*
X164529105Y-70409526D01*
X164409526Y-70529105D01*
X164409526Y-70529106D01*
X164319543Y-70672310D01*
X164266455Y-70824030D01*
X164263687Y-70831941D01*
X164244751Y-71000000D01*
X162850000Y-71000000D01*
X162850000Y-70950272D01*
X162811940Y-70858386D01*
X162741614Y-70788060D01*
X162649728Y-70750000D01*
X162550272Y-70750000D01*
X162458386Y-70788060D01*
X162388060Y-70858386D01*
X162350000Y-70950272D01*
X161208483Y-70950272D01*
X161193909Y-70802305D01*
X161193908Y-70802303D01*
X161193908Y-70802299D01*
X161136241Y-70612196D01*
X161050295Y-70451402D01*
X161592000Y-70451402D01*
X161592000Y-70746000D01*
X162346000Y-70746000D01*
X162854000Y-70746000D01*
X163608000Y-70746000D01*
X163608000Y-70451414D01*
X163607999Y-70451402D01*
X163601494Y-70390906D01*
X163550444Y-70254035D01*
X163550444Y-70254034D01*
X163462904Y-70137095D01*
X163345965Y-70049555D01*
X163209093Y-69998505D01*
X163148597Y-69992000D01*
X162854000Y-69992000D01*
X162854000Y-70746000D01*
X162346000Y-70746000D01*
X162346000Y-69992000D01*
X162051402Y-69992000D01*
X161990906Y-69998505D01*
X161854035Y-70049555D01*
X161854034Y-70049555D01*
X161737095Y-70137095D01*
X161649555Y-70254034D01*
X161649555Y-70254035D01*
X161598505Y-70390906D01*
X161592000Y-70451402D01*
X161050295Y-70451402D01*
X161042595Y-70436996D01*
X160916568Y-70283432D01*
X160763004Y-70157405D01*
X160587804Y-70063759D01*
X160397701Y-70006092D01*
X160397700Y-70006091D01*
X160397694Y-70006090D01*
X160200003Y-69986620D01*
X160199997Y-69986620D01*
X160002305Y-70006090D01*
X159812195Y-70063759D01*
X159636995Y-70157405D01*
X159483432Y-70283432D01*
X159357405Y-70436995D01*
X159263759Y-70612195D01*
X159206090Y-70802305D01*
X159186620Y-70999996D01*
X154245450Y-70999996D01*
X154261470Y-70982308D01*
X154287602Y-70970177D01*
X154447738Y-70917115D01*
X154598651Y-70824030D01*
X154724030Y-70698651D01*
X154817115Y-70547738D01*
X154872887Y-70379425D01*
X154879005Y-70319543D01*
X154883500Y-70275552D01*
X154883500Y-70080333D01*
X154903502Y-70012212D01*
X154957158Y-69965719D01*
X155027432Y-69955615D01*
X155088098Y-69983321D01*
X155088297Y-69983035D01*
X155089912Y-69984150D01*
X155092012Y-69985109D01*
X155092935Y-69985916D01*
X155094571Y-69987366D01*
X155094572Y-69987366D01*
X155094574Y-69987368D01*
X155156900Y-70020079D01*
X155246918Y-70067324D01*
X155246919Y-70067324D01*
X155246921Y-70067325D01*
X155405395Y-70106384D01*
X155413973Y-70108499D01*
X155413976Y-70108499D01*
X155586026Y-70108499D01*
X155586029Y-70108499D01*
X155753084Y-70067324D01*
X155827055Y-70028501D01*
X155837666Y-70022932D01*
X155896221Y-70008499D01*
X155990500Y-70008499D01*
X156058621Y-70028501D01*
X156105114Y-70082157D01*
X156116500Y-70134499D01*
X156116500Y-70275552D01*
X156116499Y-70275552D01*
X156127112Y-70379421D01*
X156127112Y-70379423D01*
X156127113Y-70379425D01*
X156182885Y-70547738D01*
X156259723Y-70672310D01*
X156275970Y-70698651D01*
X156275975Y-70698657D01*
X156401342Y-70824024D01*
X156401348Y-70824029D01*
X156401349Y-70824030D01*
X156552262Y-70917115D01*
X156720575Y-70972887D01*
X156748906Y-70975781D01*
X156824448Y-70983500D01*
X156824456Y-70983500D01*
X158175552Y-70983500D01*
X158244798Y-70976424D01*
X158279425Y-70972887D01*
X158447738Y-70917115D01*
X158598651Y-70824030D01*
X158724030Y-70698651D01*
X158817115Y-70547738D01*
X158872887Y-70379425D01*
X158879005Y-70319543D01*
X158883500Y-70275552D01*
X158883500Y-69434500D01*
X158903502Y-69366379D01*
X158957158Y-69319886D01*
X159009500Y-69308500D01*
X161980110Y-69308500D01*
X161980111Y-69308500D01*
X162057491Y-69287766D01*
X162134873Y-69267032D01*
X162273627Y-69186922D01*
X162315145Y-69145403D01*
X162377454Y-69111380D01*
X162404239Y-69108500D01*
X163135150Y-69108500D01*
X163203271Y-69128502D01*
X163232546Y-69154563D01*
X163283432Y-69216568D01*
X163436996Y-69342595D01*
X163612196Y-69436241D01*
X163802299Y-69493908D01*
X163802303Y-69493908D01*
X163802305Y-69493909D01*
X163999997Y-69513380D01*
X164000000Y-69513380D01*
X164000003Y-69513380D01*
X164197694Y-69493909D01*
X164197695Y-69493908D01*
X164197701Y-69493908D01*
X164387804Y-69436241D01*
X164563004Y-69342595D01*
X164716568Y-69216568D01*
X164842595Y-69063004D01*
X164936241Y-68887804D01*
X164993908Y-68697701D01*
X164997142Y-68664873D01*
X165013380Y-68500003D01*
X165013380Y-68499996D01*
X164993909Y-68302305D01*
X164993908Y-68302303D01*
X164993908Y-68302299D01*
X164936241Y-68112196D01*
X164842595Y-67936996D01*
X164716568Y-67783432D01*
X164563004Y-67657405D01*
X164387804Y-67563759D01*
X164212235Y-67510500D01*
X164152855Y-67471587D01*
X164123939Y-67406745D01*
X164134670Y-67336564D01*
X164159717Y-67300831D01*
X164164312Y-67296236D01*
X164399422Y-67061127D01*
X164479532Y-66922372D01*
X164485527Y-66900000D01*
X164511426Y-66803345D01*
X164515472Y-66788241D01*
X164521000Y-66767611D01*
X164521000Y-64463192D01*
X164541002Y-64395071D01*
X164580852Y-64355952D01*
X164628346Y-64326658D01*
X164751658Y-64203346D01*
X164843209Y-64054920D01*
X164898062Y-63889381D01*
X164908500Y-63787213D01*
X164908499Y-63416739D01*
X164928501Y-63348620D01*
X164945404Y-63327644D01*
X165057906Y-63215143D01*
X165186921Y-63086128D01*
X165267032Y-62947373D01*
X165294821Y-62843662D01*
X165308500Y-62792611D01*
X165308500Y-59207389D01*
X165282003Y-59108499D01*
X165282003Y-59108498D01*
X165282003Y-59108497D01*
X165267033Y-59052629D01*
X165186923Y-58913875D01*
X165186915Y-58913865D01*
X164945404Y-58672354D01*
X164911378Y-58610042D01*
X164908499Y-58583259D01*
X164908499Y-58212787D01*
X164898062Y-58110619D01*
X164871206Y-58029572D01*
X164843209Y-57945080D01*
X164751658Y-57796654D01*
X164751657Y-57796653D01*
X164751652Y-57796647D01*
X164628352Y-57673347D01*
X164628346Y-57673342D01*
X164531133Y-57613380D01*
X164479920Y-57581791D01*
X164314381Y-57526938D01*
X164314379Y-57526937D01*
X164314377Y-57526937D01*
X164212221Y-57516500D01*
X163612787Y-57516500D01*
X163510619Y-57526937D01*
X163345079Y-57581791D01*
X163196653Y-57673342D01*
X163196647Y-57673347D01*
X163089095Y-57780900D01*
X163026783Y-57814926D01*
X162955968Y-57809861D01*
X162910905Y-57780900D01*
X162803352Y-57673347D01*
X162803346Y-57673342D01*
X162706133Y-57613380D01*
X162654920Y-57581791D01*
X162489381Y-57526938D01*
X162489379Y-57526937D01*
X162489377Y-57526937D01*
X162387221Y-57516500D01*
X161787787Y-57516500D01*
X161685619Y-57526937D01*
X161520079Y-57581791D01*
X161371653Y-57673342D01*
X161371647Y-57673347D01*
X161248347Y-57796647D01*
X161248342Y-57796653D01*
X161156791Y-57945080D01*
X161101937Y-58110622D01*
X161091500Y-58212778D01*
X161091500Y-58787212D01*
X161101937Y-58889380D01*
X161156791Y-59054920D01*
X161248342Y-59203346D01*
X161248347Y-59203352D01*
X161371647Y-59326652D01*
X161371653Y-59326657D01*
X161371654Y-59326658D01*
X161409825Y-59350202D01*
X161457302Y-59402987D01*
X161468705Y-59473062D01*
X161440413Y-59538177D01*
X161432772Y-59546538D01*
X160930296Y-60049013D01*
X160867984Y-60083038D01*
X160797168Y-60077973D01*
X160740333Y-60035426D01*
X160737506Y-60031495D01*
X160734215Y-60026727D01*
X160605430Y-59912633D01*
X160605429Y-59912632D01*
X160605426Y-59912630D01*
X160453087Y-59832677D01*
X160453086Y-59832676D01*
X160453083Y-59832675D01*
X160453079Y-59832674D01*
X160453074Y-59832672D01*
X160404569Y-59820716D01*
X160343215Y-59784992D01*
X160310914Y-59721769D01*
X160309446Y-59684909D01*
X160310400Y-59676038D01*
X160310400Y-59323962D01*
X160305674Y-59280000D01*
X160303890Y-59263403D01*
X160303888Y-59263395D01*
X160252789Y-59126397D01*
X160252787Y-59126392D01*
X160165160Y-59009337D01*
X160164179Y-59008603D01*
X160163443Y-59007620D01*
X160158790Y-59002967D01*
X160159459Y-59002297D01*
X160121633Y-58951767D01*
X160116428Y-58907623D01*
X160113704Y-58907623D01*
X160113704Y-58899997D01*
X160092965Y-58729200D01*
X160071407Y-58672354D01*
X160031954Y-58568325D01*
X159934215Y-58426727D01*
X159805430Y-58312633D01*
X159805429Y-58312632D01*
X159805426Y-58312630D01*
X159653087Y-58232677D01*
X159653079Y-58232673D01*
X159486031Y-58191500D01*
X159486028Y-58191500D01*
X159335738Y-58191500D01*
X159267617Y-58171498D01*
X159221124Y-58117842D01*
X159211020Y-58047568D01*
X159240514Y-57982988D01*
X159246643Y-57976405D01*
X159754293Y-57468755D01*
X160123601Y-57099446D01*
X168041500Y-57099446D01*
X168041500Y-58400544D01*
X168052112Y-58504425D01*
X168107885Y-58672738D01*
X168200970Y-58823652D01*
X168200975Y-58823658D01*
X168326341Y-58949024D01*
X168326347Y-58949029D01*
X168326348Y-58949030D01*
X168471157Y-59038349D01*
X168518634Y-59091134D01*
X168530037Y-59161209D01*
X168501745Y-59226324D01*
X168494105Y-59234684D01*
X168363794Y-59364995D01*
X168238108Y-59537987D01*
X168141029Y-59728515D01*
X168141026Y-59728521D01*
X168074952Y-59931878D01*
X168074951Y-59931883D01*
X168074951Y-59931884D01*
X168041500Y-60143084D01*
X168041500Y-60356916D01*
X168072082Y-60550000D01*
X168074952Y-60568121D01*
X168132449Y-60745080D01*
X168141028Y-60771483D01*
X168238106Y-60962009D01*
X168363794Y-61135004D01*
X168363796Y-61135006D01*
X168363798Y-61135009D01*
X168514990Y-61286201D01*
X168514993Y-61286203D01*
X168514996Y-61286206D01*
X168592608Y-61342594D01*
X168668955Y-61398064D01*
X168712309Y-61454286D01*
X168718384Y-61525023D01*
X168685252Y-61587814D01*
X168668955Y-61601936D01*
X168514993Y-61713796D01*
X168514990Y-61713798D01*
X168363798Y-61864990D01*
X168363796Y-61864993D01*
X168238108Y-62037987D01*
X168141029Y-62228515D01*
X168141026Y-62228521D01*
X168074952Y-62431878D01*
X168074951Y-62431883D01*
X168074951Y-62431884D01*
X168041500Y-62643084D01*
X168041500Y-62856916D01*
X168074951Y-63068116D01*
X168074952Y-63068121D01*
X168137914Y-63261900D01*
X168141028Y-63271483D01*
X168238106Y-63462009D01*
X168363794Y-63635004D01*
X168363796Y-63635006D01*
X168363798Y-63635009D01*
X168514990Y-63786201D01*
X168514993Y-63786203D01*
X168514996Y-63786206D01*
X168603542Y-63850538D01*
X168668955Y-63898064D01*
X168712309Y-63954286D01*
X168718384Y-64025023D01*
X168685252Y-64087814D01*
X168668955Y-64101936D01*
X168514993Y-64213796D01*
X168514990Y-64213798D01*
X168363798Y-64364990D01*
X168363796Y-64364993D01*
X168238108Y-64537987D01*
X168141029Y-64728515D01*
X168141026Y-64728521D01*
X168074952Y-64931878D01*
X168074951Y-64931883D01*
X168074951Y-64931884D01*
X168041500Y-65143084D01*
X168041500Y-65356916D01*
X168072808Y-65554586D01*
X168074952Y-65568121D01*
X168141026Y-65771478D01*
X168141028Y-65771483D01*
X168238106Y-65962009D01*
X168363794Y-66135004D01*
X168363796Y-66135006D01*
X168363798Y-66135009D01*
X168514990Y-66286201D01*
X168514993Y-66286203D01*
X168514996Y-66286206D01*
X168687991Y-66411894D01*
X168878517Y-66508972D01*
X169081878Y-66575047D01*
X169081879Y-66575047D01*
X169081884Y-66575049D01*
X169293084Y-66608500D01*
X169293087Y-66608500D01*
X169756913Y-66608500D01*
X169756916Y-66608500D01*
X169968116Y-66575049D01*
X170171483Y-66508972D01*
X170362009Y-66411894D01*
X170535004Y-66286206D01*
X170686206Y-66135004D01*
X170811894Y-65962009D01*
X170908972Y-65771483D01*
X170975049Y-65568116D01*
X171008500Y-65356916D01*
X171008500Y-65143084D01*
X170975049Y-64931884D01*
X170908972Y-64728517D01*
X170811894Y-64537991D01*
X170686206Y-64364996D01*
X170686203Y-64364993D01*
X170686201Y-64364990D01*
X170535009Y-64213798D01*
X170535006Y-64213796D01*
X170535004Y-64213794D01*
X170381043Y-64101935D01*
X170337690Y-64045714D01*
X170331615Y-63974978D01*
X170364746Y-63912186D01*
X170381044Y-63898064D01*
X170535004Y-63786206D01*
X170686206Y-63635004D01*
X170811894Y-63462009D01*
X170908972Y-63271483D01*
X170975049Y-63068116D01*
X171008500Y-62856916D01*
X171008500Y-62643084D01*
X170975049Y-62431884D01*
X170908972Y-62228517D01*
X170811894Y-62037991D01*
X170686206Y-61864996D01*
X170686203Y-61864993D01*
X170686201Y-61864990D01*
X170535009Y-61713798D01*
X170535006Y-61713796D01*
X170535004Y-61713794D01*
X170381043Y-61601935D01*
X170337690Y-61545714D01*
X170331615Y-61474978D01*
X170364746Y-61412186D01*
X170381044Y-61398064D01*
X170535004Y-61286206D01*
X170686206Y-61135004D01*
X170811894Y-60962009D01*
X170908972Y-60771483D01*
X170975049Y-60568116D01*
X171008500Y-60356916D01*
X171008500Y-60143084D01*
X170975049Y-59931884D01*
X170908972Y-59728517D01*
X170811894Y-59537991D01*
X170686206Y-59364996D01*
X170686203Y-59364993D01*
X170686201Y-59364990D01*
X170555895Y-59234684D01*
X170521869Y-59172372D01*
X170526934Y-59101557D01*
X170569481Y-59044721D01*
X170578831Y-59038356D01*
X170723652Y-58949030D01*
X170849030Y-58823652D01*
X170942115Y-58672738D01*
X170997887Y-58504426D01*
X171008500Y-58400545D01*
X171008499Y-57099456D01*
X170997887Y-56995574D01*
X170942115Y-56827262D01*
X170849030Y-56676348D01*
X170849029Y-56676347D01*
X170849024Y-56676341D01*
X170723658Y-56550975D01*
X170723652Y-56550970D01*
X170706966Y-56540678D01*
X170572738Y-56457885D01*
X170488582Y-56429999D01*
X170404427Y-56402113D01*
X170404420Y-56402112D01*
X170300553Y-56391500D01*
X168749455Y-56391500D01*
X168645574Y-56402112D01*
X168477261Y-56457885D01*
X168326347Y-56550970D01*
X168326341Y-56550975D01*
X168200975Y-56676341D01*
X168200970Y-56676347D01*
X168107885Y-56827262D01*
X168052113Y-56995572D01*
X168052112Y-56995579D01*
X168041500Y-57099446D01*
X160123601Y-57099446D01*
X160285953Y-56937094D01*
X160348263Y-56903071D01*
X160387851Y-56900844D01*
X160462787Y-56908500D01*
X161037212Y-56908499D01*
X161139381Y-56898062D01*
X161304920Y-56843209D01*
X161453346Y-56751658D01*
X161576658Y-56628346D01*
X161668209Y-56479920D01*
X161723062Y-56314381D01*
X161733500Y-56212213D01*
X161733499Y-56003870D01*
X161753501Y-55935750D01*
X161770399Y-55914780D01*
X161841665Y-55843514D01*
X161903975Y-55809490D01*
X161944861Y-55807403D01*
X162000000Y-55813616D01*
X162181047Y-55793217D01*
X162353015Y-55733043D01*
X162507281Y-55636111D01*
X162636111Y-55507281D01*
X162733043Y-55353015D01*
X162793217Y-55181047D01*
X162813616Y-55000000D01*
X162793217Y-54818953D01*
X162733043Y-54646985D01*
X162733041Y-54646982D01*
X162733041Y-54646981D01*
X162636112Y-54492720D01*
X162636111Y-54492718D01*
X162507281Y-54363888D01*
X162507279Y-54363887D01*
X162353018Y-54266958D01*
X162353015Y-54266957D01*
X162181050Y-54206784D01*
X162181049Y-54206783D01*
X162181047Y-54206783D01*
X162000000Y-54186384D01*
X161818953Y-54206783D01*
X161818950Y-54206783D01*
X161818949Y-54206784D01*
X161739945Y-54234429D01*
X161698330Y-54241500D01*
X161537788Y-54241500D01*
X161464524Y-54256073D01*
X161464524Y-54256074D01*
X161391253Y-54270649D01*
X161391251Y-54270649D01*
X161391250Y-54270650D01*
X161391249Y-54270650D01*
X161334076Y-54294331D01*
X161334076Y-54294332D01*
X161253216Y-54327826D01*
X161199245Y-54363887D01*
X161199244Y-54363889D01*
X161189702Y-54370264D01*
X161121951Y-54391480D01*
X161119700Y-54391500D01*
X159767000Y-54391500D01*
X159767000Y-54487184D01*
X159777430Y-54589273D01*
X159777431Y-54589276D01*
X159832248Y-54754707D01*
X159923737Y-54903033D01*
X159923742Y-54903039D01*
X159931254Y-54910551D01*
X159965280Y-54972863D01*
X159960215Y-55043678D01*
X159931254Y-55088741D01*
X159923347Y-55096647D01*
X159923342Y-55096653D01*
X159831791Y-55245080D01*
X159776937Y-55410622D01*
X159766500Y-55512778D01*
X159766500Y-55683260D01*
X159746498Y-55751381D01*
X159729599Y-55772350D01*
X159587175Y-55914775D01*
X159448594Y-56053356D01*
X159386282Y-56087381D01*
X159315466Y-56082316D01*
X159258631Y-56039769D01*
X159233820Y-55973249D01*
X159233499Y-55964276D01*
X159233499Y-55612788D01*
X159223062Y-55510619D01*
X159168209Y-55345080D01*
X159076658Y-55196654D01*
X159076657Y-55196653D01*
X159076652Y-55196647D01*
X158968746Y-55088741D01*
X158934720Y-55026429D01*
X158939785Y-54955614D01*
X158968746Y-54910551D01*
X159076257Y-54803039D01*
X159076262Y-54803033D01*
X159167751Y-54654707D01*
X159222568Y-54489276D01*
X159222569Y-54489273D01*
X159232999Y-54387184D01*
X159233000Y-54387184D01*
X159233000Y-54341500D01*
X157267000Y-54341500D01*
X157267000Y-54387184D01*
X157277430Y-54489273D01*
X157277431Y-54489276D01*
X157332248Y-54654707D01*
X157423737Y-54803033D01*
X157423742Y-54803039D01*
X157531254Y-54910551D01*
X157565280Y-54972863D01*
X157560215Y-55043678D01*
X157531254Y-55088741D01*
X157423347Y-55196647D01*
X157423342Y-55196653D01*
X157331791Y-55345080D01*
X157276937Y-55510622D01*
X157266500Y-55612778D01*
X157266500Y-56212212D01*
X157276937Y-56314380D01*
X157302492Y-56391500D01*
X157331791Y-56479920D01*
X157369267Y-56540678D01*
X157372740Y-56546307D01*
X157391500Y-56612455D01*
X157391500Y-56898323D01*
X157371498Y-56966444D01*
X157317842Y-57012937D01*
X157295655Y-57020661D01*
X157246925Y-57032672D01*
X157246912Y-57032677D01*
X157094573Y-57112630D01*
X157094568Y-57112634D01*
X157083552Y-57122394D01*
X157019298Y-57152593D01*
X156948918Y-57143261D01*
X156916448Y-57122394D01*
X156905431Y-57112634D01*
X156905426Y-57112630D01*
X156753087Y-57032677D01*
X156753085Y-57032676D01*
X156753083Y-57032675D01*
X156753081Y-57032674D01*
X156753080Y-57032674D01*
X156704345Y-57020662D01*
X156642990Y-56984938D01*
X156610689Y-56921715D01*
X156608499Y-56898323D01*
X156608499Y-56612457D01*
X156627259Y-56546309D01*
X156668209Y-56479920D01*
X156723062Y-56314381D01*
X156733500Y-56212213D01*
X156733499Y-55612788D01*
X156723062Y-55510619D01*
X156668209Y-55345080D01*
X156576658Y-55196654D01*
X156576657Y-55196653D01*
X156576652Y-55196647D01*
X156468746Y-55088741D01*
X156434720Y-55026429D01*
X156439785Y-54955614D01*
X156468746Y-54910551D01*
X156576257Y-54803039D01*
X156576262Y-54803033D01*
X156667751Y-54654707D01*
X156722568Y-54489276D01*
X156722569Y-54489273D01*
X156732999Y-54387184D01*
X156733000Y-54387184D01*
X156733000Y-54341500D01*
X154767000Y-54341500D01*
X154767000Y-54387184D01*
X154777430Y-54489273D01*
X154777431Y-54489276D01*
X154832248Y-54654707D01*
X154923737Y-54803033D01*
X154923742Y-54803039D01*
X155031254Y-54910551D01*
X155065280Y-54972863D01*
X155060215Y-55043678D01*
X155031254Y-55088741D01*
X154923347Y-55196647D01*
X154923342Y-55196653D01*
X154831791Y-55345080D01*
X154776937Y-55510622D01*
X154766500Y-55612778D01*
X154766500Y-56212212D01*
X154776937Y-56314380D01*
X154831791Y-56479920D01*
X154923342Y-56628346D01*
X154923347Y-56628352D01*
X155046647Y-56751652D01*
X155046653Y-56751657D01*
X155046654Y-56751658D01*
X155195080Y-56843209D01*
X155305132Y-56879675D01*
X155363503Y-56920089D01*
X155390759Y-56985645D01*
X155391499Y-56999280D01*
X155391499Y-57379660D01*
X155371497Y-57447781D01*
X155317841Y-57494274D01*
X155247567Y-57504378D01*
X155182987Y-57474884D01*
X155176404Y-57468755D01*
X154227982Y-56520333D01*
X154193956Y-56458021D01*
X154197471Y-56391607D01*
X154223062Y-56314381D01*
X154233500Y-56212213D01*
X154233499Y-55512788D01*
X154233277Y-55510619D01*
X154223062Y-55410619D01*
X154201345Y-55345080D01*
X154168209Y-55245080D01*
X154076658Y-55096654D01*
X154068746Y-55088742D01*
X154034721Y-55026434D01*
X154039783Y-54955618D01*
X154068748Y-54910547D01*
X154076262Y-54903033D01*
X154167751Y-54754707D01*
X154222568Y-54589276D01*
X154222569Y-54589273D01*
X154232999Y-54487184D01*
X154233000Y-54487184D01*
X154233000Y-54391500D01*
X152880300Y-54391500D01*
X152812179Y-54371498D01*
X152810342Y-54370293D01*
X152746784Y-54327826D01*
X152608747Y-54270649D01*
X152535476Y-54256074D01*
X152535475Y-54256073D01*
X152462211Y-54241500D01*
X152462206Y-54241500D01*
X152301670Y-54241500D01*
X152260055Y-54234429D01*
X152181050Y-54206784D01*
X152181049Y-54206783D01*
X152181047Y-54206783D01*
X152000000Y-54186384D01*
X151818953Y-54206783D01*
X151818950Y-54206783D01*
X151818949Y-54206784D01*
X151646984Y-54266957D01*
X151646981Y-54266958D01*
X151492720Y-54363887D01*
X151492718Y-54363888D01*
X151363888Y-54492718D01*
X151363887Y-54492720D01*
X151266958Y-54646981D01*
X151266957Y-54646984D01*
X151207618Y-54816568D01*
X151206783Y-54818953D01*
X151195792Y-54916500D01*
X151186384Y-55000000D01*
X151199216Y-55113893D01*
X151186966Y-55183825D01*
X151138853Y-55236033D01*
X151074008Y-55254000D01*
X150057389Y-55254000D01*
X149974455Y-55276222D01*
X149902630Y-55295467D01*
X149902623Y-55295470D01*
X149763876Y-55375575D01*
X149763866Y-55375583D01*
X148522025Y-56617424D01*
X148459713Y-56651450D01*
X148388897Y-56646385D01*
X148332062Y-56603838D01*
X148307537Y-56540678D01*
X148293909Y-56402306D01*
X148293908Y-56402304D01*
X148293908Y-56402299D01*
X148236241Y-56212196D01*
X148142595Y-56036996D01*
X148016568Y-55883432D01*
X147863004Y-55757405D01*
X147687804Y-55663759D01*
X147497701Y-55606092D01*
X147497700Y-55606091D01*
X147497694Y-55606090D01*
X147300003Y-55586620D01*
X147299997Y-55586620D01*
X147102305Y-55606090D01*
X146912195Y-55663759D01*
X146736995Y-55757405D01*
X146583434Y-55883429D01*
X146583432Y-55883432D01*
X146532547Y-55945435D01*
X146473872Y-55985402D01*
X146435150Y-55991500D01*
X145201905Y-55991500D01*
X145133784Y-55971498D01*
X145096422Y-55934415D01*
X145075724Y-55902734D01*
X145075720Y-55902729D01*
X144923237Y-55737091D01*
X144829020Y-55663759D01*
X144745576Y-55598811D01*
X144712319Y-55580813D01*
X144661929Y-55530802D01*
X144646576Y-55461485D01*
X144671136Y-55394872D01*
X144712320Y-55359186D01*
X144745576Y-55341189D01*
X144923240Y-55202906D01*
X145075722Y-55037268D01*
X145198860Y-54848791D01*
X145233909Y-54768885D01*
X145279589Y-54714538D01*
X145347401Y-54693514D01*
X145349296Y-54693500D01*
X146422839Y-54693500D01*
X146490960Y-54713502D01*
X146520236Y-54739564D01*
X146583432Y-54816568D01*
X146736996Y-54942595D01*
X146912196Y-55036241D01*
X147102299Y-55093908D01*
X147102303Y-55093908D01*
X147102305Y-55093909D01*
X147299997Y-55113380D01*
X147300000Y-55113380D01*
X147300003Y-55113380D01*
X147497694Y-55093909D01*
X147497695Y-55093908D01*
X147497701Y-55093908D01*
X147687804Y-55036241D01*
X147863004Y-54942595D01*
X148016568Y-54816568D01*
X148142595Y-54663004D01*
X148236241Y-54487804D01*
X148293908Y-54297701D01*
X148296573Y-54270650D01*
X148313380Y-54100003D01*
X148313380Y-54099996D01*
X148293909Y-53902305D01*
X148293908Y-53902303D01*
X148293908Y-53902299D01*
X148259180Y-53787815D01*
X152267000Y-53787815D01*
X152267000Y-53883500D01*
X152996000Y-53883500D01*
X153504000Y-53883500D01*
X154233000Y-53883500D01*
X154233000Y-53787815D01*
X154767000Y-53787815D01*
X154767000Y-53833500D01*
X155496000Y-53833500D01*
X155496000Y-53092000D01*
X155462815Y-53092000D01*
X155360726Y-53102430D01*
X155360723Y-53102431D01*
X155195292Y-53157248D01*
X155046966Y-53248737D01*
X155046960Y-53248742D01*
X154923742Y-53371960D01*
X154923737Y-53371966D01*
X154832248Y-53520292D01*
X154777431Y-53685723D01*
X154777430Y-53685726D01*
X154767000Y-53787815D01*
X154233000Y-53787815D01*
X154222569Y-53685726D01*
X154222568Y-53685723D01*
X154167751Y-53520292D01*
X154076262Y-53371966D01*
X154076257Y-53371960D01*
X153953039Y-53248742D01*
X153953033Y-53248737D01*
X153804707Y-53157248D01*
X153639276Y-53102431D01*
X153639273Y-53102430D01*
X153537184Y-53092000D01*
X153504000Y-53092000D01*
X153504000Y-53883500D01*
X152996000Y-53883500D01*
X152996000Y-53092000D01*
X152962815Y-53092000D01*
X152860726Y-53102430D01*
X152860723Y-53102431D01*
X152695292Y-53157248D01*
X152546966Y-53248737D01*
X152546960Y-53248742D01*
X152423742Y-53371960D01*
X152423737Y-53371966D01*
X152332248Y-53520292D01*
X152277431Y-53685723D01*
X152277430Y-53685726D01*
X152267000Y-53787815D01*
X148259180Y-53787815D01*
X148236241Y-53712196D01*
X148142595Y-53536996D01*
X148016568Y-53383432D01*
X147863004Y-53257405D01*
X147687804Y-53163759D01*
X147497701Y-53106092D01*
X147497700Y-53106091D01*
X147497694Y-53106090D01*
X147300003Y-53086620D01*
X147299997Y-53086620D01*
X147102305Y-53106090D01*
X146912195Y-53163759D01*
X146736995Y-53257405D01*
X146583434Y-53383429D01*
X146583434Y-53383430D01*
X146583432Y-53383432D01*
X146544857Y-53430434D01*
X146486182Y-53470403D01*
X146447460Y-53476500D01*
X145218238Y-53476500D01*
X145150117Y-53456498D01*
X145112755Y-53419415D01*
X145075724Y-53362734D01*
X145075720Y-53362729D01*
X144923237Y-53197091D01*
X144801617Y-53102430D01*
X144745576Y-53058811D01*
X144712319Y-53040813D01*
X144661929Y-52990802D01*
X144646576Y-52921485D01*
X144671136Y-52854872D01*
X144712320Y-52819186D01*
X144745576Y-52801189D01*
X144923240Y-52662906D01*
X145075722Y-52497268D01*
X145198860Y-52308791D01*
X145233909Y-52228885D01*
X145279589Y-52174538D01*
X145347401Y-52153514D01*
X145349296Y-52153500D01*
X146390012Y-52153500D01*
X146458133Y-52173502D01*
X146487409Y-52199565D01*
X146583432Y-52316568D01*
X146736996Y-52442595D01*
X146912196Y-52536241D01*
X147102299Y-52593908D01*
X147102303Y-52593908D01*
X147102305Y-52593909D01*
X147299997Y-52613380D01*
X147300000Y-52613380D01*
X147300003Y-52613380D01*
X147497694Y-52593909D01*
X147497695Y-52593908D01*
X147497701Y-52593908D01*
X147687804Y-52536241D01*
X147863004Y-52442595D01*
X148016568Y-52316568D01*
X148142595Y-52163004D01*
X148236241Y-51987804D01*
X148293908Y-51797701D01*
X148313380Y-51600000D01*
X148313380Y-51599996D01*
X151486620Y-51599996D01*
X151486620Y-51600003D01*
X151506090Y-51797694D01*
X151506091Y-51797700D01*
X151506092Y-51797701D01*
X151563759Y-51987804D01*
X151657405Y-52163004D01*
X151783432Y-52316568D01*
X151936996Y-52442595D01*
X152112196Y-52536241D01*
X152302299Y-52593908D01*
X152302303Y-52593908D01*
X152302305Y-52593909D01*
X152499997Y-52613380D01*
X152500000Y-52613380D01*
X152500003Y-52613380D01*
X152697694Y-52593909D01*
X152697695Y-52593908D01*
X152697701Y-52593908D01*
X152887804Y-52536241D01*
X153063004Y-52442595D01*
X153216568Y-52316568D01*
X153267452Y-52254564D01*
X153326128Y-52214598D01*
X153364850Y-52208500D01*
X154680110Y-52208500D01*
X154680111Y-52208500D01*
X154757491Y-52187766D01*
X154834873Y-52167032D01*
X154973627Y-52086922D01*
X156026405Y-51034144D01*
X156088717Y-51000119D01*
X156159532Y-51005183D01*
X156216368Y-51047730D01*
X156241179Y-51114250D01*
X156241500Y-51123239D01*
X156241500Y-52098329D01*
X156234430Y-52139940D01*
X156206783Y-52218953D01*
X156186384Y-52400000D01*
X156206783Y-52581047D01*
X156206783Y-52581049D01*
X156206784Y-52581050D01*
X156266957Y-52753015D01*
X156266958Y-52753018D01*
X156363887Y-52907279D01*
X156363888Y-52907281D01*
X156391141Y-52934534D01*
X156425167Y-52996846D01*
X156420102Y-53067661D01*
X156377555Y-53124497D01*
X156311035Y-53149308D01*
X156262413Y-53143234D01*
X156139276Y-53102431D01*
X156139273Y-53102430D01*
X156037184Y-53092000D01*
X156004000Y-53092000D01*
X156004000Y-53833500D01*
X156733000Y-53833500D01*
X156733000Y-53787815D01*
X156722569Y-53685726D01*
X156722568Y-53685723D01*
X156667751Y-53520292D01*
X156576262Y-53371966D01*
X156576257Y-53371960D01*
X156561021Y-53356724D01*
X156526995Y-53294412D01*
X156532060Y-53223597D01*
X156574607Y-53166761D01*
X156641127Y-53141950D01*
X156691729Y-53148699D01*
X156818953Y-53193217D01*
X157000000Y-53213616D01*
X157181047Y-53193217D01*
X157308270Y-53148699D01*
X157379172Y-53145080D01*
X157440777Y-53180369D01*
X157473524Y-53243363D01*
X157467016Y-53314060D01*
X157438981Y-53356722D01*
X157423737Y-53371966D01*
X157332248Y-53520292D01*
X157277431Y-53685723D01*
X157277430Y-53685726D01*
X157267000Y-53787815D01*
X157267000Y-53833500D01*
X157996000Y-53833500D01*
X158504000Y-53833500D01*
X159233000Y-53833500D01*
X159233000Y-53787815D01*
X159767000Y-53787815D01*
X159767000Y-53883500D01*
X160496000Y-53883500D01*
X161004000Y-53883500D01*
X161733000Y-53883500D01*
X161733000Y-53787815D01*
X161722569Y-53685726D01*
X161722568Y-53685723D01*
X161667751Y-53520292D01*
X161576262Y-53371966D01*
X161576257Y-53371960D01*
X161453039Y-53248742D01*
X161453033Y-53248737D01*
X161304707Y-53157248D01*
X161139276Y-53102431D01*
X161139273Y-53102430D01*
X161037184Y-53092000D01*
X161004000Y-53092000D01*
X161004000Y-53883500D01*
X160496000Y-53883500D01*
X160496000Y-53092000D01*
X160462815Y-53092000D01*
X160360726Y-53102430D01*
X160360723Y-53102431D01*
X160195292Y-53157248D01*
X160046966Y-53248737D01*
X160046960Y-53248742D01*
X159923742Y-53371960D01*
X159923737Y-53371966D01*
X159832248Y-53520292D01*
X159777431Y-53685723D01*
X159777430Y-53685726D01*
X159767000Y-53787815D01*
X159233000Y-53787815D01*
X159222569Y-53685726D01*
X159222568Y-53685723D01*
X159167751Y-53520292D01*
X159076262Y-53371966D01*
X159076257Y-53371960D01*
X158953039Y-53248742D01*
X158953033Y-53248737D01*
X158804707Y-53157248D01*
X158639276Y-53102431D01*
X158639273Y-53102430D01*
X158537184Y-53092000D01*
X158504000Y-53092000D01*
X158504000Y-53833500D01*
X157996000Y-53833500D01*
X157996000Y-53092000D01*
X157962815Y-53092000D01*
X157860726Y-53102430D01*
X157860720Y-53102431D01*
X157737585Y-53143234D01*
X157666631Y-53145674D01*
X157605621Y-53109365D01*
X157573925Y-53045836D01*
X157581608Y-52975257D01*
X157608858Y-52934534D01*
X157636111Y-52907281D01*
X157733043Y-52753015D01*
X157793217Y-52581047D01*
X157813616Y-52400000D01*
X157793217Y-52218953D01*
X157765569Y-52139940D01*
X157758500Y-52098329D01*
X157758500Y-51184499D01*
X157778502Y-51116378D01*
X157832158Y-51069885D01*
X157884500Y-51058499D01*
X158100544Y-51058499D01*
X158204426Y-51047887D01*
X158372738Y-50992115D01*
X158523652Y-50899030D01*
X158649030Y-50773652D01*
X158742115Y-50622738D01*
X158797887Y-50454426D01*
X158808500Y-50350545D01*
X158808500Y-50151350D01*
X165496500Y-50151350D01*
X165496500Y-52848649D01*
X165503009Y-52909196D01*
X165503011Y-52909204D01*
X165554110Y-53046202D01*
X165554112Y-53046207D01*
X165641738Y-53163261D01*
X165758792Y-53250887D01*
X165758794Y-53250888D01*
X165758796Y-53250889D01*
X165817875Y-53272924D01*
X165895795Y-53301988D01*
X165895803Y-53301990D01*
X165956350Y-53308499D01*
X165956355Y-53308499D01*
X165956362Y-53308500D01*
X165956368Y-53308500D01*
X168653632Y-53308500D01*
X168653638Y-53308500D01*
X168653645Y-53308499D01*
X168653649Y-53308499D01*
X168714196Y-53301990D01*
X168714199Y-53301989D01*
X168714201Y-53301989D01*
X168851204Y-53250889D01*
X168945408Y-53180369D01*
X168968261Y-53163261D01*
X169055887Y-53046207D01*
X169055887Y-53046206D01*
X169055889Y-53046204D01*
X169106989Y-52909201D01*
X169107082Y-52908342D01*
X169113499Y-52848649D01*
X169113500Y-52848632D01*
X169113500Y-50151367D01*
X169113499Y-50151350D01*
X169106990Y-50090803D01*
X169106988Y-50090795D01*
X169059286Y-49962904D01*
X169055889Y-49953796D01*
X169055888Y-49953794D01*
X169055887Y-49953792D01*
X168968261Y-49836738D01*
X168851207Y-49749112D01*
X168851202Y-49749110D01*
X168714204Y-49698011D01*
X168714196Y-49698009D01*
X168653649Y-49691500D01*
X168653638Y-49691500D01*
X165956362Y-49691500D01*
X165956350Y-49691500D01*
X165895803Y-49698009D01*
X165895795Y-49698011D01*
X165758797Y-49749110D01*
X165758792Y-49749112D01*
X165641738Y-49836738D01*
X165554112Y-49953792D01*
X165554110Y-49953797D01*
X165503011Y-50090795D01*
X165503009Y-50090803D01*
X165496500Y-50151350D01*
X158808500Y-50151350D01*
X158808499Y-47249456D01*
X158805139Y-47216569D01*
X158797887Y-47145574D01*
X158797886Y-47145572D01*
X158742115Y-46977262D01*
X158649030Y-46826348D01*
X158649029Y-46826347D01*
X158649024Y-46826341D01*
X158523658Y-46700975D01*
X158523652Y-46700970D01*
X158505215Y-46689598D01*
X158372738Y-46607885D01*
X158240357Y-46564019D01*
X158204427Y-46552113D01*
X158204420Y-46552112D01*
X158100553Y-46541500D01*
X156899455Y-46541500D01*
X156795574Y-46552112D01*
X156627261Y-46607885D01*
X156476347Y-46700970D01*
X156476341Y-46700975D01*
X156350975Y-46826341D01*
X156350970Y-46826347D01*
X156257885Y-46977262D01*
X156202113Y-47145572D01*
X156202112Y-47145579D01*
X156191500Y-47249446D01*
X156191500Y-49095760D01*
X156171498Y-49163881D01*
X156154595Y-49184855D01*
X154384856Y-50954595D01*
X154322544Y-50988620D01*
X154295761Y-50991500D01*
X153364850Y-50991500D01*
X153296729Y-50971498D01*
X153267453Y-50945436D01*
X153216568Y-50883432D01*
X153216566Y-50883430D01*
X153216565Y-50883429D01*
X153063004Y-50757405D01*
X152887804Y-50663759D01*
X152865832Y-50657094D01*
X152697701Y-50606092D01*
X152697700Y-50606091D01*
X152697694Y-50606090D01*
X152500003Y-50586620D01*
X152499997Y-50586620D01*
X152302305Y-50606090D01*
X152112195Y-50663759D01*
X151936995Y-50757405D01*
X151783432Y-50883432D01*
X151657405Y-51036995D01*
X151563759Y-51212195D01*
X151506090Y-51402305D01*
X151486620Y-51599996D01*
X148313380Y-51599996D01*
X148293908Y-51402299D01*
X148236241Y-51212196D01*
X148142595Y-51036996D01*
X148016568Y-50883432D01*
X147863004Y-50757405D01*
X147687804Y-50663759D01*
X147497701Y-50606092D01*
X147497700Y-50606091D01*
X147497694Y-50606090D01*
X147300003Y-50586620D01*
X147299997Y-50586620D01*
X147102305Y-50606090D01*
X146912195Y-50663759D01*
X146736995Y-50757405D01*
X146610968Y-50860833D01*
X146583432Y-50883432D01*
X146577686Y-50890433D01*
X146519011Y-50930402D01*
X146480287Y-50936500D01*
X145218238Y-50936500D01*
X145150117Y-50916498D01*
X145112755Y-50879415D01*
X145075724Y-50822734D01*
X145075720Y-50822729D01*
X144959570Y-50696559D01*
X144923240Y-50657094D01*
X144923239Y-50657093D01*
X144923237Y-50657091D01*
X144832696Y-50586620D01*
X144745576Y-50518811D01*
X144712319Y-50500813D01*
X144661929Y-50450802D01*
X144646576Y-50381485D01*
X144671136Y-50314872D01*
X144712320Y-50279186D01*
X144745576Y-50261189D01*
X144923240Y-50122906D01*
X145075722Y-49957268D01*
X145198860Y-49768791D01*
X145233909Y-49688885D01*
X145279589Y-49634538D01*
X145347401Y-49613514D01*
X145349296Y-49613500D01*
X146357184Y-49613500D01*
X146425305Y-49633502D01*
X146454583Y-49659566D01*
X146528071Y-49749111D01*
X146583432Y-49816568D01*
X146736996Y-49942595D01*
X146912196Y-50036241D01*
X147102299Y-50093908D01*
X147102303Y-50093908D01*
X147102305Y-50093909D01*
X147299997Y-50113380D01*
X147300000Y-50113380D01*
X147300003Y-50113380D01*
X147497694Y-50093909D01*
X147497695Y-50093908D01*
X147497701Y-50093908D01*
X147687804Y-50036241D01*
X147863004Y-49942595D01*
X148016568Y-49816568D01*
X148142595Y-49663004D01*
X148150296Y-49648597D01*
X151492000Y-49648597D01*
X151498505Y-49709093D01*
X151549555Y-49845964D01*
X151549555Y-49845965D01*
X151637095Y-49962904D01*
X151754034Y-50050444D01*
X151890906Y-50101494D01*
X151951402Y-50107999D01*
X151951415Y-50108000D01*
X152246000Y-50108000D01*
X152754000Y-50108000D01*
X153048585Y-50108000D01*
X153048597Y-50107999D01*
X153109093Y-50101494D01*
X153245964Y-50050444D01*
X153245965Y-50050444D01*
X153362904Y-49962904D01*
X153450444Y-49845965D01*
X153450444Y-49845964D01*
X153501494Y-49709093D01*
X153507999Y-49648597D01*
X153508000Y-49648585D01*
X153508000Y-49354000D01*
X152754000Y-49354000D01*
X152754000Y-50108000D01*
X152246000Y-50108000D01*
X152246000Y-49354000D01*
X151492000Y-49354000D01*
X151492000Y-49648597D01*
X148150296Y-49648597D01*
X148236241Y-49487804D01*
X148293908Y-49297701D01*
X148305023Y-49184855D01*
X148313380Y-49100003D01*
X148313380Y-49099996D01*
X148308483Y-49050272D01*
X152250000Y-49050272D01*
X152250000Y-49149728D01*
X152288060Y-49241614D01*
X152358386Y-49311940D01*
X152450272Y-49350000D01*
X152549728Y-49350000D01*
X152641614Y-49311940D01*
X152711940Y-49241614D01*
X152750000Y-49149728D01*
X152750000Y-49050272D01*
X152711940Y-48958386D01*
X152641614Y-48888060D01*
X152549728Y-48850000D01*
X152450272Y-48850000D01*
X152358386Y-48888060D01*
X152288060Y-48958386D01*
X152250000Y-49050272D01*
X148308483Y-49050272D01*
X148293909Y-48902305D01*
X148293908Y-48902303D01*
X148293908Y-48902299D01*
X148236241Y-48712196D01*
X148150295Y-48551402D01*
X151492000Y-48551402D01*
X151492000Y-48846000D01*
X152246000Y-48846000D01*
X152754000Y-48846000D01*
X153508000Y-48846000D01*
X153508000Y-48551414D01*
X153507999Y-48551402D01*
X153501494Y-48490906D01*
X153450444Y-48354035D01*
X153450444Y-48354034D01*
X153362904Y-48237095D01*
X153245965Y-48149555D01*
X153109093Y-48098505D01*
X153048597Y-48092000D01*
X152754000Y-48092000D01*
X152754000Y-48846000D01*
X152246000Y-48846000D01*
X152246000Y-48092000D01*
X151951402Y-48092000D01*
X151890906Y-48098505D01*
X151754035Y-48149555D01*
X151754034Y-48149555D01*
X151637095Y-48237095D01*
X151549555Y-48354034D01*
X151549555Y-48354035D01*
X151498505Y-48490906D01*
X151492000Y-48551402D01*
X148150295Y-48551402D01*
X148142595Y-48536996D01*
X148016568Y-48383432D01*
X147863004Y-48257405D01*
X147687804Y-48163759D01*
X147497701Y-48106092D01*
X147497700Y-48106091D01*
X147497694Y-48106090D01*
X147300003Y-48086620D01*
X147299997Y-48086620D01*
X147102305Y-48106090D01*
X146912195Y-48163759D01*
X146736995Y-48257405D01*
X146602359Y-48367899D01*
X146537012Y-48395653D01*
X146522425Y-48396500D01*
X145218238Y-48396500D01*
X145150117Y-48376498D01*
X145112755Y-48339415D01*
X145075724Y-48282734D01*
X145075720Y-48282729D01*
X144923237Y-48117091D01*
X144836896Y-48049889D01*
X144745576Y-47978811D01*
X144712319Y-47960813D01*
X144661929Y-47910802D01*
X144646576Y-47841485D01*
X144671136Y-47774872D01*
X144712320Y-47739186D01*
X144745576Y-47721189D01*
X144923240Y-47582906D01*
X145075722Y-47417268D01*
X145198860Y-47228791D01*
X145233909Y-47148885D01*
X145279589Y-47094538D01*
X145347401Y-47073514D01*
X145349296Y-47073500D01*
X146406426Y-47073500D01*
X146474547Y-47093502D01*
X146503822Y-47119564D01*
X146583432Y-47216568D01*
X146583434Y-47216569D01*
X146583434Y-47216570D01*
X146598328Y-47228793D01*
X146736996Y-47342595D01*
X146912196Y-47436241D01*
X147102299Y-47493908D01*
X147102303Y-47493908D01*
X147102305Y-47493909D01*
X147299997Y-47513380D01*
X147300000Y-47513380D01*
X147300003Y-47513380D01*
X147497694Y-47493909D01*
X147497695Y-47493908D01*
X147497701Y-47493908D01*
X147687804Y-47436241D01*
X147863004Y-47342595D01*
X148016568Y-47216568D01*
X148142595Y-47063004D01*
X148236241Y-46887804D01*
X148293908Y-46697701D01*
X148308248Y-46552113D01*
X148313380Y-46500003D01*
X148313380Y-46500000D01*
X165491930Y-46500000D01*
X165512180Y-46770227D01*
X165572480Y-47034413D01*
X165572481Y-47034416D01*
X165671480Y-47286664D01*
X165806968Y-47521335D01*
X165859092Y-47586696D01*
X165859093Y-47586696D01*
X166702301Y-46743488D01*
X166728978Y-46807890D01*
X166800112Y-46914351D01*
X166890649Y-47004888D01*
X166997110Y-47076022D01*
X167061510Y-47102698D01*
X166217455Y-47946752D01*
X166217455Y-47946753D01*
X166398469Y-48070167D01*
X166398470Y-48070168D01*
X166642602Y-48187735D01*
X166901547Y-48267611D01*
X166901555Y-48267612D01*
X167169513Y-48308000D01*
X167440487Y-48308000D01*
X167708444Y-48267612D01*
X167708452Y-48267611D01*
X167967397Y-48187735D01*
X168211529Y-48070168D01*
X168211530Y-48070167D01*
X168392544Y-47946753D01*
X167548489Y-47102698D01*
X167612890Y-47076022D01*
X167719351Y-47004888D01*
X167809888Y-46914351D01*
X167881022Y-46807890D01*
X167907698Y-46743489D01*
X168750906Y-47586697D01*
X168750907Y-47586696D01*
X168803025Y-47521343D01*
X168803031Y-47521335D01*
X168938519Y-47286664D01*
X169037518Y-47034416D01*
X169037519Y-47034413D01*
X169097819Y-46770227D01*
X169118069Y-46500000D01*
X169097819Y-46229772D01*
X169037519Y-45965586D01*
X169037518Y-45965583D01*
X168938519Y-45713335D01*
X168803031Y-45478664D01*
X168750906Y-45413302D01*
X168750905Y-45413302D01*
X167907697Y-46256509D01*
X167881022Y-46192110D01*
X167809888Y-46085649D01*
X167719351Y-45995112D01*
X167612890Y-45923978D01*
X167548488Y-45897301D01*
X168392543Y-45053246D01*
X168392543Y-45053244D01*
X168211537Y-44929836D01*
X168211529Y-44929831D01*
X167967397Y-44812264D01*
X167708452Y-44732388D01*
X167708444Y-44732387D01*
X167440487Y-44692000D01*
X167169513Y-44692000D01*
X166901555Y-44732387D01*
X166901547Y-44732388D01*
X166642602Y-44812264D01*
X166398470Y-44929831D01*
X166398462Y-44929836D01*
X166217455Y-45053244D01*
X166217455Y-45053246D01*
X167061510Y-45897301D01*
X166997110Y-45923978D01*
X166890649Y-45995112D01*
X166800112Y-46085649D01*
X166728978Y-46192110D01*
X166702301Y-46256510D01*
X165859093Y-45413302D01*
X165859091Y-45413302D01*
X165806968Y-45478664D01*
X165671480Y-45713335D01*
X165572481Y-45965583D01*
X165572480Y-45965586D01*
X165512180Y-46229772D01*
X165491930Y-46500000D01*
X148313380Y-46500000D01*
X148313380Y-46499996D01*
X148293909Y-46302305D01*
X148293908Y-46302303D01*
X148293908Y-46302299D01*
X148236241Y-46112196D01*
X148142595Y-45936996D01*
X148016568Y-45783432D01*
X147863004Y-45657405D01*
X147687804Y-45563759D01*
X147497701Y-45506092D01*
X147497700Y-45506091D01*
X147497694Y-45506090D01*
X147300003Y-45486620D01*
X147299997Y-45486620D01*
X147102305Y-45506090D01*
X146912195Y-45563759D01*
X146736995Y-45657405D01*
X146583429Y-45783434D01*
X146561272Y-45810433D01*
X146502595Y-45850402D01*
X146463873Y-45856500D01*
X145218238Y-45856500D01*
X145150117Y-45836498D01*
X145112755Y-45799415D01*
X145075724Y-45742734D01*
X145075720Y-45742729D01*
X144923237Y-45577091D01*
X144807000Y-45486620D01*
X144745576Y-45438811D01*
X144712319Y-45420813D01*
X144661929Y-45370802D01*
X144646576Y-45301485D01*
X144671136Y-45234872D01*
X144712320Y-45199186D01*
X144745576Y-45181189D01*
X144923240Y-45042906D01*
X145075722Y-44877268D01*
X145198860Y-44688791D01*
X145289296Y-44482616D01*
X145344564Y-44264368D01*
X145363156Y-44040000D01*
X145362964Y-44037679D01*
X145363156Y-44036745D01*
X145363156Y-44034789D01*
X145363559Y-44034789D01*
X145377271Y-43968139D01*
X145426903Y-43917373D01*
X145496102Y-43901500D01*
X145562898Y-43925558D01*
X145577622Y-43938171D01*
X146026373Y-44386922D01*
X146026374Y-44386923D01*
X146026376Y-44386924D01*
X146158152Y-44463005D01*
X146158151Y-44463005D01*
X146165121Y-44467029D01*
X146165126Y-44467031D01*
X146165128Y-44467032D01*
X146319889Y-44508500D01*
X146319890Y-44508500D01*
X146435150Y-44508500D01*
X146503271Y-44528502D01*
X146532546Y-44554563D01*
X146583432Y-44616568D01*
X146736996Y-44742595D01*
X146912196Y-44836241D01*
X147102299Y-44893908D01*
X147102303Y-44893908D01*
X147102305Y-44893909D01*
X147299997Y-44913380D01*
X147300000Y-44913380D01*
X147300003Y-44913380D01*
X147497694Y-44893909D01*
X147497695Y-44893908D01*
X147497701Y-44893908D01*
X147687804Y-44836241D01*
X147848185Y-44750516D01*
X156192000Y-44750516D01*
X156202605Y-44854318D01*
X156202606Y-44854321D01*
X156258342Y-45022525D01*
X156351365Y-45173339D01*
X156351370Y-45173345D01*
X156476654Y-45298629D01*
X156476660Y-45298634D01*
X156627474Y-45391657D01*
X156795678Y-45447393D01*
X156795681Y-45447394D01*
X156899483Y-45457999D01*
X156899483Y-45458000D01*
X157246000Y-45458000D01*
X157754000Y-45458000D01*
X158100517Y-45458000D01*
X158100516Y-45457999D01*
X158204318Y-45447394D01*
X158204321Y-45447393D01*
X158372525Y-45391657D01*
X158523339Y-45298634D01*
X158523345Y-45298629D01*
X158648629Y-45173345D01*
X158648634Y-45173339D01*
X158741657Y-45022525D01*
X158797393Y-44854321D01*
X158797394Y-44854318D01*
X158807999Y-44750516D01*
X158808000Y-44750516D01*
X158808000Y-43454000D01*
X157754000Y-43454000D01*
X157754000Y-45458000D01*
X157246000Y-45458000D01*
X157246000Y-43454000D01*
X156192000Y-43454000D01*
X156192000Y-44750516D01*
X147848185Y-44750516D01*
X147863004Y-44742595D01*
X148016568Y-44616568D01*
X148142595Y-44463004D01*
X148236241Y-44287804D01*
X148293908Y-44097701D01*
X148300105Y-44034789D01*
X148313380Y-43900003D01*
X148313380Y-43899996D01*
X148293909Y-43702305D01*
X148293908Y-43702303D01*
X148293908Y-43702299D01*
X148236241Y-43512196D01*
X148142595Y-43336996D01*
X148016568Y-43183432D01*
X147863004Y-43057405D01*
X147687804Y-42963759D01*
X147497701Y-42906092D01*
X147497700Y-42906091D01*
X147497694Y-42906090D01*
X147300003Y-42886620D01*
X147299997Y-42886620D01*
X147102305Y-42906090D01*
X146912195Y-42963759D01*
X146736995Y-43057405D01*
X146650041Y-43128767D01*
X146584693Y-43156521D01*
X146514715Y-43144539D01*
X146481012Y-43120463D01*
X145395405Y-42034856D01*
X145361379Y-41972544D01*
X145358500Y-41945761D01*
X145358500Y-40893713D01*
X148149500Y-40893713D01*
X148149500Y-41106287D01*
X148182754Y-41316243D01*
X148248443Y-41518412D01*
X148344949Y-41707816D01*
X148469896Y-41879792D01*
X148469898Y-41879794D01*
X148469900Y-41879797D01*
X148620202Y-42030099D01*
X148620205Y-42030101D01*
X148620208Y-42030104D01*
X148792184Y-42155051D01*
X148981588Y-42251557D01*
X149183757Y-42317246D01*
X149393713Y-42350500D01*
X149393716Y-42350500D01*
X149606284Y-42350500D01*
X149606287Y-42350500D01*
X149816243Y-42317246D01*
X150018412Y-42251557D01*
X150207816Y-42155051D01*
X150379792Y-42030104D01*
X150530104Y-41879792D01*
X150655051Y-41707816D01*
X150751557Y-41518412D01*
X150817246Y-41316243D01*
X150850500Y-41106287D01*
X150850500Y-41000000D01*
X152744751Y-41000000D01*
X152763687Y-41168059D01*
X152763688Y-41168061D01*
X152819543Y-41327689D01*
X152819544Y-41327690D01*
X152909523Y-41470890D01*
X152909526Y-41470893D01*
X152909526Y-41470894D01*
X153029105Y-41590473D01*
X153029107Y-41590474D01*
X153029110Y-41590477D01*
X153172310Y-41680456D01*
X153331941Y-41736313D01*
X153500000Y-41755249D01*
X153668059Y-41736313D01*
X153827690Y-41680456D01*
X153876983Y-41649483D01*
X156192000Y-41649483D01*
X156192000Y-42946000D01*
X157246000Y-42946000D01*
X157754000Y-42946000D01*
X158808000Y-42946000D01*
X158808000Y-41649483D01*
X158797394Y-41545681D01*
X158797393Y-41545678D01*
X158741657Y-41377474D01*
X158648634Y-41226660D01*
X158648629Y-41226654D01*
X158523345Y-41101370D01*
X158523339Y-41101365D01*
X158372525Y-41008342D01*
X158204321Y-40952606D01*
X158204318Y-40952605D01*
X158100516Y-40942000D01*
X157754000Y-40942000D01*
X157754000Y-42946000D01*
X157246000Y-42946000D01*
X157246000Y-40942000D01*
X156899483Y-40942000D01*
X156795681Y-40952605D01*
X156795678Y-40952606D01*
X156627474Y-41008342D01*
X156476660Y-41101365D01*
X156476654Y-41101370D01*
X156351370Y-41226654D01*
X156351365Y-41226660D01*
X156258342Y-41377474D01*
X156202606Y-41545678D01*
X156202605Y-41545681D01*
X156192000Y-41649483D01*
X153876983Y-41649483D01*
X153970890Y-41590477D01*
X154090477Y-41470890D01*
X154180456Y-41327690D01*
X154236313Y-41168059D01*
X154255249Y-41000000D01*
X154243273Y-40893713D01*
X167649500Y-40893713D01*
X167649500Y-41106287D01*
X167682754Y-41316243D01*
X167748443Y-41518412D01*
X167844949Y-41707816D01*
X167969896Y-41879792D01*
X167969898Y-41879794D01*
X167969900Y-41879797D01*
X168120202Y-42030099D01*
X168120205Y-42030101D01*
X168120208Y-42030104D01*
X168292184Y-42155051D01*
X168481588Y-42251557D01*
X168683757Y-42317246D01*
X168893713Y-42350500D01*
X168893716Y-42350500D01*
X169106284Y-42350500D01*
X169106287Y-42350500D01*
X169316243Y-42317246D01*
X169518412Y-42251557D01*
X169707816Y-42155051D01*
X169879792Y-42030104D01*
X170030104Y-41879792D01*
X170155051Y-41707816D01*
X170251557Y-41518412D01*
X170317246Y-41316243D01*
X170350500Y-41106287D01*
X170350500Y-40893713D01*
X170317246Y-40683757D01*
X170251557Y-40481588D01*
X170155051Y-40292184D01*
X170030104Y-40120208D01*
X170030101Y-40120205D01*
X170030099Y-40120202D01*
X169879797Y-39969900D01*
X169879794Y-39969898D01*
X169879792Y-39969896D01*
X169707816Y-39844949D01*
X169518412Y-39748443D01*
X169316243Y-39682754D01*
X169106287Y-39649500D01*
X168893713Y-39649500D01*
X168683757Y-39682754D01*
X168683754Y-39682754D01*
X168683753Y-39682755D01*
X168481588Y-39748443D01*
X168481586Y-39748444D01*
X168292180Y-39844951D01*
X168120205Y-39969898D01*
X168120202Y-39969900D01*
X167969900Y-40120202D01*
X167969898Y-40120205D01*
X167844951Y-40292180D01*
X167844949Y-40292184D01*
X167748443Y-40481588D01*
X167682754Y-40683757D01*
X167649500Y-40893713D01*
X154243273Y-40893713D01*
X154236313Y-40831941D01*
X154180456Y-40672310D01*
X154090477Y-40529110D01*
X154090473Y-40529106D01*
X154090473Y-40529105D01*
X153970894Y-40409526D01*
X153970891Y-40409524D01*
X153970890Y-40409523D01*
X153889700Y-40358507D01*
X153827689Y-40319543D01*
X153718485Y-40281331D01*
X153668059Y-40263687D01*
X153500000Y-40244751D01*
X153331941Y-40263687D01*
X153331938Y-40263687D01*
X153331938Y-40263688D01*
X153172310Y-40319543D01*
X153075981Y-40380071D01*
X153029110Y-40409523D01*
X153029108Y-40409524D01*
X153029106Y-40409526D01*
X153029105Y-40409526D01*
X152909526Y-40529105D01*
X152909526Y-40529106D01*
X152909524Y-40529108D01*
X152909523Y-40529110D01*
X152902176Y-40540803D01*
X152819543Y-40672310D01*
X152763688Y-40831938D01*
X152763687Y-40831941D01*
X152744751Y-41000000D01*
X150850500Y-41000000D01*
X150850500Y-40893713D01*
X150817246Y-40683757D01*
X150751557Y-40481588D01*
X150655051Y-40292184D01*
X150530104Y-40120208D01*
X150530101Y-40120205D01*
X150530099Y-40120202D01*
X150379797Y-39969900D01*
X150379794Y-39969898D01*
X150379792Y-39969896D01*
X150207816Y-39844949D01*
X150018412Y-39748443D01*
X149816243Y-39682754D01*
X149606287Y-39649500D01*
X149393713Y-39649500D01*
X149183757Y-39682754D01*
X149183754Y-39682754D01*
X149183753Y-39682755D01*
X148981588Y-39748443D01*
X148981586Y-39748444D01*
X148792180Y-39844951D01*
X148620205Y-39969898D01*
X148620202Y-39969900D01*
X148469900Y-40120202D01*
X148469898Y-40120205D01*
X148344951Y-40292180D01*
X148344949Y-40292184D01*
X148248443Y-40481588D01*
X148182754Y-40683757D01*
X148149500Y-40893713D01*
X145358500Y-40893713D01*
X145358500Y-40601367D01*
X145358499Y-40601350D01*
X145351990Y-40540803D01*
X145351988Y-40540795D01*
X145300889Y-40403797D01*
X145300887Y-40403792D01*
X145213261Y-40286738D01*
X145096207Y-40199112D01*
X145096202Y-40199110D01*
X144959204Y-40148011D01*
X144959196Y-40148009D01*
X144898649Y-40141500D01*
X144898638Y-40141500D01*
X143101362Y-40141500D01*
X143101350Y-40141500D01*
X143040803Y-40148009D01*
X143040795Y-40148011D01*
X142903797Y-40199110D01*
X142903792Y-40199112D01*
X142786738Y-40286738D01*
X142699112Y-40403792D01*
X142699110Y-40403797D01*
X142648011Y-40540795D01*
X142648009Y-40540803D01*
X142641500Y-40601350D01*
X142641500Y-42398649D01*
X142648009Y-42459196D01*
X142648011Y-42459204D01*
X142699110Y-42596202D01*
X142699112Y-42596207D01*
X142786738Y-42713261D01*
X142903791Y-42800886D01*
X142903792Y-42800886D01*
X142903796Y-42800889D01*
X143018810Y-42843787D01*
X143075642Y-42886332D01*
X143100453Y-42952852D01*
X143085362Y-43022226D01*
X143067475Y-43047179D01*
X142924280Y-43202729D01*
X142924275Y-43202734D01*
X142801141Y-43391206D01*
X142710703Y-43597386D01*
X142710702Y-43597387D01*
X142655437Y-43815624D01*
X142655436Y-43815630D01*
X142655436Y-43815632D01*
X142642799Y-43968139D01*
X142636844Y-44040000D01*
X142655437Y-44264375D01*
X142710702Y-44482612D01*
X142710703Y-44482613D01*
X142710704Y-44482616D01*
X142769461Y-44616570D01*
X142801141Y-44688793D01*
X142924275Y-44877265D01*
X142924279Y-44877270D01*
X143076762Y-45042908D01*
X143131331Y-45085381D01*
X143254424Y-45181189D01*
X143287680Y-45199186D01*
X143338071Y-45249200D01*
X143353423Y-45318516D01*
X143328862Y-45385129D01*
X143287680Y-45420813D01*
X143254426Y-45438810D01*
X143254424Y-45438811D01*
X143076762Y-45577091D01*
X142924279Y-45742729D01*
X142924275Y-45742734D01*
X142801141Y-45931206D01*
X142710703Y-46137386D01*
X142710702Y-46137387D01*
X142655437Y-46355624D01*
X142655436Y-46355630D01*
X142655436Y-46355632D01*
X142643473Y-46499998D01*
X142636844Y-46580000D01*
X142655436Y-46804369D01*
X142690326Y-46942146D01*
X142687658Y-47013093D01*
X142657277Y-47062172D01*
X141963080Y-47756370D01*
X141963075Y-47756376D01*
X141882969Y-47895123D01*
X141882967Y-47895128D01*
X141878768Y-47910802D01*
X141870543Y-47941500D01*
X141841500Y-48049889D01*
X141841500Y-69957390D01*
X141841500Y-70117610D01*
X141882968Y-70272373D01*
X141882969Y-70272375D01*
X141882970Y-70272377D01*
X141963075Y-70411123D01*
X141963082Y-70411132D01*
X141979593Y-70427642D01*
X142013620Y-70489953D01*
X142016500Y-70516739D01*
X142016500Y-70887212D01*
X142026937Y-70989380D01*
X142081791Y-71154920D01*
X142173342Y-71303346D01*
X142173347Y-71303352D01*
X142280900Y-71410905D01*
X142314926Y-71473217D01*
X142309861Y-71544032D01*
X142280900Y-71589095D01*
X142173347Y-71696647D01*
X142173342Y-71696653D01*
X142081791Y-71845080D01*
X142026937Y-72010622D01*
X142016500Y-72112778D01*
X142016500Y-72712212D01*
X142026937Y-72814380D01*
X142081791Y-72979920D01*
X142173342Y-73128346D01*
X142173347Y-73128352D01*
X142296647Y-73251652D01*
X142296653Y-73251657D01*
X142296654Y-73251658D01*
X142445080Y-73343209D01*
X142610619Y-73398062D01*
X142712787Y-73408500D01*
X143287212Y-73408499D01*
X143389381Y-73398062D01*
X143554920Y-73343209D01*
X143703346Y-73251658D01*
X143826658Y-73128346D01*
X143826976Y-73127829D01*
X143827286Y-73127551D01*
X143831208Y-73122591D01*
X143832055Y-73123260D01*
X143879755Y-73080348D01*
X143949828Y-73068937D01*
X143964372Y-73071627D01*
X144113972Y-73108500D01*
X144113975Y-73108500D01*
X144286025Y-73108500D01*
X144286028Y-73108500D01*
X144453083Y-73067325D01*
X144486956Y-73049546D01*
X144556568Y-73035599D01*
X144622671Y-73061501D01*
X144652752Y-73094965D01*
X144673340Y-73128344D01*
X144673347Y-73128352D01*
X144761257Y-73216262D01*
X144795283Y-73278574D01*
X144797243Y-73290168D01*
X144807034Y-73370800D01*
X144864657Y-73522739D01*
X144868046Y-73531675D01*
X144965785Y-73673273D01*
X145085903Y-73779689D01*
X145123628Y-73839832D01*
X145122848Y-73910824D01*
X145083810Y-73970125D01*
X145018909Y-73998907D01*
X145002349Y-74000000D01*
X142501535Y-74000000D01*
X142498449Y-73999962D01*
X142496306Y-73999909D01*
X142412596Y-73997858D01*
X142391102Y-73995475D01*
X142221185Y-73961677D01*
X142197550Y-73954508D01*
X142038926Y-73888803D01*
X142017143Y-73877159D01*
X141874387Y-73781773D01*
X141855294Y-73766103D01*
X141733896Y-73644705D01*
X141718226Y-73625612D01*
X141622840Y-73482856D01*
X141611196Y-73461073D01*
X141601358Y-73437322D01*
X141545489Y-73302443D01*
X141538323Y-73278820D01*
X141504523Y-73108896D01*
X141502141Y-73087402D01*
X141500038Y-73001551D01*
X141500000Y-72998465D01*
X141500000Y-39001534D01*
X141500038Y-38998448D01*
X141502141Y-38912597D01*
X141504524Y-38891102D01*
X141538324Y-38721176D01*
X141545488Y-38697559D01*
X141611199Y-38538919D01*
X141622837Y-38517147D01*
X141718230Y-38374382D01*
X141733891Y-38355299D01*
X141855299Y-38233891D01*
X141874382Y-38218230D01*
X142017147Y-38122837D01*
X142038919Y-38111199D01*
X142197559Y-38045488D01*
X142221176Y-38038324D01*
X142391104Y-38004523D01*
X142412594Y-38002141D01*
X142498449Y-38000038D01*
X142501535Y-38000000D01*
X171498465Y-38000000D01*
X171501551Y-38000038D01*
G37*
%TD.AperFunction*%
%TA.AperFunction,Conductor*%
G36*
X154722421Y-62655903D02*
G01*
X154768914Y-62709559D01*
X154780300Y-62761901D01*
X154780300Y-63135401D01*
X154797840Y-63152941D01*
X154806221Y-63155402D01*
X154852714Y-63209058D01*
X154864100Y-63261400D01*
X154864100Y-63850549D01*
X154870609Y-63911096D01*
X154870610Y-63911100D01*
X154883556Y-63945808D01*
X154891500Y-63989840D01*
X154891500Y-65387543D01*
X154872741Y-65453689D01*
X154843703Y-65500767D01*
X154831791Y-65520080D01*
X154805289Y-65600059D01*
X154776937Y-65685622D01*
X154766500Y-65787778D01*
X154766500Y-66487212D01*
X154776937Y-66589380D01*
X154798655Y-66654920D01*
X154831791Y-66754920D01*
X154923342Y-66903346D01*
X154931252Y-66911256D01*
X154965278Y-66973565D01*
X154960216Y-67044381D01*
X154931258Y-67089445D01*
X154923737Y-67096966D01*
X154832248Y-67245292D01*
X154777431Y-67410723D01*
X154777430Y-67410726D01*
X154767000Y-67512815D01*
X154767000Y-67608500D01*
X155878000Y-67608500D01*
X155946121Y-67628502D01*
X155992614Y-67682158D01*
X156004000Y-67734500D01*
X156004000Y-67965500D01*
X155983998Y-68033621D01*
X155930342Y-68080114D01*
X155878000Y-68091500D01*
X154359499Y-68091500D01*
X154291378Y-68071498D01*
X154244885Y-68017842D01*
X154233499Y-67965500D01*
X154233499Y-67612787D01*
X154223062Y-67510619D01*
X154189960Y-67410723D01*
X154168209Y-67345080D01*
X154076658Y-67196654D01*
X154076657Y-67196653D01*
X154076652Y-67196647D01*
X153969100Y-67089095D01*
X153935074Y-67026783D01*
X153940139Y-66955968D01*
X153969100Y-66910905D01*
X154076652Y-66803352D01*
X154076658Y-66803346D01*
X154168209Y-66654920D01*
X154223062Y-66489381D01*
X154233500Y-66387213D01*
X154233499Y-65787788D01*
X154231833Y-65771484D01*
X154223062Y-65685619D01*
X154201716Y-65621199D01*
X154168209Y-65520080D01*
X154076658Y-65371654D01*
X154076656Y-65371652D01*
X154076652Y-65371647D01*
X153953352Y-65248347D01*
X153953346Y-65248342D01*
X153870040Y-65196958D01*
X153804920Y-65156791D01*
X153639381Y-65101938D01*
X153639379Y-65101937D01*
X153639377Y-65101937D01*
X153537221Y-65091500D01*
X152962787Y-65091500D01*
X152860619Y-65101937D01*
X152695079Y-65156791D01*
X152546653Y-65248342D01*
X152546647Y-65248347D01*
X152423347Y-65371647D01*
X152423338Y-65371659D01*
X152394047Y-65419147D01*
X152341261Y-65466625D01*
X152286807Y-65479000D01*
X151591739Y-65479000D01*
X151523618Y-65458998D01*
X151502644Y-65442095D01*
X150782905Y-64722356D01*
X150748879Y-64660044D01*
X150746000Y-64633261D01*
X150746000Y-64494033D01*
X150766002Y-64425912D01*
X150805850Y-64386794D01*
X150903346Y-64326658D01*
X150910903Y-64319100D01*
X150973212Y-64285075D01*
X151044028Y-64290137D01*
X151089096Y-64319100D01*
X151096654Y-64326658D01*
X151245080Y-64418209D01*
X151410619Y-64473062D01*
X151512787Y-64483500D01*
X152212212Y-64483499D01*
X152314381Y-64473062D01*
X152479920Y-64418209D01*
X152628346Y-64326658D01*
X152751658Y-64203346D01*
X152843209Y-64054920D01*
X152852439Y-64027063D01*
X152882945Y-63977603D01*
X153778041Y-63082507D01*
X153840350Y-63048485D01*
X153911165Y-63053549D01*
X153942642Y-63070737D01*
X153952137Y-63077845D01*
X154089006Y-63128894D01*
X154149502Y-63135399D01*
X154149515Y-63135400D01*
X154525500Y-63135400D01*
X154525500Y-62761901D01*
X154545502Y-62693780D01*
X154599158Y-62647287D01*
X154651500Y-62635901D01*
X154654300Y-62635901D01*
X154722421Y-62655903D01*
G37*
%TD.AperFunction*%
%TA.AperFunction,Conductor*%
G36*
X161043753Y-63053134D02*
G01*
X161087641Y-63108940D01*
X161096016Y-63168577D01*
X161091500Y-63212785D01*
X161091500Y-63583260D01*
X161071498Y-63651381D01*
X161054599Y-63672350D01*
X160781142Y-63945808D01*
X160544943Y-64182007D01*
X160486004Y-64215249D01*
X160440673Y-64226422D01*
X160440662Y-64226427D01*
X160288323Y-64306380D01*
X160288318Y-64306384D01*
X160159535Y-64420477D01*
X160061795Y-64562076D01*
X160000784Y-64722950D01*
X159999807Y-64726915D01*
X159986591Y-64759748D01*
X159932967Y-64852627D01*
X159932968Y-64852628D01*
X159911732Y-64931884D01*
X159891500Y-65007390D01*
X159891500Y-65119516D01*
X159871498Y-65187637D01*
X159831649Y-65226756D01*
X159796656Y-65248340D01*
X159673343Y-65371652D01*
X159673342Y-65371653D01*
X159581791Y-65520080D01*
X159526937Y-65685622D01*
X159516500Y-65787778D01*
X159516500Y-66387212D01*
X159526937Y-66489380D01*
X159566409Y-66608500D01*
X159581791Y-66654920D01*
X159673342Y-66803346D01*
X159673344Y-66803348D01*
X159673347Y-66803352D01*
X159780900Y-66910905D01*
X159814926Y-66973217D01*
X159809861Y-67044032D01*
X159780900Y-67089095D01*
X159673347Y-67196647D01*
X159673342Y-67196653D01*
X159581791Y-67345080D01*
X159526937Y-67510622D01*
X159516500Y-67612778D01*
X159516501Y-67965500D01*
X159496499Y-68033620D01*
X159442844Y-68080113D01*
X159390501Y-68091500D01*
X158122000Y-68091500D01*
X158053879Y-68071498D01*
X158007386Y-68017842D01*
X157996000Y-67965500D01*
X157996000Y-67784500D01*
X158016002Y-67716379D01*
X158069658Y-67669886D01*
X158122000Y-67658500D01*
X159233000Y-67658500D01*
X159233000Y-67612815D01*
X159222569Y-67510726D01*
X159222568Y-67510723D01*
X159167751Y-67345292D01*
X159076262Y-67196966D01*
X159076257Y-67196960D01*
X158968746Y-67089449D01*
X158934720Y-67027137D01*
X158939785Y-66956322D01*
X158968746Y-66911259D01*
X159076652Y-66803352D01*
X159076658Y-66803346D01*
X159168209Y-66654920D01*
X159223062Y-66489381D01*
X159233500Y-66387213D01*
X159233499Y-65787788D01*
X159231833Y-65771484D01*
X159223062Y-65685619D01*
X159201716Y-65621199D01*
X159168209Y-65520080D01*
X159076658Y-65371654D01*
X159076656Y-65371652D01*
X159076652Y-65371647D01*
X158953352Y-65248347D01*
X158953346Y-65248342D01*
X158804920Y-65156791D01*
X158696521Y-65120872D01*
X158638150Y-65080458D01*
X158610894Y-65014901D01*
X158623407Y-64945016D01*
X158671717Y-64892990D01*
X158705994Y-64878930D01*
X158753083Y-64867325D01*
X158905430Y-64787367D01*
X159034215Y-64673273D01*
X159131954Y-64531675D01*
X159192965Y-64370801D01*
X159203374Y-64285075D01*
X159213704Y-64200003D01*
X159213704Y-64199996D01*
X159192966Y-64029201D01*
X159181891Y-64000000D01*
X159144005Y-63900102D01*
X159136826Y-63853913D01*
X159135900Y-63853913D01*
X159135900Y-63261900D01*
X159155902Y-63193779D01*
X159209558Y-63147286D01*
X159261900Y-63135900D01*
X159850532Y-63135900D01*
X159850538Y-63135900D01*
X159850545Y-63135899D01*
X159850549Y-63135899D01*
X159911096Y-63129390D01*
X159911099Y-63129389D01*
X159911101Y-63129389D01*
X159945808Y-63116444D01*
X159989840Y-63108500D01*
X160717610Y-63108500D01*
X160717611Y-63108500D01*
X160801105Y-63086128D01*
X160872373Y-63067032D01*
X160907670Y-63046652D01*
X160976661Y-63029915D01*
X161043753Y-63053134D01*
G37*
%TD.AperFunction*%
%TA.AperFunction,Conductor*%
G36*
X163044032Y-64190139D02*
G01*
X163089095Y-64219100D01*
X163196647Y-64326652D01*
X163196651Y-64326655D01*
X163196654Y-64326658D01*
X163244147Y-64355952D01*
X163291625Y-64408736D01*
X163304000Y-64463192D01*
X163304000Y-66383259D01*
X163283998Y-66451380D01*
X163267095Y-66472354D01*
X162425722Y-67313727D01*
X162363410Y-67347753D01*
X162292595Y-67342688D01*
X162269591Y-67331319D01*
X162129107Y-67243047D01*
X162129104Y-67243046D01*
X161957139Y-67182872D01*
X161957133Y-67182871D01*
X161905238Y-67177023D01*
X161894769Y-67175395D01*
X161829803Y-67162473D01*
X161829801Y-67162472D01*
X161787206Y-67154000D01*
X161336194Y-67154000D01*
X161268073Y-67133998D01*
X161247099Y-67117095D01*
X161219099Y-67089095D01*
X161185073Y-67026783D01*
X161190138Y-66955968D01*
X161219097Y-66910906D01*
X161326658Y-66803346D01*
X161418209Y-66654920D01*
X161473062Y-66489381D01*
X161483500Y-66387213D01*
X161483499Y-65787788D01*
X161481833Y-65771484D01*
X161473062Y-65685619D01*
X161451716Y-65621199D01*
X161418209Y-65520080D01*
X161326658Y-65371654D01*
X161326656Y-65371652D01*
X161322805Y-65365408D01*
X161325194Y-65363934D01*
X161303470Y-65310072D01*
X161316726Y-65240324D01*
X161325179Y-65226185D01*
X161325704Y-65225425D01*
X161379091Y-65084654D01*
X161407804Y-65040243D01*
X161927646Y-64520401D01*
X161989956Y-64486378D01*
X162016739Y-64483499D01*
X162387212Y-64483499D01*
X162489381Y-64473062D01*
X162654920Y-64418209D01*
X162803346Y-64326658D01*
X162844929Y-64285075D01*
X162910905Y-64219100D01*
X162973217Y-64185074D01*
X163044032Y-64190139D01*
G37*
%TD.AperFunction*%
%TA.AperFunction,Conductor*%
G36*
X163044032Y-59190139D02*
G01*
X163089095Y-59219100D01*
X163196647Y-59326652D01*
X163196653Y-59326657D01*
X163196654Y-59326658D01*
X163345080Y-59418209D01*
X163510619Y-59473062D01*
X163612787Y-59483500D01*
X163965500Y-59483499D01*
X164033620Y-59503501D01*
X164080113Y-59557156D01*
X164091500Y-59609499D01*
X164091500Y-62390500D01*
X164071498Y-62458621D01*
X164017842Y-62505114D01*
X163965500Y-62516500D01*
X163612787Y-62516500D01*
X163510619Y-62526937D01*
X163345079Y-62581791D01*
X163196653Y-62673342D01*
X163196647Y-62673347D01*
X163089095Y-62780900D01*
X163026783Y-62814926D01*
X162955968Y-62809861D01*
X162910905Y-62780900D01*
X162803346Y-62673341D01*
X162755852Y-62644046D01*
X162708374Y-62591260D01*
X162696000Y-62536806D01*
X162696000Y-62024873D01*
X162716002Y-61956752D01*
X162755848Y-61917636D01*
X162903346Y-61826658D01*
X162911255Y-61818748D01*
X162973560Y-61784722D01*
X163044376Y-61789781D01*
X163089448Y-61818745D01*
X163096960Y-61826257D01*
X163096966Y-61826262D01*
X163245292Y-61917751D01*
X163410723Y-61972568D01*
X163410726Y-61972569D01*
X163512815Y-61982999D01*
X163512815Y-61983000D01*
X163608500Y-61983000D01*
X163608500Y-60017000D01*
X163512815Y-60017000D01*
X163410726Y-60027430D01*
X163410723Y-60027431D01*
X163245292Y-60082248D01*
X163096966Y-60173737D01*
X163089445Y-60181258D01*
X163027131Y-60215281D01*
X162956316Y-60210213D01*
X162911256Y-60181252D01*
X162903346Y-60173342D01*
X162754920Y-60081791D01*
X162754919Y-60081790D01*
X162754915Y-60081788D01*
X162752282Y-60080916D01*
X162750711Y-60079828D01*
X162748268Y-60078689D01*
X162748462Y-60078271D01*
X162693913Y-60040500D01*
X162666660Y-59974942D01*
X162670213Y-59928707D01*
X162696000Y-59832470D01*
X162696000Y-59672250D01*
X162696000Y-59463192D01*
X162716002Y-59395071D01*
X162755852Y-59355952D01*
X162803346Y-59326658D01*
X162850004Y-59280000D01*
X162910905Y-59219100D01*
X162973217Y-59185074D01*
X163044032Y-59190139D01*
G37*
%TD.AperFunction*%
%TA.AperFunction,Conductor*%
G36*
X150958621Y-59428502D02*
G01*
X151005114Y-59482158D01*
X151016500Y-59534500D01*
X151016500Y-59987212D01*
X151026937Y-60089380D01*
X151081791Y-60254920D01*
X151173342Y-60403346D01*
X151173347Y-60403352D01*
X151180900Y-60410905D01*
X151214926Y-60473217D01*
X151209861Y-60544032D01*
X151180900Y-60589095D01*
X151173347Y-60596647D01*
X151173342Y-60596653D01*
X151081791Y-60745080D01*
X151026937Y-60910622D01*
X151016500Y-61012778D01*
X151016500Y-61712212D01*
X151026937Y-61814380D01*
X151081791Y-61979920D01*
X151173342Y-62128346D01*
X151173347Y-62128352D01*
X151296647Y-62251652D01*
X151296651Y-62251655D01*
X151296654Y-62251658D01*
X151296659Y-62251661D01*
X151396829Y-62313448D01*
X151444307Y-62366234D01*
X151455710Y-62436309D01*
X151427417Y-62501424D01*
X151370315Y-62540292D01*
X151245083Y-62581789D01*
X151096653Y-62673342D01*
X151096647Y-62673347D01*
X151089095Y-62680900D01*
X151026783Y-62714926D01*
X150955968Y-62709861D01*
X150910905Y-62680900D01*
X150903352Y-62673347D01*
X150903346Y-62673342D01*
X150885973Y-62662626D01*
X150754920Y-62581791D01*
X150589381Y-62526938D01*
X150589379Y-62526937D01*
X150589377Y-62526937D01*
X150487221Y-62516500D01*
X150487213Y-62516500D01*
X150217306Y-62516500D01*
X150149185Y-62496498D01*
X150102692Y-62442842D01*
X150092588Y-62372568D01*
X150122082Y-62307988D01*
X150151159Y-62283259D01*
X150203033Y-62251262D01*
X150203039Y-62251257D01*
X150326257Y-62128039D01*
X150326262Y-62128033D01*
X150417751Y-61979707D01*
X150472568Y-61814276D01*
X150472569Y-61814273D01*
X150482999Y-61712184D01*
X150483000Y-61712184D01*
X150483000Y-61666500D01*
X149372000Y-61666500D01*
X149303879Y-61646498D01*
X149257386Y-61592842D01*
X149246000Y-61540500D01*
X149246000Y-61284500D01*
X149266002Y-61216379D01*
X149319658Y-61169886D01*
X149372000Y-61158500D01*
X150483000Y-61158500D01*
X150483000Y-61112815D01*
X150472569Y-61010726D01*
X150472568Y-61010723D01*
X150417751Y-60845292D01*
X150326262Y-60696966D01*
X150326257Y-60696960D01*
X150218746Y-60589449D01*
X150184720Y-60527137D01*
X150189785Y-60456322D01*
X150218746Y-60411259D01*
X150326652Y-60303352D01*
X150326658Y-60303346D01*
X150418209Y-60154920D01*
X150473062Y-59989381D01*
X150483500Y-59887213D01*
X150483499Y-59534499D01*
X150503501Y-59466380D01*
X150557156Y-59419887D01*
X150609499Y-59408500D01*
X150890500Y-59408500D01*
X150958621Y-59428502D01*
G37*
%TD.AperFunction*%
%TA.AperFunction,Conductor*%
G36*
X157060384Y-59510776D02*
G01*
X157075510Y-59520497D01*
X157126390Y-59558586D01*
X157126391Y-59558587D01*
X157126393Y-59558587D01*
X157126395Y-59558589D01*
X157172034Y-59575611D01*
X157228868Y-59618157D01*
X157253679Y-59684677D01*
X157254000Y-59693666D01*
X157254000Y-60746000D01*
X158306334Y-60746000D01*
X158374455Y-60766002D01*
X158420948Y-60819658D01*
X158424381Y-60827946D01*
X158430851Y-60845292D01*
X158441412Y-60873608D01*
X158479503Y-60924491D01*
X158504314Y-60991011D01*
X158489222Y-61060386D01*
X158479503Y-61075509D01*
X158441412Y-61126391D01*
X158441411Y-61126395D01*
X158424388Y-61172034D01*
X158381843Y-61228868D01*
X158315323Y-61253679D01*
X158306334Y-61254000D01*
X156872000Y-61254000D01*
X156803879Y-61233998D01*
X156757386Y-61180342D01*
X156746000Y-61128000D01*
X156746000Y-59693666D01*
X156766002Y-59625545D01*
X156819658Y-59579052D01*
X156827946Y-59575618D01*
X156873605Y-59558589D01*
X156924490Y-59520497D01*
X156991010Y-59495685D01*
X157060384Y-59510776D01*
G37*
%TD.AperFunction*%
%TD*%
M02*
