%TF.GenerationSoftware,KiCad,Pcbnew,8.0.4*%
%TF.CreationDate,2024-09-14T10:12:32+02:00*%
%TF.ProjectId,tmc2208-breakout,746d6332-3230-4382-9d62-7265616b6f75,rev?*%
%TF.SameCoordinates,Original*%
%TF.FileFunction,Drillmap*%
%TF.FilePolarity,Positive*%
%FSLAX45Y45*%
G04 Gerber Fmt 4.5, Leading zero omitted, Abs format (unit mm)*
G04 Created by KiCad (PCBNEW 8.0.4) date 2024-09-14 10:12:32*
%MOMM*%
%LPD*%
G01*
G04 APERTURE LIST*
%ADD10C,0.100000*%
%ADD11C,0.200000*%
%ADD12C,0.130000*%
G04 APERTURE END LIST*
D10*
X14150000Y-7300000D02*
X14150000Y-3900000D01*
X14150000Y-3900000D02*
G75*
G02*
X14250000Y-3800000I100000J0D01*
G01*
X17150000Y-3800000D02*
G75*
G02*
X17250000Y-3900000I0J-100000D01*
G01*
X17150000Y-7400000D02*
X14250000Y-7400000D01*
X17250000Y-3900000D02*
X17250000Y-7300000D01*
X15700000Y-3800000D02*
X14250000Y-3800000D01*
X15700000Y-3800000D02*
X17150000Y-3800000D01*
X14250000Y-7400000D02*
G75*
G02*
X14150000Y-7300000I0J100000D01*
G01*
X17250000Y-7300000D02*
G75*
G02*
X17150000Y-7400000I-100000J0D01*
G01*
D11*
D10*
X14410000Y-7230000D02*
X14430000Y-7250000D01*
X14430000Y-7230000D02*
X14410000Y-7250000D01*
X14540000Y-7310000D02*
X14560000Y-7330000D01*
X14560000Y-7310000D02*
X14540000Y-7330000D01*
X15070000Y-6130000D02*
X15090000Y-6150000D01*
X15090000Y-6130000D02*
X15070000Y-6150000D01*
X15289622Y-5988316D02*
X15309622Y-6008316D01*
X15309622Y-5988316D02*
X15289622Y-6008316D01*
X15320000Y-6040000D02*
X15340000Y-6060000D01*
X15340000Y-6040000D02*
X15320000Y-6060000D01*
X15340000Y-7110000D02*
X15360000Y-7130000D01*
X15360000Y-7110000D02*
X15340000Y-7130000D01*
X15440000Y-5510000D02*
X15460000Y-5530000D01*
X15460000Y-5510000D02*
X15440000Y-5530000D01*
X15440000Y-6340000D02*
X15460000Y-6360000D01*
X15460000Y-6340000D02*
X15440000Y-6360000D01*
X15440000Y-6690000D02*
X15460000Y-6710000D01*
X15460000Y-6690000D02*
X15440000Y-6710000D01*
X15440000Y-6770000D02*
X15460000Y-6790000D01*
X15460000Y-6770000D02*
X15440000Y-6790000D01*
X15450000Y-5880000D02*
X15470000Y-5900000D01*
X15470000Y-5880000D02*
X15450000Y-5900000D01*
X15540000Y-6930000D02*
X15560000Y-6950000D01*
X15560000Y-6930000D02*
X15540000Y-6950000D01*
X15560000Y-7310000D02*
X15580000Y-7330000D01*
X15580000Y-7310000D02*
X15560000Y-7330000D01*
X15590000Y-5990000D02*
X15610000Y-6010000D01*
X15610000Y-5990000D02*
X15590000Y-6010000D01*
X15590000Y-6190000D02*
X15610000Y-6210000D01*
X15610000Y-6190000D02*
X15590000Y-6210000D01*
X15590000Y-6400000D02*
X15610000Y-6420000D01*
X15610000Y-6400000D02*
X15590000Y-6420000D01*
X15640000Y-5760000D02*
X15660000Y-5780000D01*
X15660000Y-5760000D02*
X15640000Y-5780000D01*
X15640000Y-6440000D02*
X15660000Y-6460000D01*
X15660000Y-6440000D02*
X15640000Y-6460000D01*
X15688593Y-6479156D02*
X15708593Y-6499156D01*
X15708593Y-6479156D02*
X15688593Y-6499156D01*
X15690000Y-5530000D02*
X15710000Y-5550000D01*
X15710000Y-5530000D02*
X15690000Y-5550000D01*
X15740000Y-5760000D02*
X15760000Y-5780000D01*
X15760000Y-5760000D02*
X15740000Y-5780000D01*
X15740000Y-6510000D02*
X15760000Y-6530000D01*
X15760000Y-6510000D02*
X15740000Y-6530000D01*
X15790000Y-5990000D02*
X15810000Y-6010000D01*
X15810000Y-5990000D02*
X15790000Y-6010000D01*
X15790000Y-6190000D02*
X15810000Y-6210000D01*
X15810000Y-6190000D02*
X15790000Y-6210000D01*
X15840000Y-6410000D02*
X15860000Y-6430000D01*
X15860000Y-6410000D02*
X15840000Y-6430000D01*
X15930000Y-5880000D02*
X15950000Y-5900000D01*
X15950000Y-5880000D02*
X15930000Y-5900000D01*
X15930000Y-6690000D02*
X15950000Y-6710000D01*
X15950000Y-6690000D02*
X15930000Y-6710000D01*
X15930000Y-6770000D02*
X15950000Y-6790000D01*
X15950000Y-6770000D02*
X15930000Y-6790000D01*
X15940000Y-5510000D02*
X15960000Y-5530000D01*
X15960000Y-5510000D02*
X15940000Y-5530000D01*
X15940000Y-6340000D02*
X15960000Y-6360000D01*
X15960000Y-6340000D02*
X15940000Y-6360000D01*
X16010000Y-6040000D02*
X16030000Y-6060000D01*
X16030000Y-6040000D02*
X16010000Y-6060000D01*
X16010000Y-6190000D02*
X16030000Y-6210000D01*
X16030000Y-6190000D02*
X16010000Y-6210000D01*
X16050000Y-6140000D02*
X16070000Y-6160000D01*
X16070000Y-6140000D02*
X16050000Y-6160000D01*
X16059375Y-6479375D02*
X16079375Y-6499375D01*
X16079375Y-6479375D02*
X16059375Y-6499375D01*
X16060000Y-5920000D02*
X16080000Y-5940000D01*
X16080000Y-5920000D02*
X16060000Y-5940000D01*
X16211757Y-6551757D02*
X16231757Y-6571757D01*
X16231757Y-6551757D02*
X16211757Y-6571757D01*
X16290000Y-5960000D02*
X16310000Y-5980000D01*
X16310000Y-5960000D02*
X16290000Y-5980000D01*
X16290000Y-6220000D02*
X16310000Y-6240000D01*
X16310000Y-6220000D02*
X16290000Y-6240000D01*
X15215000Y-5500000D02*
G75*
G02*
X15185000Y-5500000I-15000J0D01*
G01*
X15185000Y-5500000D02*
G75*
G02*
X15215000Y-5500000I15000J0D01*
G01*
X15715000Y-5240000D02*
G75*
G02*
X15685000Y-5240000I-15000J0D01*
G01*
X15685000Y-5240000D02*
G75*
G02*
X15715000Y-5240000I15000J0D01*
G01*
X16192609Y-6797609D02*
G75*
G02*
X16162609Y-6797609I-15000J0D01*
G01*
X16162609Y-6797609D02*
G75*
G02*
X16192609Y-6797609I15000J0D01*
G01*
X16215000Y-5500000D02*
G75*
G02*
X16185000Y-5500000I-15000J0D01*
G01*
X16185000Y-5500000D02*
G75*
G02*
X16215000Y-5500000I15000J0D01*
G01*
X14325000Y-6900000D02*
X14325000Y-6950000D01*
X14300000Y-6925000D02*
X14350000Y-6925000D01*
X14730000Y-4365000D02*
X14730000Y-4415000D01*
X14705000Y-4390000D02*
X14755000Y-4390000D01*
X14730000Y-4625000D02*
X14730000Y-4675000D01*
X14705000Y-4650000D02*
X14755000Y-4650000D01*
X14730000Y-4885000D02*
X14730000Y-4935000D01*
X14705000Y-4910000D02*
X14755000Y-4910000D01*
X14730000Y-5135000D02*
X14730000Y-5185000D01*
X14705000Y-5160000D02*
X14755000Y-5160000D01*
X14730000Y-5385000D02*
X14730000Y-5435000D01*
X14705000Y-5410000D02*
X14755000Y-5410000D01*
X14730000Y-5635000D02*
X14730000Y-5685000D01*
X14705000Y-5660000D02*
X14755000Y-5660000D01*
X14730000Y-6025000D02*
X14730000Y-6075000D01*
X14705000Y-6050000D02*
X14755000Y-6050000D01*
X14730000Y-6265000D02*
X14730000Y-6315000D01*
X14705000Y-6290000D02*
X14755000Y-6290000D01*
X14740000Y-6715000D02*
X14740000Y-6765000D01*
X14715000Y-6740000D02*
X14765000Y-6740000D01*
X15250000Y-4885000D02*
X15250000Y-4935000D01*
X15225000Y-4910000D02*
X15275000Y-4910000D01*
X15250000Y-5135000D02*
X15250000Y-5185000D01*
X15225000Y-5160000D02*
X15275000Y-5160000D01*
X16020000Y-7075000D02*
X16020000Y-7125000D01*
X15995000Y-7100000D02*
X16045000Y-7100000D01*
X16260000Y-7075000D02*
X16260000Y-7125000D01*
X16235000Y-7100000D02*
X16285000Y-7100000D01*
X16400000Y-6825000D02*
X16400000Y-6875000D01*
X16375000Y-6850000D02*
X16425000Y-6850000D01*
X16986088Y-5808588D02*
X16986088Y-5741412D01*
X16918912Y-5741412D01*
X16918912Y-5808588D01*
X16986088Y-5808588D01*
X16986088Y-6058588D02*
X16986088Y-5991412D01*
X16918912Y-5991412D01*
X16918912Y-6058588D01*
X16986088Y-6058588D01*
X16986088Y-6308588D02*
X16986088Y-6241412D01*
X16918912Y-6241412D01*
X16918912Y-6308588D01*
X16986088Y-6308588D01*
X16986088Y-6558588D02*
X16986088Y-6491412D01*
X16918912Y-6491412D01*
X16918912Y-6558588D01*
X16986088Y-6558588D01*
X14400000Y-4200000D02*
X14450000Y-4150000D01*
X14400000Y-4100000D01*
X14350000Y-4150000D01*
X14400000Y-4200000D01*
X14400000Y-4454000D02*
X14450000Y-4404000D01*
X14400000Y-4354000D01*
X14350000Y-4404000D01*
X14400000Y-4454000D01*
X14400000Y-4708000D02*
X14450000Y-4658000D01*
X14400000Y-4608000D01*
X14350000Y-4658000D01*
X14400000Y-4708000D01*
X14400000Y-4962000D02*
X14450000Y-4912000D01*
X14400000Y-4862000D01*
X14350000Y-4912000D01*
X14400000Y-4962000D01*
X14400000Y-5216000D02*
X14450000Y-5166000D01*
X14400000Y-5116000D01*
X14350000Y-5166000D01*
X14400000Y-5216000D01*
X14400000Y-5470000D02*
X14450000Y-5420000D01*
X14400000Y-5370000D01*
X14350000Y-5420000D01*
X14400000Y-5470000D01*
X14400000Y-5724000D02*
X14450000Y-5674000D01*
X14400000Y-5624000D01*
X14350000Y-5674000D01*
X14400000Y-5724000D01*
X14400000Y-5978000D02*
X14450000Y-5928000D01*
X14400000Y-5878000D01*
X14350000Y-5928000D01*
X14400000Y-5978000D01*
X14400000Y-6232000D02*
X14450000Y-6182000D01*
X14400000Y-6132000D01*
X14350000Y-6182000D01*
X14400000Y-6232000D01*
X14400000Y-6486000D02*
X14450000Y-6436000D01*
X14400000Y-6386000D01*
X14350000Y-6436000D01*
X14400000Y-6486000D01*
X14400000Y-6740000D02*
X14450000Y-6690000D01*
X14400000Y-6640000D01*
X14350000Y-6690000D01*
X14400000Y-6740000D01*
D12*
X16665500Y-4585000D02*
X16795500Y-4715000D01*
X16795500Y-4585000D02*
X16665500Y-4715000D01*
X16795500Y-4650000D02*
G75*
G02*
X16665500Y-4650000I-65000J0D01*
G01*
X16665500Y-4650000D02*
G75*
G02*
X16795500Y-4650000I65000J0D01*
G01*
X16665500Y-5085000D02*
X16795500Y-5215000D01*
X16795500Y-5085000D02*
X16665500Y-5215000D01*
X16795500Y-5150000D02*
G75*
G02*
X16665500Y-5150000I-65000J0D01*
G01*
X16665500Y-5150000D02*
G75*
G02*
X16795500Y-5150000I65000J0D01*
G01*
D11*
X14405777Y-7716484D02*
X14405777Y-7516484D01*
X14405777Y-7516484D02*
X14453396Y-7516484D01*
X14453396Y-7516484D02*
X14481967Y-7526008D01*
X14481967Y-7526008D02*
X14501015Y-7545055D01*
X14501015Y-7545055D02*
X14510539Y-7564103D01*
X14510539Y-7564103D02*
X14520062Y-7602198D01*
X14520062Y-7602198D02*
X14520062Y-7630769D01*
X14520062Y-7630769D02*
X14510539Y-7668865D01*
X14510539Y-7668865D02*
X14501015Y-7687912D01*
X14501015Y-7687912D02*
X14481967Y-7706960D01*
X14481967Y-7706960D02*
X14453396Y-7716484D01*
X14453396Y-7716484D02*
X14405777Y-7716484D01*
X14605777Y-7716484D02*
X14605777Y-7583150D01*
X14605777Y-7621246D02*
X14615301Y-7602198D01*
X14615301Y-7602198D02*
X14624824Y-7592674D01*
X14624824Y-7592674D02*
X14643872Y-7583150D01*
X14643872Y-7583150D02*
X14662920Y-7583150D01*
X14729586Y-7716484D02*
X14729586Y-7583150D01*
X14729586Y-7516484D02*
X14720062Y-7526008D01*
X14720062Y-7526008D02*
X14729586Y-7535531D01*
X14729586Y-7535531D02*
X14739110Y-7526008D01*
X14739110Y-7526008D02*
X14729586Y-7516484D01*
X14729586Y-7516484D02*
X14729586Y-7535531D01*
X14853396Y-7716484D02*
X14834348Y-7706960D01*
X14834348Y-7706960D02*
X14824824Y-7687912D01*
X14824824Y-7687912D02*
X14824824Y-7516484D01*
X14958158Y-7716484D02*
X14939110Y-7706960D01*
X14939110Y-7706960D02*
X14929586Y-7687912D01*
X14929586Y-7687912D02*
X14929586Y-7516484D01*
X15186729Y-7716484D02*
X15186729Y-7516484D01*
X15186729Y-7516484D02*
X15253396Y-7659341D01*
X15253396Y-7659341D02*
X15320062Y-7516484D01*
X15320062Y-7516484D02*
X15320062Y-7716484D01*
X15501015Y-7716484D02*
X15501015Y-7611722D01*
X15501015Y-7611722D02*
X15491491Y-7592674D01*
X15491491Y-7592674D02*
X15472443Y-7583150D01*
X15472443Y-7583150D02*
X15434348Y-7583150D01*
X15434348Y-7583150D02*
X15415301Y-7592674D01*
X15501015Y-7706960D02*
X15481967Y-7716484D01*
X15481967Y-7716484D02*
X15434348Y-7716484D01*
X15434348Y-7716484D02*
X15415301Y-7706960D01*
X15415301Y-7706960D02*
X15405777Y-7687912D01*
X15405777Y-7687912D02*
X15405777Y-7668865D01*
X15405777Y-7668865D02*
X15415301Y-7649817D01*
X15415301Y-7649817D02*
X15434348Y-7640293D01*
X15434348Y-7640293D02*
X15481967Y-7640293D01*
X15481967Y-7640293D02*
X15501015Y-7630769D01*
X15596253Y-7583150D02*
X15596253Y-7783150D01*
X15596253Y-7592674D02*
X15615301Y-7583150D01*
X15615301Y-7583150D02*
X15653396Y-7583150D01*
X15653396Y-7583150D02*
X15672443Y-7592674D01*
X15672443Y-7592674D02*
X15681967Y-7602198D01*
X15681967Y-7602198D02*
X15691491Y-7621246D01*
X15691491Y-7621246D02*
X15691491Y-7678388D01*
X15691491Y-7678388D02*
X15681967Y-7697436D01*
X15681967Y-7697436D02*
X15672443Y-7706960D01*
X15672443Y-7706960D02*
X15653396Y-7716484D01*
X15653396Y-7716484D02*
X15615301Y-7716484D01*
X15615301Y-7716484D02*
X15596253Y-7706960D01*
X15777205Y-7697436D02*
X15786729Y-7706960D01*
X15786729Y-7706960D02*
X15777205Y-7716484D01*
X15777205Y-7716484D02*
X15767682Y-7706960D01*
X15767682Y-7706960D02*
X15777205Y-7697436D01*
X15777205Y-7697436D02*
X15777205Y-7716484D01*
X15777205Y-7592674D02*
X15786729Y-7602198D01*
X15786729Y-7602198D02*
X15777205Y-7611722D01*
X15777205Y-7611722D02*
X15767682Y-7602198D01*
X15767682Y-7602198D02*
X15777205Y-7592674D01*
X15777205Y-7592674D02*
X15777205Y-7611722D01*
D10*
X14125000Y-8035000D02*
X14145000Y-8055000D01*
X14145000Y-8035000D02*
X14125000Y-8055000D01*
D11*
X14443872Y-7936484D02*
X14462920Y-7936484D01*
X14462920Y-7936484D02*
X14481967Y-7946008D01*
X14481967Y-7946008D02*
X14491491Y-7955531D01*
X14491491Y-7955531D02*
X14501015Y-7974579D01*
X14501015Y-7974579D02*
X14510539Y-8012674D01*
X14510539Y-8012674D02*
X14510539Y-8060293D01*
X14510539Y-8060293D02*
X14501015Y-8098388D01*
X14501015Y-8098388D02*
X14491491Y-8117436D01*
X14491491Y-8117436D02*
X14481967Y-8126960D01*
X14481967Y-8126960D02*
X14462920Y-8136484D01*
X14462920Y-8136484D02*
X14443872Y-8136484D01*
X14443872Y-8136484D02*
X14424824Y-8126960D01*
X14424824Y-8126960D02*
X14415301Y-8117436D01*
X14415301Y-8117436D02*
X14405777Y-8098388D01*
X14405777Y-8098388D02*
X14396253Y-8060293D01*
X14396253Y-8060293D02*
X14396253Y-8012674D01*
X14396253Y-8012674D02*
X14405777Y-7974579D01*
X14405777Y-7974579D02*
X14415301Y-7955531D01*
X14415301Y-7955531D02*
X14424824Y-7946008D01*
X14424824Y-7946008D02*
X14443872Y-7936484D01*
X14596253Y-8117436D02*
X14605777Y-8126960D01*
X14605777Y-8126960D02*
X14596253Y-8136484D01*
X14596253Y-8136484D02*
X14586729Y-8126960D01*
X14586729Y-8126960D02*
X14596253Y-8117436D01*
X14596253Y-8117436D02*
X14596253Y-8136484D01*
X14681967Y-7955531D02*
X14691491Y-7946008D01*
X14691491Y-7946008D02*
X14710539Y-7936484D01*
X14710539Y-7936484D02*
X14758158Y-7936484D01*
X14758158Y-7936484D02*
X14777205Y-7946008D01*
X14777205Y-7946008D02*
X14786729Y-7955531D01*
X14786729Y-7955531D02*
X14796253Y-7974579D01*
X14796253Y-7974579D02*
X14796253Y-7993627D01*
X14796253Y-7993627D02*
X14786729Y-8022198D01*
X14786729Y-8022198D02*
X14672443Y-8136484D01*
X14672443Y-8136484D02*
X14796253Y-8136484D01*
X14920062Y-7936484D02*
X14939110Y-7936484D01*
X14939110Y-7936484D02*
X14958158Y-7946008D01*
X14958158Y-7946008D02*
X14967682Y-7955531D01*
X14967682Y-7955531D02*
X14977205Y-7974579D01*
X14977205Y-7974579D02*
X14986729Y-8012674D01*
X14986729Y-8012674D02*
X14986729Y-8060293D01*
X14986729Y-8060293D02*
X14977205Y-8098388D01*
X14977205Y-8098388D02*
X14967682Y-8117436D01*
X14967682Y-8117436D02*
X14958158Y-8126960D01*
X14958158Y-8126960D02*
X14939110Y-8136484D01*
X14939110Y-8136484D02*
X14920062Y-8136484D01*
X14920062Y-8136484D02*
X14901015Y-8126960D01*
X14901015Y-8126960D02*
X14891491Y-8117436D01*
X14891491Y-8117436D02*
X14881967Y-8098388D01*
X14881967Y-8098388D02*
X14872443Y-8060293D01*
X14872443Y-8060293D02*
X14872443Y-8012674D01*
X14872443Y-8012674D02*
X14881967Y-7974579D01*
X14881967Y-7974579D02*
X14891491Y-7955531D01*
X14891491Y-7955531D02*
X14901015Y-7946008D01*
X14901015Y-7946008D02*
X14920062Y-7936484D01*
X15110539Y-7936484D02*
X15129586Y-7936484D01*
X15129586Y-7936484D02*
X15148634Y-7946008D01*
X15148634Y-7946008D02*
X15158158Y-7955531D01*
X15158158Y-7955531D02*
X15167682Y-7974579D01*
X15167682Y-7974579D02*
X15177205Y-8012674D01*
X15177205Y-8012674D02*
X15177205Y-8060293D01*
X15177205Y-8060293D02*
X15167682Y-8098388D01*
X15167682Y-8098388D02*
X15158158Y-8117436D01*
X15158158Y-8117436D02*
X15148634Y-8126960D01*
X15148634Y-8126960D02*
X15129586Y-8136484D01*
X15129586Y-8136484D02*
X15110539Y-8136484D01*
X15110539Y-8136484D02*
X15091491Y-8126960D01*
X15091491Y-8126960D02*
X15081967Y-8117436D01*
X15081967Y-8117436D02*
X15072443Y-8098388D01*
X15072443Y-8098388D02*
X15062920Y-8060293D01*
X15062920Y-8060293D02*
X15062920Y-8012674D01*
X15062920Y-8012674D02*
X15072443Y-7974579D01*
X15072443Y-7974579D02*
X15081967Y-7955531D01*
X15081967Y-7955531D02*
X15091491Y-7946008D01*
X15091491Y-7946008D02*
X15110539Y-7936484D01*
X15262920Y-8136484D02*
X15262920Y-8003150D01*
X15262920Y-8022198D02*
X15272443Y-8012674D01*
X15272443Y-8012674D02*
X15291491Y-8003150D01*
X15291491Y-8003150D02*
X15320063Y-8003150D01*
X15320063Y-8003150D02*
X15339110Y-8012674D01*
X15339110Y-8012674D02*
X15348634Y-8031722D01*
X15348634Y-8031722D02*
X15348634Y-8136484D01*
X15348634Y-8031722D02*
X15358158Y-8012674D01*
X15358158Y-8012674D02*
X15377205Y-8003150D01*
X15377205Y-8003150D02*
X15405777Y-8003150D01*
X15405777Y-8003150D02*
X15424824Y-8012674D01*
X15424824Y-8012674D02*
X15434348Y-8031722D01*
X15434348Y-8031722D02*
X15434348Y-8136484D01*
X15529586Y-8136484D02*
X15529586Y-8003150D01*
X15529586Y-8022198D02*
X15539110Y-8012674D01*
X15539110Y-8012674D02*
X15558158Y-8003150D01*
X15558158Y-8003150D02*
X15586729Y-8003150D01*
X15586729Y-8003150D02*
X15605777Y-8012674D01*
X15605777Y-8012674D02*
X15615301Y-8031722D01*
X15615301Y-8031722D02*
X15615301Y-8136484D01*
X15615301Y-8031722D02*
X15624824Y-8012674D01*
X15624824Y-8012674D02*
X15643872Y-8003150D01*
X15643872Y-8003150D02*
X15672443Y-8003150D01*
X15672443Y-8003150D02*
X15691491Y-8012674D01*
X15691491Y-8012674D02*
X15701015Y-8031722D01*
X15701015Y-8031722D02*
X15701015Y-8136484D01*
X16091491Y-7926960D02*
X15920063Y-8184103D01*
X16348634Y-7936484D02*
X16367682Y-7936484D01*
X16367682Y-7936484D02*
X16386729Y-7946008D01*
X16386729Y-7946008D02*
X16396253Y-7955531D01*
X16396253Y-7955531D02*
X16405777Y-7974579D01*
X16405777Y-7974579D02*
X16415301Y-8012674D01*
X16415301Y-8012674D02*
X16415301Y-8060293D01*
X16415301Y-8060293D02*
X16405777Y-8098388D01*
X16405777Y-8098388D02*
X16396253Y-8117436D01*
X16396253Y-8117436D02*
X16386729Y-8126960D01*
X16386729Y-8126960D02*
X16367682Y-8136484D01*
X16367682Y-8136484D02*
X16348634Y-8136484D01*
X16348634Y-8136484D02*
X16329586Y-8126960D01*
X16329586Y-8126960D02*
X16320063Y-8117436D01*
X16320063Y-8117436D02*
X16310539Y-8098388D01*
X16310539Y-8098388D02*
X16301015Y-8060293D01*
X16301015Y-8060293D02*
X16301015Y-8012674D01*
X16301015Y-8012674D02*
X16310539Y-7974579D01*
X16310539Y-7974579D02*
X16320063Y-7955531D01*
X16320063Y-7955531D02*
X16329586Y-7946008D01*
X16329586Y-7946008D02*
X16348634Y-7936484D01*
X16501015Y-8117436D02*
X16510539Y-8126960D01*
X16510539Y-8126960D02*
X16501015Y-8136484D01*
X16501015Y-8136484D02*
X16491491Y-8126960D01*
X16491491Y-8126960D02*
X16501015Y-8117436D01*
X16501015Y-8117436D02*
X16501015Y-8136484D01*
X16634348Y-7936484D02*
X16653396Y-7936484D01*
X16653396Y-7936484D02*
X16672444Y-7946008D01*
X16672444Y-7946008D02*
X16681967Y-7955531D01*
X16681967Y-7955531D02*
X16691491Y-7974579D01*
X16691491Y-7974579D02*
X16701015Y-8012674D01*
X16701015Y-8012674D02*
X16701015Y-8060293D01*
X16701015Y-8060293D02*
X16691491Y-8098388D01*
X16691491Y-8098388D02*
X16681967Y-8117436D01*
X16681967Y-8117436D02*
X16672444Y-8126960D01*
X16672444Y-8126960D02*
X16653396Y-8136484D01*
X16653396Y-8136484D02*
X16634348Y-8136484D01*
X16634348Y-8136484D02*
X16615301Y-8126960D01*
X16615301Y-8126960D02*
X16605777Y-8117436D01*
X16605777Y-8117436D02*
X16596253Y-8098388D01*
X16596253Y-8098388D02*
X16586729Y-8060293D01*
X16586729Y-8060293D02*
X16586729Y-8012674D01*
X16586729Y-8012674D02*
X16596253Y-7974579D01*
X16596253Y-7974579D02*
X16605777Y-7955531D01*
X16605777Y-7955531D02*
X16615301Y-7946008D01*
X16615301Y-7946008D02*
X16634348Y-7936484D01*
X16824825Y-7936484D02*
X16843872Y-7936484D01*
X16843872Y-7936484D02*
X16862920Y-7946008D01*
X16862920Y-7946008D02*
X16872444Y-7955531D01*
X16872444Y-7955531D02*
X16881968Y-7974579D01*
X16881968Y-7974579D02*
X16891491Y-8012674D01*
X16891491Y-8012674D02*
X16891491Y-8060293D01*
X16891491Y-8060293D02*
X16881968Y-8098388D01*
X16881968Y-8098388D02*
X16872444Y-8117436D01*
X16872444Y-8117436D02*
X16862920Y-8126960D01*
X16862920Y-8126960D02*
X16843872Y-8136484D01*
X16843872Y-8136484D02*
X16824825Y-8136484D01*
X16824825Y-8136484D02*
X16805777Y-8126960D01*
X16805777Y-8126960D02*
X16796253Y-8117436D01*
X16796253Y-8117436D02*
X16786729Y-8098388D01*
X16786729Y-8098388D02*
X16777206Y-8060293D01*
X16777206Y-8060293D02*
X16777206Y-8012674D01*
X16777206Y-8012674D02*
X16786729Y-7974579D01*
X16786729Y-7974579D02*
X16796253Y-7955531D01*
X16796253Y-7955531D02*
X16805777Y-7946008D01*
X16805777Y-7946008D02*
X16824825Y-7936484D01*
X16958158Y-7936484D02*
X17091491Y-7936484D01*
X17091491Y-7936484D02*
X17005777Y-8136484D01*
X17177206Y-8136484D02*
X17215301Y-8136484D01*
X17215301Y-8136484D02*
X17234349Y-8126960D01*
X17234349Y-8126960D02*
X17243872Y-8117436D01*
X17243872Y-8117436D02*
X17262920Y-8088865D01*
X17262920Y-8088865D02*
X17272444Y-8050769D01*
X17272444Y-8050769D02*
X17272444Y-7974579D01*
X17272444Y-7974579D02*
X17262920Y-7955531D01*
X17262920Y-7955531D02*
X17253396Y-7946008D01*
X17253396Y-7946008D02*
X17234349Y-7936484D01*
X17234349Y-7936484D02*
X17196253Y-7936484D01*
X17196253Y-7936484D02*
X17177206Y-7946008D01*
X17177206Y-7946008D02*
X17167682Y-7955531D01*
X17167682Y-7955531D02*
X17158158Y-7974579D01*
X17158158Y-7974579D02*
X17158158Y-8022198D01*
X17158158Y-8022198D02*
X17167682Y-8041246D01*
X17167682Y-8041246D02*
X17177206Y-8050769D01*
X17177206Y-8050769D02*
X17196253Y-8060293D01*
X17196253Y-8060293D02*
X17234349Y-8060293D01*
X17234349Y-8060293D02*
X17253396Y-8050769D01*
X17253396Y-8050769D02*
X17262920Y-8041246D01*
X17262920Y-8041246D02*
X17272444Y-8022198D01*
X17348634Y-7936484D02*
X17348634Y-7974579D01*
X17424825Y-7936484D02*
X17424825Y-7974579D01*
X17720063Y-8212674D02*
X17710539Y-8203150D01*
X17710539Y-8203150D02*
X17691491Y-8174579D01*
X17691491Y-8174579D02*
X17681968Y-8155531D01*
X17681968Y-8155531D02*
X17672444Y-8126960D01*
X17672444Y-8126960D02*
X17662920Y-8079341D01*
X17662920Y-8079341D02*
X17662920Y-8041246D01*
X17662920Y-8041246D02*
X17672444Y-7993627D01*
X17672444Y-7993627D02*
X17681968Y-7965055D01*
X17681968Y-7965055D02*
X17691491Y-7946008D01*
X17691491Y-7946008D02*
X17710539Y-7917436D01*
X17710539Y-7917436D02*
X17720063Y-7907912D01*
X17777206Y-7936484D02*
X17901015Y-7936484D01*
X17901015Y-7936484D02*
X17834349Y-8012674D01*
X17834349Y-8012674D02*
X17862920Y-8012674D01*
X17862920Y-8012674D02*
X17881968Y-8022198D01*
X17881968Y-8022198D02*
X17891491Y-8031722D01*
X17891491Y-8031722D02*
X17901015Y-8050769D01*
X17901015Y-8050769D02*
X17901015Y-8098388D01*
X17901015Y-8098388D02*
X17891491Y-8117436D01*
X17891491Y-8117436D02*
X17881968Y-8126960D01*
X17881968Y-8126960D02*
X17862920Y-8136484D01*
X17862920Y-8136484D02*
X17805777Y-8136484D01*
X17805777Y-8136484D02*
X17786730Y-8126960D01*
X17786730Y-8126960D02*
X17777206Y-8117436D01*
X18015301Y-8022198D02*
X17996253Y-8012674D01*
X17996253Y-8012674D02*
X17986730Y-8003150D01*
X17986730Y-8003150D02*
X17977206Y-7984103D01*
X17977206Y-7984103D02*
X17977206Y-7974579D01*
X17977206Y-7974579D02*
X17986730Y-7955531D01*
X17986730Y-7955531D02*
X17996253Y-7946008D01*
X17996253Y-7946008D02*
X18015301Y-7936484D01*
X18015301Y-7936484D02*
X18053396Y-7936484D01*
X18053396Y-7936484D02*
X18072444Y-7946008D01*
X18072444Y-7946008D02*
X18081968Y-7955531D01*
X18081968Y-7955531D02*
X18091491Y-7974579D01*
X18091491Y-7974579D02*
X18091491Y-7984103D01*
X18091491Y-7984103D02*
X18081968Y-8003150D01*
X18081968Y-8003150D02*
X18072444Y-8012674D01*
X18072444Y-8012674D02*
X18053396Y-8022198D01*
X18053396Y-8022198D02*
X18015301Y-8022198D01*
X18015301Y-8022198D02*
X17996253Y-8031722D01*
X17996253Y-8031722D02*
X17986730Y-8041246D01*
X17986730Y-8041246D02*
X17977206Y-8060293D01*
X17977206Y-8060293D02*
X17977206Y-8098388D01*
X17977206Y-8098388D02*
X17986730Y-8117436D01*
X17986730Y-8117436D02*
X17996253Y-8126960D01*
X17996253Y-8126960D02*
X18015301Y-8136484D01*
X18015301Y-8136484D02*
X18053396Y-8136484D01*
X18053396Y-8136484D02*
X18072444Y-8126960D01*
X18072444Y-8126960D02*
X18081968Y-8117436D01*
X18081968Y-8117436D02*
X18091491Y-8098388D01*
X18091491Y-8098388D02*
X18091491Y-8060293D01*
X18091491Y-8060293D02*
X18081968Y-8041246D01*
X18081968Y-8041246D02*
X18072444Y-8031722D01*
X18072444Y-8031722D02*
X18053396Y-8022198D01*
X18329587Y-8136484D02*
X18329587Y-7936484D01*
X18415301Y-8136484D02*
X18415301Y-8031722D01*
X18415301Y-8031722D02*
X18405777Y-8012674D01*
X18405777Y-8012674D02*
X18386730Y-8003150D01*
X18386730Y-8003150D02*
X18358158Y-8003150D01*
X18358158Y-8003150D02*
X18339111Y-8012674D01*
X18339111Y-8012674D02*
X18329587Y-8022198D01*
X18539111Y-8136484D02*
X18520063Y-8126960D01*
X18520063Y-8126960D02*
X18510539Y-8117436D01*
X18510539Y-8117436D02*
X18501015Y-8098388D01*
X18501015Y-8098388D02*
X18501015Y-8041246D01*
X18501015Y-8041246D02*
X18510539Y-8022198D01*
X18510539Y-8022198D02*
X18520063Y-8012674D01*
X18520063Y-8012674D02*
X18539111Y-8003150D01*
X18539111Y-8003150D02*
X18567682Y-8003150D01*
X18567682Y-8003150D02*
X18586730Y-8012674D01*
X18586730Y-8012674D02*
X18596253Y-8022198D01*
X18596253Y-8022198D02*
X18605777Y-8041246D01*
X18605777Y-8041246D02*
X18605777Y-8098388D01*
X18605777Y-8098388D02*
X18596253Y-8117436D01*
X18596253Y-8117436D02*
X18586730Y-8126960D01*
X18586730Y-8126960D02*
X18567682Y-8136484D01*
X18567682Y-8136484D02*
X18539111Y-8136484D01*
X18720063Y-8136484D02*
X18701015Y-8126960D01*
X18701015Y-8126960D02*
X18691492Y-8107912D01*
X18691492Y-8107912D02*
X18691492Y-7936484D01*
X18872444Y-8126960D02*
X18853396Y-8136484D01*
X18853396Y-8136484D02*
X18815301Y-8136484D01*
X18815301Y-8136484D02*
X18796253Y-8126960D01*
X18796253Y-8126960D02*
X18786730Y-8107912D01*
X18786730Y-8107912D02*
X18786730Y-8031722D01*
X18786730Y-8031722D02*
X18796253Y-8012674D01*
X18796253Y-8012674D02*
X18815301Y-8003150D01*
X18815301Y-8003150D02*
X18853396Y-8003150D01*
X18853396Y-8003150D02*
X18872444Y-8012674D01*
X18872444Y-8012674D02*
X18881968Y-8031722D01*
X18881968Y-8031722D02*
X18881968Y-8050769D01*
X18881968Y-8050769D02*
X18786730Y-8069817D01*
X18958158Y-8126960D02*
X18977206Y-8136484D01*
X18977206Y-8136484D02*
X19015301Y-8136484D01*
X19015301Y-8136484D02*
X19034349Y-8126960D01*
X19034349Y-8126960D02*
X19043873Y-8107912D01*
X19043873Y-8107912D02*
X19043873Y-8098388D01*
X19043873Y-8098388D02*
X19034349Y-8079341D01*
X19034349Y-8079341D02*
X19015301Y-8069817D01*
X19015301Y-8069817D02*
X18986730Y-8069817D01*
X18986730Y-8069817D02*
X18967682Y-8060293D01*
X18967682Y-8060293D02*
X18958158Y-8041246D01*
X18958158Y-8041246D02*
X18958158Y-8031722D01*
X18958158Y-8031722D02*
X18967682Y-8012674D01*
X18967682Y-8012674D02*
X18986730Y-8003150D01*
X18986730Y-8003150D02*
X19015301Y-8003150D01*
X19015301Y-8003150D02*
X19034349Y-8012674D01*
X19110539Y-8212674D02*
X19120063Y-8203150D01*
X19120063Y-8203150D02*
X19139111Y-8174579D01*
X19139111Y-8174579D02*
X19148634Y-8155531D01*
X19148634Y-8155531D02*
X19158158Y-8126960D01*
X19158158Y-8126960D02*
X19167682Y-8079341D01*
X19167682Y-8079341D02*
X19167682Y-8041246D01*
X19167682Y-8041246D02*
X19158158Y-7993627D01*
X19158158Y-7993627D02*
X19148634Y-7965055D01*
X19148634Y-7965055D02*
X19139111Y-7946008D01*
X19139111Y-7946008D02*
X19120063Y-7917436D01*
X19120063Y-7917436D02*
X19110539Y-7907912D01*
D10*
X14145000Y-8309000D02*
G75*
G02*
X14115000Y-8309000I-15000J0D01*
G01*
X14115000Y-8309000D02*
G75*
G02*
X14145000Y-8309000I15000J0D01*
G01*
D11*
X14443872Y-8200484D02*
X14462920Y-8200484D01*
X14462920Y-8200484D02*
X14481967Y-8210008D01*
X14481967Y-8210008D02*
X14491491Y-8219531D01*
X14491491Y-8219531D02*
X14501015Y-8238579D01*
X14501015Y-8238579D02*
X14510539Y-8276674D01*
X14510539Y-8276674D02*
X14510539Y-8324293D01*
X14510539Y-8324293D02*
X14501015Y-8362388D01*
X14501015Y-8362388D02*
X14491491Y-8381436D01*
X14491491Y-8381436D02*
X14481967Y-8390960D01*
X14481967Y-8390960D02*
X14462920Y-8400484D01*
X14462920Y-8400484D02*
X14443872Y-8400484D01*
X14443872Y-8400484D02*
X14424824Y-8390960D01*
X14424824Y-8390960D02*
X14415301Y-8381436D01*
X14415301Y-8381436D02*
X14405777Y-8362388D01*
X14405777Y-8362388D02*
X14396253Y-8324293D01*
X14396253Y-8324293D02*
X14396253Y-8276674D01*
X14396253Y-8276674D02*
X14405777Y-8238579D01*
X14405777Y-8238579D02*
X14415301Y-8219531D01*
X14415301Y-8219531D02*
X14424824Y-8210008D01*
X14424824Y-8210008D02*
X14443872Y-8200484D01*
X14596253Y-8381436D02*
X14605777Y-8390960D01*
X14605777Y-8390960D02*
X14596253Y-8400484D01*
X14596253Y-8400484D02*
X14586729Y-8390960D01*
X14586729Y-8390960D02*
X14596253Y-8381436D01*
X14596253Y-8381436D02*
X14596253Y-8400484D01*
X14672443Y-8200484D02*
X14796253Y-8200484D01*
X14796253Y-8200484D02*
X14729586Y-8276674D01*
X14729586Y-8276674D02*
X14758158Y-8276674D01*
X14758158Y-8276674D02*
X14777205Y-8286198D01*
X14777205Y-8286198D02*
X14786729Y-8295722D01*
X14786729Y-8295722D02*
X14796253Y-8314769D01*
X14796253Y-8314769D02*
X14796253Y-8362388D01*
X14796253Y-8362388D02*
X14786729Y-8381436D01*
X14786729Y-8381436D02*
X14777205Y-8390960D01*
X14777205Y-8390960D02*
X14758158Y-8400484D01*
X14758158Y-8400484D02*
X14701015Y-8400484D01*
X14701015Y-8400484D02*
X14681967Y-8390960D01*
X14681967Y-8390960D02*
X14672443Y-8381436D01*
X14920062Y-8200484D02*
X14939110Y-8200484D01*
X14939110Y-8200484D02*
X14958158Y-8210008D01*
X14958158Y-8210008D02*
X14967682Y-8219531D01*
X14967682Y-8219531D02*
X14977205Y-8238579D01*
X14977205Y-8238579D02*
X14986729Y-8276674D01*
X14986729Y-8276674D02*
X14986729Y-8324293D01*
X14986729Y-8324293D02*
X14977205Y-8362388D01*
X14977205Y-8362388D02*
X14967682Y-8381436D01*
X14967682Y-8381436D02*
X14958158Y-8390960D01*
X14958158Y-8390960D02*
X14939110Y-8400484D01*
X14939110Y-8400484D02*
X14920062Y-8400484D01*
X14920062Y-8400484D02*
X14901015Y-8390960D01*
X14901015Y-8390960D02*
X14891491Y-8381436D01*
X14891491Y-8381436D02*
X14881967Y-8362388D01*
X14881967Y-8362388D02*
X14872443Y-8324293D01*
X14872443Y-8324293D02*
X14872443Y-8276674D01*
X14872443Y-8276674D02*
X14881967Y-8238579D01*
X14881967Y-8238579D02*
X14891491Y-8219531D01*
X14891491Y-8219531D02*
X14901015Y-8210008D01*
X14901015Y-8210008D02*
X14920062Y-8200484D01*
X15110539Y-8200484D02*
X15129586Y-8200484D01*
X15129586Y-8200484D02*
X15148634Y-8210008D01*
X15148634Y-8210008D02*
X15158158Y-8219531D01*
X15158158Y-8219531D02*
X15167682Y-8238579D01*
X15167682Y-8238579D02*
X15177205Y-8276674D01*
X15177205Y-8276674D02*
X15177205Y-8324293D01*
X15177205Y-8324293D02*
X15167682Y-8362388D01*
X15167682Y-8362388D02*
X15158158Y-8381436D01*
X15158158Y-8381436D02*
X15148634Y-8390960D01*
X15148634Y-8390960D02*
X15129586Y-8400484D01*
X15129586Y-8400484D02*
X15110539Y-8400484D01*
X15110539Y-8400484D02*
X15091491Y-8390960D01*
X15091491Y-8390960D02*
X15081967Y-8381436D01*
X15081967Y-8381436D02*
X15072443Y-8362388D01*
X15072443Y-8362388D02*
X15062920Y-8324293D01*
X15062920Y-8324293D02*
X15062920Y-8276674D01*
X15062920Y-8276674D02*
X15072443Y-8238579D01*
X15072443Y-8238579D02*
X15081967Y-8219531D01*
X15081967Y-8219531D02*
X15091491Y-8210008D01*
X15091491Y-8210008D02*
X15110539Y-8200484D01*
X15262920Y-8400484D02*
X15262920Y-8267150D01*
X15262920Y-8286198D02*
X15272443Y-8276674D01*
X15272443Y-8276674D02*
X15291491Y-8267150D01*
X15291491Y-8267150D02*
X15320063Y-8267150D01*
X15320063Y-8267150D02*
X15339110Y-8276674D01*
X15339110Y-8276674D02*
X15348634Y-8295722D01*
X15348634Y-8295722D02*
X15348634Y-8400484D01*
X15348634Y-8295722D02*
X15358158Y-8276674D01*
X15358158Y-8276674D02*
X15377205Y-8267150D01*
X15377205Y-8267150D02*
X15405777Y-8267150D01*
X15405777Y-8267150D02*
X15424824Y-8276674D01*
X15424824Y-8276674D02*
X15434348Y-8295722D01*
X15434348Y-8295722D02*
X15434348Y-8400484D01*
X15529586Y-8400484D02*
X15529586Y-8267150D01*
X15529586Y-8286198D02*
X15539110Y-8276674D01*
X15539110Y-8276674D02*
X15558158Y-8267150D01*
X15558158Y-8267150D02*
X15586729Y-8267150D01*
X15586729Y-8267150D02*
X15605777Y-8276674D01*
X15605777Y-8276674D02*
X15615301Y-8295722D01*
X15615301Y-8295722D02*
X15615301Y-8400484D01*
X15615301Y-8295722D02*
X15624824Y-8276674D01*
X15624824Y-8276674D02*
X15643872Y-8267150D01*
X15643872Y-8267150D02*
X15672443Y-8267150D01*
X15672443Y-8267150D02*
X15691491Y-8276674D01*
X15691491Y-8276674D02*
X15701015Y-8295722D01*
X15701015Y-8295722D02*
X15701015Y-8400484D01*
X16091491Y-8190960D02*
X15920063Y-8448103D01*
X16348634Y-8200484D02*
X16367682Y-8200484D01*
X16367682Y-8200484D02*
X16386729Y-8210008D01*
X16386729Y-8210008D02*
X16396253Y-8219531D01*
X16396253Y-8219531D02*
X16405777Y-8238579D01*
X16405777Y-8238579D02*
X16415301Y-8276674D01*
X16415301Y-8276674D02*
X16415301Y-8324293D01*
X16415301Y-8324293D02*
X16405777Y-8362388D01*
X16405777Y-8362388D02*
X16396253Y-8381436D01*
X16396253Y-8381436D02*
X16386729Y-8390960D01*
X16386729Y-8390960D02*
X16367682Y-8400484D01*
X16367682Y-8400484D02*
X16348634Y-8400484D01*
X16348634Y-8400484D02*
X16329586Y-8390960D01*
X16329586Y-8390960D02*
X16320063Y-8381436D01*
X16320063Y-8381436D02*
X16310539Y-8362388D01*
X16310539Y-8362388D02*
X16301015Y-8324293D01*
X16301015Y-8324293D02*
X16301015Y-8276674D01*
X16301015Y-8276674D02*
X16310539Y-8238579D01*
X16310539Y-8238579D02*
X16320063Y-8219531D01*
X16320063Y-8219531D02*
X16329586Y-8210008D01*
X16329586Y-8210008D02*
X16348634Y-8200484D01*
X16501015Y-8381436D02*
X16510539Y-8390960D01*
X16510539Y-8390960D02*
X16501015Y-8400484D01*
X16501015Y-8400484D02*
X16491491Y-8390960D01*
X16491491Y-8390960D02*
X16501015Y-8381436D01*
X16501015Y-8381436D02*
X16501015Y-8400484D01*
X16634348Y-8200484D02*
X16653396Y-8200484D01*
X16653396Y-8200484D02*
X16672444Y-8210008D01*
X16672444Y-8210008D02*
X16681967Y-8219531D01*
X16681967Y-8219531D02*
X16691491Y-8238579D01*
X16691491Y-8238579D02*
X16701015Y-8276674D01*
X16701015Y-8276674D02*
X16701015Y-8324293D01*
X16701015Y-8324293D02*
X16691491Y-8362388D01*
X16691491Y-8362388D02*
X16681967Y-8381436D01*
X16681967Y-8381436D02*
X16672444Y-8390960D01*
X16672444Y-8390960D02*
X16653396Y-8400484D01*
X16653396Y-8400484D02*
X16634348Y-8400484D01*
X16634348Y-8400484D02*
X16615301Y-8390960D01*
X16615301Y-8390960D02*
X16605777Y-8381436D01*
X16605777Y-8381436D02*
X16596253Y-8362388D01*
X16596253Y-8362388D02*
X16586729Y-8324293D01*
X16586729Y-8324293D02*
X16586729Y-8276674D01*
X16586729Y-8276674D02*
X16596253Y-8238579D01*
X16596253Y-8238579D02*
X16605777Y-8219531D01*
X16605777Y-8219531D02*
X16615301Y-8210008D01*
X16615301Y-8210008D02*
X16634348Y-8200484D01*
X16891491Y-8400484D02*
X16777206Y-8400484D01*
X16834348Y-8400484D02*
X16834348Y-8200484D01*
X16834348Y-8200484D02*
X16815301Y-8229055D01*
X16815301Y-8229055D02*
X16796253Y-8248103D01*
X16796253Y-8248103D02*
X16777206Y-8257627D01*
X17081968Y-8400484D02*
X16967682Y-8400484D01*
X17024825Y-8400484D02*
X17024825Y-8200484D01*
X17024825Y-8200484D02*
X17005777Y-8229055D01*
X17005777Y-8229055D02*
X16986729Y-8248103D01*
X16986729Y-8248103D02*
X16967682Y-8257627D01*
X17196253Y-8286198D02*
X17177206Y-8276674D01*
X17177206Y-8276674D02*
X17167682Y-8267150D01*
X17167682Y-8267150D02*
X17158158Y-8248103D01*
X17158158Y-8248103D02*
X17158158Y-8238579D01*
X17158158Y-8238579D02*
X17167682Y-8219531D01*
X17167682Y-8219531D02*
X17177206Y-8210008D01*
X17177206Y-8210008D02*
X17196253Y-8200484D01*
X17196253Y-8200484D02*
X17234349Y-8200484D01*
X17234349Y-8200484D02*
X17253396Y-8210008D01*
X17253396Y-8210008D02*
X17262920Y-8219531D01*
X17262920Y-8219531D02*
X17272444Y-8238579D01*
X17272444Y-8238579D02*
X17272444Y-8248103D01*
X17272444Y-8248103D02*
X17262920Y-8267150D01*
X17262920Y-8267150D02*
X17253396Y-8276674D01*
X17253396Y-8276674D02*
X17234349Y-8286198D01*
X17234349Y-8286198D02*
X17196253Y-8286198D01*
X17196253Y-8286198D02*
X17177206Y-8295722D01*
X17177206Y-8295722D02*
X17167682Y-8305246D01*
X17167682Y-8305246D02*
X17158158Y-8324293D01*
X17158158Y-8324293D02*
X17158158Y-8362388D01*
X17158158Y-8362388D02*
X17167682Y-8381436D01*
X17167682Y-8381436D02*
X17177206Y-8390960D01*
X17177206Y-8390960D02*
X17196253Y-8400484D01*
X17196253Y-8400484D02*
X17234349Y-8400484D01*
X17234349Y-8400484D02*
X17253396Y-8390960D01*
X17253396Y-8390960D02*
X17262920Y-8381436D01*
X17262920Y-8381436D02*
X17272444Y-8362388D01*
X17272444Y-8362388D02*
X17272444Y-8324293D01*
X17272444Y-8324293D02*
X17262920Y-8305246D01*
X17262920Y-8305246D02*
X17253396Y-8295722D01*
X17253396Y-8295722D02*
X17234349Y-8286198D01*
X17348634Y-8200484D02*
X17348634Y-8238579D01*
X17424825Y-8200484D02*
X17424825Y-8238579D01*
X17720063Y-8476674D02*
X17710539Y-8467150D01*
X17710539Y-8467150D02*
X17691491Y-8438579D01*
X17691491Y-8438579D02*
X17681968Y-8419531D01*
X17681968Y-8419531D02*
X17672444Y-8390960D01*
X17672444Y-8390960D02*
X17662920Y-8343341D01*
X17662920Y-8343341D02*
X17662920Y-8305246D01*
X17662920Y-8305246D02*
X17672444Y-8257627D01*
X17672444Y-8257627D02*
X17681968Y-8229055D01*
X17681968Y-8229055D02*
X17691491Y-8210008D01*
X17691491Y-8210008D02*
X17710539Y-8181436D01*
X17710539Y-8181436D02*
X17720063Y-8171912D01*
X17881968Y-8267150D02*
X17881968Y-8400484D01*
X17834349Y-8190960D02*
X17786730Y-8333817D01*
X17786730Y-8333817D02*
X17910539Y-8333817D01*
X18139111Y-8400484D02*
X18139111Y-8200484D01*
X18224825Y-8400484D02*
X18224825Y-8295722D01*
X18224825Y-8295722D02*
X18215301Y-8276674D01*
X18215301Y-8276674D02*
X18196253Y-8267150D01*
X18196253Y-8267150D02*
X18167682Y-8267150D01*
X18167682Y-8267150D02*
X18148634Y-8276674D01*
X18148634Y-8276674D02*
X18139111Y-8286198D01*
X18348634Y-8400484D02*
X18329587Y-8390960D01*
X18329587Y-8390960D02*
X18320063Y-8381436D01*
X18320063Y-8381436D02*
X18310539Y-8362388D01*
X18310539Y-8362388D02*
X18310539Y-8305246D01*
X18310539Y-8305246D02*
X18320063Y-8286198D01*
X18320063Y-8286198D02*
X18329587Y-8276674D01*
X18329587Y-8276674D02*
X18348634Y-8267150D01*
X18348634Y-8267150D02*
X18377206Y-8267150D01*
X18377206Y-8267150D02*
X18396253Y-8276674D01*
X18396253Y-8276674D02*
X18405777Y-8286198D01*
X18405777Y-8286198D02*
X18415301Y-8305246D01*
X18415301Y-8305246D02*
X18415301Y-8362388D01*
X18415301Y-8362388D02*
X18405777Y-8381436D01*
X18405777Y-8381436D02*
X18396253Y-8390960D01*
X18396253Y-8390960D02*
X18377206Y-8400484D01*
X18377206Y-8400484D02*
X18348634Y-8400484D01*
X18529587Y-8400484D02*
X18510539Y-8390960D01*
X18510539Y-8390960D02*
X18501015Y-8371912D01*
X18501015Y-8371912D02*
X18501015Y-8200484D01*
X18681968Y-8390960D02*
X18662920Y-8400484D01*
X18662920Y-8400484D02*
X18624825Y-8400484D01*
X18624825Y-8400484D02*
X18605777Y-8390960D01*
X18605777Y-8390960D02*
X18596253Y-8371912D01*
X18596253Y-8371912D02*
X18596253Y-8295722D01*
X18596253Y-8295722D02*
X18605777Y-8276674D01*
X18605777Y-8276674D02*
X18624825Y-8267150D01*
X18624825Y-8267150D02*
X18662920Y-8267150D01*
X18662920Y-8267150D02*
X18681968Y-8276674D01*
X18681968Y-8276674D02*
X18691492Y-8295722D01*
X18691492Y-8295722D02*
X18691492Y-8314769D01*
X18691492Y-8314769D02*
X18596253Y-8333817D01*
X18767682Y-8390960D02*
X18786730Y-8400484D01*
X18786730Y-8400484D02*
X18824825Y-8400484D01*
X18824825Y-8400484D02*
X18843873Y-8390960D01*
X18843873Y-8390960D02*
X18853396Y-8371912D01*
X18853396Y-8371912D02*
X18853396Y-8362388D01*
X18853396Y-8362388D02*
X18843873Y-8343341D01*
X18843873Y-8343341D02*
X18824825Y-8333817D01*
X18824825Y-8333817D02*
X18796253Y-8333817D01*
X18796253Y-8333817D02*
X18777206Y-8324293D01*
X18777206Y-8324293D02*
X18767682Y-8305246D01*
X18767682Y-8305246D02*
X18767682Y-8295722D01*
X18767682Y-8295722D02*
X18777206Y-8276674D01*
X18777206Y-8276674D02*
X18796253Y-8267150D01*
X18796253Y-8267150D02*
X18824825Y-8267150D01*
X18824825Y-8267150D02*
X18843873Y-8276674D01*
X18920063Y-8476674D02*
X18929587Y-8467150D01*
X18929587Y-8467150D02*
X18948634Y-8438579D01*
X18948634Y-8438579D02*
X18958158Y-8419531D01*
X18958158Y-8419531D02*
X18967682Y-8390960D01*
X18967682Y-8390960D02*
X18977206Y-8343341D01*
X18977206Y-8343341D02*
X18977206Y-8305246D01*
X18977206Y-8305246D02*
X18967682Y-8257627D01*
X18967682Y-8257627D02*
X18958158Y-8229055D01*
X18958158Y-8229055D02*
X18948634Y-8210008D01*
X18948634Y-8210008D02*
X18929587Y-8181436D01*
X18929587Y-8181436D02*
X18920063Y-8171912D01*
D10*
X14120000Y-8548000D02*
X14120000Y-8598000D01*
X14095000Y-8573000D02*
X14145000Y-8573000D01*
D11*
X14443872Y-8464484D02*
X14462920Y-8464484D01*
X14462920Y-8464484D02*
X14481967Y-8474008D01*
X14481967Y-8474008D02*
X14491491Y-8483531D01*
X14491491Y-8483531D02*
X14501015Y-8502579D01*
X14501015Y-8502579D02*
X14510539Y-8540674D01*
X14510539Y-8540674D02*
X14510539Y-8588293D01*
X14510539Y-8588293D02*
X14501015Y-8626389D01*
X14501015Y-8626389D02*
X14491491Y-8645436D01*
X14491491Y-8645436D02*
X14481967Y-8654960D01*
X14481967Y-8654960D02*
X14462920Y-8664484D01*
X14462920Y-8664484D02*
X14443872Y-8664484D01*
X14443872Y-8664484D02*
X14424824Y-8654960D01*
X14424824Y-8654960D02*
X14415301Y-8645436D01*
X14415301Y-8645436D02*
X14405777Y-8626389D01*
X14405777Y-8626389D02*
X14396253Y-8588293D01*
X14396253Y-8588293D02*
X14396253Y-8540674D01*
X14396253Y-8540674D02*
X14405777Y-8502579D01*
X14405777Y-8502579D02*
X14415301Y-8483531D01*
X14415301Y-8483531D02*
X14424824Y-8474008D01*
X14424824Y-8474008D02*
X14443872Y-8464484D01*
X14596253Y-8645436D02*
X14605777Y-8654960D01*
X14605777Y-8654960D02*
X14596253Y-8664484D01*
X14596253Y-8664484D02*
X14586729Y-8654960D01*
X14586729Y-8654960D02*
X14596253Y-8645436D01*
X14596253Y-8645436D02*
X14596253Y-8664484D01*
X14786729Y-8464484D02*
X14691491Y-8464484D01*
X14691491Y-8464484D02*
X14681967Y-8559722D01*
X14681967Y-8559722D02*
X14691491Y-8550198D01*
X14691491Y-8550198D02*
X14710539Y-8540674D01*
X14710539Y-8540674D02*
X14758158Y-8540674D01*
X14758158Y-8540674D02*
X14777205Y-8550198D01*
X14777205Y-8550198D02*
X14786729Y-8559722D01*
X14786729Y-8559722D02*
X14796253Y-8578770D01*
X14796253Y-8578770D02*
X14796253Y-8626389D01*
X14796253Y-8626389D02*
X14786729Y-8645436D01*
X14786729Y-8645436D02*
X14777205Y-8654960D01*
X14777205Y-8654960D02*
X14758158Y-8664484D01*
X14758158Y-8664484D02*
X14710539Y-8664484D01*
X14710539Y-8664484D02*
X14691491Y-8654960D01*
X14691491Y-8654960D02*
X14681967Y-8645436D01*
X14920062Y-8464484D02*
X14939110Y-8464484D01*
X14939110Y-8464484D02*
X14958158Y-8474008D01*
X14958158Y-8474008D02*
X14967682Y-8483531D01*
X14967682Y-8483531D02*
X14977205Y-8502579D01*
X14977205Y-8502579D02*
X14986729Y-8540674D01*
X14986729Y-8540674D02*
X14986729Y-8588293D01*
X14986729Y-8588293D02*
X14977205Y-8626389D01*
X14977205Y-8626389D02*
X14967682Y-8645436D01*
X14967682Y-8645436D02*
X14958158Y-8654960D01*
X14958158Y-8654960D02*
X14939110Y-8664484D01*
X14939110Y-8664484D02*
X14920062Y-8664484D01*
X14920062Y-8664484D02*
X14901015Y-8654960D01*
X14901015Y-8654960D02*
X14891491Y-8645436D01*
X14891491Y-8645436D02*
X14881967Y-8626389D01*
X14881967Y-8626389D02*
X14872443Y-8588293D01*
X14872443Y-8588293D02*
X14872443Y-8540674D01*
X14872443Y-8540674D02*
X14881967Y-8502579D01*
X14881967Y-8502579D02*
X14891491Y-8483531D01*
X14891491Y-8483531D02*
X14901015Y-8474008D01*
X14901015Y-8474008D02*
X14920062Y-8464484D01*
X15110539Y-8464484D02*
X15129586Y-8464484D01*
X15129586Y-8464484D02*
X15148634Y-8474008D01*
X15148634Y-8474008D02*
X15158158Y-8483531D01*
X15158158Y-8483531D02*
X15167682Y-8502579D01*
X15167682Y-8502579D02*
X15177205Y-8540674D01*
X15177205Y-8540674D02*
X15177205Y-8588293D01*
X15177205Y-8588293D02*
X15167682Y-8626389D01*
X15167682Y-8626389D02*
X15158158Y-8645436D01*
X15158158Y-8645436D02*
X15148634Y-8654960D01*
X15148634Y-8654960D02*
X15129586Y-8664484D01*
X15129586Y-8664484D02*
X15110539Y-8664484D01*
X15110539Y-8664484D02*
X15091491Y-8654960D01*
X15091491Y-8654960D02*
X15081967Y-8645436D01*
X15081967Y-8645436D02*
X15072443Y-8626389D01*
X15072443Y-8626389D02*
X15062920Y-8588293D01*
X15062920Y-8588293D02*
X15062920Y-8540674D01*
X15062920Y-8540674D02*
X15072443Y-8502579D01*
X15072443Y-8502579D02*
X15081967Y-8483531D01*
X15081967Y-8483531D02*
X15091491Y-8474008D01*
X15091491Y-8474008D02*
X15110539Y-8464484D01*
X15262920Y-8664484D02*
X15262920Y-8531150D01*
X15262920Y-8550198D02*
X15272443Y-8540674D01*
X15272443Y-8540674D02*
X15291491Y-8531150D01*
X15291491Y-8531150D02*
X15320063Y-8531150D01*
X15320063Y-8531150D02*
X15339110Y-8540674D01*
X15339110Y-8540674D02*
X15348634Y-8559722D01*
X15348634Y-8559722D02*
X15348634Y-8664484D01*
X15348634Y-8559722D02*
X15358158Y-8540674D01*
X15358158Y-8540674D02*
X15377205Y-8531150D01*
X15377205Y-8531150D02*
X15405777Y-8531150D01*
X15405777Y-8531150D02*
X15424824Y-8540674D01*
X15424824Y-8540674D02*
X15434348Y-8559722D01*
X15434348Y-8559722D02*
X15434348Y-8664484D01*
X15529586Y-8664484D02*
X15529586Y-8531150D01*
X15529586Y-8550198D02*
X15539110Y-8540674D01*
X15539110Y-8540674D02*
X15558158Y-8531150D01*
X15558158Y-8531150D02*
X15586729Y-8531150D01*
X15586729Y-8531150D02*
X15605777Y-8540674D01*
X15605777Y-8540674D02*
X15615301Y-8559722D01*
X15615301Y-8559722D02*
X15615301Y-8664484D01*
X15615301Y-8559722D02*
X15624824Y-8540674D01*
X15624824Y-8540674D02*
X15643872Y-8531150D01*
X15643872Y-8531150D02*
X15672443Y-8531150D01*
X15672443Y-8531150D02*
X15691491Y-8540674D01*
X15691491Y-8540674D02*
X15701015Y-8559722D01*
X15701015Y-8559722D02*
X15701015Y-8664484D01*
X16091491Y-8454960D02*
X15920063Y-8712103D01*
X16348634Y-8464484D02*
X16367682Y-8464484D01*
X16367682Y-8464484D02*
X16386729Y-8474008D01*
X16386729Y-8474008D02*
X16396253Y-8483531D01*
X16396253Y-8483531D02*
X16405777Y-8502579D01*
X16405777Y-8502579D02*
X16415301Y-8540674D01*
X16415301Y-8540674D02*
X16415301Y-8588293D01*
X16415301Y-8588293D02*
X16405777Y-8626389D01*
X16405777Y-8626389D02*
X16396253Y-8645436D01*
X16396253Y-8645436D02*
X16386729Y-8654960D01*
X16386729Y-8654960D02*
X16367682Y-8664484D01*
X16367682Y-8664484D02*
X16348634Y-8664484D01*
X16348634Y-8664484D02*
X16329586Y-8654960D01*
X16329586Y-8654960D02*
X16320063Y-8645436D01*
X16320063Y-8645436D02*
X16310539Y-8626389D01*
X16310539Y-8626389D02*
X16301015Y-8588293D01*
X16301015Y-8588293D02*
X16301015Y-8540674D01*
X16301015Y-8540674D02*
X16310539Y-8502579D01*
X16310539Y-8502579D02*
X16320063Y-8483531D01*
X16320063Y-8483531D02*
X16329586Y-8474008D01*
X16329586Y-8474008D02*
X16348634Y-8464484D01*
X16501015Y-8645436D02*
X16510539Y-8654960D01*
X16510539Y-8654960D02*
X16501015Y-8664484D01*
X16501015Y-8664484D02*
X16491491Y-8654960D01*
X16491491Y-8654960D02*
X16501015Y-8645436D01*
X16501015Y-8645436D02*
X16501015Y-8664484D01*
X16634348Y-8464484D02*
X16653396Y-8464484D01*
X16653396Y-8464484D02*
X16672444Y-8474008D01*
X16672444Y-8474008D02*
X16681967Y-8483531D01*
X16681967Y-8483531D02*
X16691491Y-8502579D01*
X16691491Y-8502579D02*
X16701015Y-8540674D01*
X16701015Y-8540674D02*
X16701015Y-8588293D01*
X16701015Y-8588293D02*
X16691491Y-8626389D01*
X16691491Y-8626389D02*
X16681967Y-8645436D01*
X16681967Y-8645436D02*
X16672444Y-8654960D01*
X16672444Y-8654960D02*
X16653396Y-8664484D01*
X16653396Y-8664484D02*
X16634348Y-8664484D01*
X16634348Y-8664484D02*
X16615301Y-8654960D01*
X16615301Y-8654960D02*
X16605777Y-8645436D01*
X16605777Y-8645436D02*
X16596253Y-8626389D01*
X16596253Y-8626389D02*
X16586729Y-8588293D01*
X16586729Y-8588293D02*
X16586729Y-8540674D01*
X16586729Y-8540674D02*
X16596253Y-8502579D01*
X16596253Y-8502579D02*
X16605777Y-8483531D01*
X16605777Y-8483531D02*
X16615301Y-8474008D01*
X16615301Y-8474008D02*
X16634348Y-8464484D01*
X16891491Y-8664484D02*
X16777206Y-8664484D01*
X16834348Y-8664484D02*
X16834348Y-8464484D01*
X16834348Y-8464484D02*
X16815301Y-8493055D01*
X16815301Y-8493055D02*
X16796253Y-8512103D01*
X16796253Y-8512103D02*
X16777206Y-8521627D01*
X16986729Y-8664484D02*
X17024825Y-8664484D01*
X17024825Y-8664484D02*
X17043872Y-8654960D01*
X17043872Y-8654960D02*
X17053396Y-8645436D01*
X17053396Y-8645436D02*
X17072444Y-8616865D01*
X17072444Y-8616865D02*
X17081968Y-8578770D01*
X17081968Y-8578770D02*
X17081968Y-8502579D01*
X17081968Y-8502579D02*
X17072444Y-8483531D01*
X17072444Y-8483531D02*
X17062920Y-8474008D01*
X17062920Y-8474008D02*
X17043872Y-8464484D01*
X17043872Y-8464484D02*
X17005777Y-8464484D01*
X17005777Y-8464484D02*
X16986729Y-8474008D01*
X16986729Y-8474008D02*
X16977206Y-8483531D01*
X16977206Y-8483531D02*
X16967682Y-8502579D01*
X16967682Y-8502579D02*
X16967682Y-8550198D01*
X16967682Y-8550198D02*
X16977206Y-8569246D01*
X16977206Y-8569246D02*
X16986729Y-8578770D01*
X16986729Y-8578770D02*
X17005777Y-8588293D01*
X17005777Y-8588293D02*
X17043872Y-8588293D01*
X17043872Y-8588293D02*
X17062920Y-8578770D01*
X17062920Y-8578770D02*
X17072444Y-8569246D01*
X17072444Y-8569246D02*
X17081968Y-8550198D01*
X17148634Y-8464484D02*
X17281968Y-8464484D01*
X17281968Y-8464484D02*
X17196253Y-8664484D01*
X17348634Y-8464484D02*
X17348634Y-8502579D01*
X17424825Y-8464484D02*
X17424825Y-8502579D01*
X17720063Y-8740674D02*
X17710539Y-8731150D01*
X17710539Y-8731150D02*
X17691491Y-8702579D01*
X17691491Y-8702579D02*
X17681968Y-8683531D01*
X17681968Y-8683531D02*
X17672444Y-8654960D01*
X17672444Y-8654960D02*
X17662920Y-8607341D01*
X17662920Y-8607341D02*
X17662920Y-8569246D01*
X17662920Y-8569246D02*
X17672444Y-8521627D01*
X17672444Y-8521627D02*
X17681968Y-8493055D01*
X17681968Y-8493055D02*
X17691491Y-8474008D01*
X17691491Y-8474008D02*
X17710539Y-8445436D01*
X17710539Y-8445436D02*
X17720063Y-8435912D01*
X17901015Y-8664484D02*
X17786730Y-8664484D01*
X17843872Y-8664484D02*
X17843872Y-8464484D01*
X17843872Y-8464484D02*
X17824825Y-8493055D01*
X17824825Y-8493055D02*
X17805777Y-8512103D01*
X17805777Y-8512103D02*
X17786730Y-8521627D01*
X18081968Y-8464484D02*
X17986730Y-8464484D01*
X17986730Y-8464484D02*
X17977206Y-8559722D01*
X17977206Y-8559722D02*
X17986730Y-8550198D01*
X17986730Y-8550198D02*
X18005777Y-8540674D01*
X18005777Y-8540674D02*
X18053396Y-8540674D01*
X18053396Y-8540674D02*
X18072444Y-8550198D01*
X18072444Y-8550198D02*
X18081968Y-8559722D01*
X18081968Y-8559722D02*
X18091491Y-8578770D01*
X18091491Y-8578770D02*
X18091491Y-8626389D01*
X18091491Y-8626389D02*
X18081968Y-8645436D01*
X18081968Y-8645436D02*
X18072444Y-8654960D01*
X18072444Y-8654960D02*
X18053396Y-8664484D01*
X18053396Y-8664484D02*
X18005777Y-8664484D01*
X18005777Y-8664484D02*
X17986730Y-8654960D01*
X17986730Y-8654960D02*
X17977206Y-8645436D01*
X18329587Y-8664484D02*
X18329587Y-8464484D01*
X18415301Y-8664484D02*
X18415301Y-8559722D01*
X18415301Y-8559722D02*
X18405777Y-8540674D01*
X18405777Y-8540674D02*
X18386730Y-8531150D01*
X18386730Y-8531150D02*
X18358158Y-8531150D01*
X18358158Y-8531150D02*
X18339111Y-8540674D01*
X18339111Y-8540674D02*
X18329587Y-8550198D01*
X18539111Y-8664484D02*
X18520063Y-8654960D01*
X18520063Y-8654960D02*
X18510539Y-8645436D01*
X18510539Y-8645436D02*
X18501015Y-8626389D01*
X18501015Y-8626389D02*
X18501015Y-8569246D01*
X18501015Y-8569246D02*
X18510539Y-8550198D01*
X18510539Y-8550198D02*
X18520063Y-8540674D01*
X18520063Y-8540674D02*
X18539111Y-8531150D01*
X18539111Y-8531150D02*
X18567682Y-8531150D01*
X18567682Y-8531150D02*
X18586730Y-8540674D01*
X18586730Y-8540674D02*
X18596253Y-8550198D01*
X18596253Y-8550198D02*
X18605777Y-8569246D01*
X18605777Y-8569246D02*
X18605777Y-8626389D01*
X18605777Y-8626389D02*
X18596253Y-8645436D01*
X18596253Y-8645436D02*
X18586730Y-8654960D01*
X18586730Y-8654960D02*
X18567682Y-8664484D01*
X18567682Y-8664484D02*
X18539111Y-8664484D01*
X18720063Y-8664484D02*
X18701015Y-8654960D01*
X18701015Y-8654960D02*
X18691492Y-8635912D01*
X18691492Y-8635912D02*
X18691492Y-8464484D01*
X18872444Y-8654960D02*
X18853396Y-8664484D01*
X18853396Y-8664484D02*
X18815301Y-8664484D01*
X18815301Y-8664484D02*
X18796253Y-8654960D01*
X18796253Y-8654960D02*
X18786730Y-8635912D01*
X18786730Y-8635912D02*
X18786730Y-8559722D01*
X18786730Y-8559722D02*
X18796253Y-8540674D01*
X18796253Y-8540674D02*
X18815301Y-8531150D01*
X18815301Y-8531150D02*
X18853396Y-8531150D01*
X18853396Y-8531150D02*
X18872444Y-8540674D01*
X18872444Y-8540674D02*
X18881968Y-8559722D01*
X18881968Y-8559722D02*
X18881968Y-8578770D01*
X18881968Y-8578770D02*
X18786730Y-8597817D01*
X18958158Y-8654960D02*
X18977206Y-8664484D01*
X18977206Y-8664484D02*
X19015301Y-8664484D01*
X19015301Y-8664484D02*
X19034349Y-8654960D01*
X19034349Y-8654960D02*
X19043873Y-8635912D01*
X19043873Y-8635912D02*
X19043873Y-8626389D01*
X19043873Y-8626389D02*
X19034349Y-8607341D01*
X19034349Y-8607341D02*
X19015301Y-8597817D01*
X19015301Y-8597817D02*
X18986730Y-8597817D01*
X18986730Y-8597817D02*
X18967682Y-8588293D01*
X18967682Y-8588293D02*
X18958158Y-8569246D01*
X18958158Y-8569246D02*
X18958158Y-8559722D01*
X18958158Y-8559722D02*
X18967682Y-8540674D01*
X18967682Y-8540674D02*
X18986730Y-8531150D01*
X18986730Y-8531150D02*
X19015301Y-8531150D01*
X19015301Y-8531150D02*
X19034349Y-8540674D01*
X19110539Y-8740674D02*
X19120063Y-8731150D01*
X19120063Y-8731150D02*
X19139111Y-8702579D01*
X19139111Y-8702579D02*
X19148634Y-8683531D01*
X19148634Y-8683531D02*
X19158158Y-8654960D01*
X19158158Y-8654960D02*
X19167682Y-8607341D01*
X19167682Y-8607341D02*
X19167682Y-8569246D01*
X19167682Y-8569246D02*
X19158158Y-8521627D01*
X19158158Y-8521627D02*
X19148634Y-8493055D01*
X19148634Y-8493055D02*
X19139111Y-8474008D01*
X19139111Y-8474008D02*
X19120063Y-8445436D01*
X19120063Y-8445436D02*
X19110539Y-8435912D01*
D10*
X14131088Y-8870588D02*
X14131088Y-8803412D01*
X14063912Y-8803412D01*
X14063912Y-8870588D01*
X14131088Y-8870588D01*
D11*
X14443872Y-8728484D02*
X14462920Y-8728484D01*
X14462920Y-8728484D02*
X14481967Y-8738008D01*
X14481967Y-8738008D02*
X14491491Y-8747531D01*
X14491491Y-8747531D02*
X14501015Y-8766579D01*
X14501015Y-8766579D02*
X14510539Y-8804674D01*
X14510539Y-8804674D02*
X14510539Y-8852293D01*
X14510539Y-8852293D02*
X14501015Y-8890389D01*
X14501015Y-8890389D02*
X14491491Y-8909436D01*
X14491491Y-8909436D02*
X14481967Y-8918960D01*
X14481967Y-8918960D02*
X14462920Y-8928484D01*
X14462920Y-8928484D02*
X14443872Y-8928484D01*
X14443872Y-8928484D02*
X14424824Y-8918960D01*
X14424824Y-8918960D02*
X14415301Y-8909436D01*
X14415301Y-8909436D02*
X14405777Y-8890389D01*
X14405777Y-8890389D02*
X14396253Y-8852293D01*
X14396253Y-8852293D02*
X14396253Y-8804674D01*
X14396253Y-8804674D02*
X14405777Y-8766579D01*
X14405777Y-8766579D02*
X14415301Y-8747531D01*
X14415301Y-8747531D02*
X14424824Y-8738008D01*
X14424824Y-8738008D02*
X14443872Y-8728484D01*
X14596253Y-8909436D02*
X14605777Y-8918960D01*
X14605777Y-8918960D02*
X14596253Y-8928484D01*
X14596253Y-8928484D02*
X14586729Y-8918960D01*
X14586729Y-8918960D02*
X14596253Y-8909436D01*
X14596253Y-8909436D02*
X14596253Y-8928484D01*
X14701015Y-8928484D02*
X14739110Y-8928484D01*
X14739110Y-8928484D02*
X14758158Y-8918960D01*
X14758158Y-8918960D02*
X14767682Y-8909436D01*
X14767682Y-8909436D02*
X14786729Y-8880865D01*
X14786729Y-8880865D02*
X14796253Y-8842770D01*
X14796253Y-8842770D02*
X14796253Y-8766579D01*
X14796253Y-8766579D02*
X14786729Y-8747531D01*
X14786729Y-8747531D02*
X14777205Y-8738008D01*
X14777205Y-8738008D02*
X14758158Y-8728484D01*
X14758158Y-8728484D02*
X14720062Y-8728484D01*
X14720062Y-8728484D02*
X14701015Y-8738008D01*
X14701015Y-8738008D02*
X14691491Y-8747531D01*
X14691491Y-8747531D02*
X14681967Y-8766579D01*
X14681967Y-8766579D02*
X14681967Y-8814198D01*
X14681967Y-8814198D02*
X14691491Y-8833246D01*
X14691491Y-8833246D02*
X14701015Y-8842770D01*
X14701015Y-8842770D02*
X14720062Y-8852293D01*
X14720062Y-8852293D02*
X14758158Y-8852293D01*
X14758158Y-8852293D02*
X14777205Y-8842770D01*
X14777205Y-8842770D02*
X14786729Y-8833246D01*
X14786729Y-8833246D02*
X14796253Y-8814198D01*
X14977205Y-8728484D02*
X14881967Y-8728484D01*
X14881967Y-8728484D02*
X14872443Y-8823722D01*
X14872443Y-8823722D02*
X14881967Y-8814198D01*
X14881967Y-8814198D02*
X14901015Y-8804674D01*
X14901015Y-8804674D02*
X14948634Y-8804674D01*
X14948634Y-8804674D02*
X14967682Y-8814198D01*
X14967682Y-8814198D02*
X14977205Y-8823722D01*
X14977205Y-8823722D02*
X14986729Y-8842770D01*
X14986729Y-8842770D02*
X14986729Y-8890389D01*
X14986729Y-8890389D02*
X14977205Y-8909436D01*
X14977205Y-8909436D02*
X14967682Y-8918960D01*
X14967682Y-8918960D02*
X14948634Y-8928484D01*
X14948634Y-8928484D02*
X14901015Y-8928484D01*
X14901015Y-8928484D02*
X14881967Y-8918960D01*
X14881967Y-8918960D02*
X14872443Y-8909436D01*
X15110539Y-8728484D02*
X15129586Y-8728484D01*
X15129586Y-8728484D02*
X15148634Y-8738008D01*
X15148634Y-8738008D02*
X15158158Y-8747531D01*
X15158158Y-8747531D02*
X15167682Y-8766579D01*
X15167682Y-8766579D02*
X15177205Y-8804674D01*
X15177205Y-8804674D02*
X15177205Y-8852293D01*
X15177205Y-8852293D02*
X15167682Y-8890389D01*
X15167682Y-8890389D02*
X15158158Y-8909436D01*
X15158158Y-8909436D02*
X15148634Y-8918960D01*
X15148634Y-8918960D02*
X15129586Y-8928484D01*
X15129586Y-8928484D02*
X15110539Y-8928484D01*
X15110539Y-8928484D02*
X15091491Y-8918960D01*
X15091491Y-8918960D02*
X15081967Y-8909436D01*
X15081967Y-8909436D02*
X15072443Y-8890389D01*
X15072443Y-8890389D02*
X15062920Y-8852293D01*
X15062920Y-8852293D02*
X15062920Y-8804674D01*
X15062920Y-8804674D02*
X15072443Y-8766579D01*
X15072443Y-8766579D02*
X15081967Y-8747531D01*
X15081967Y-8747531D02*
X15091491Y-8738008D01*
X15091491Y-8738008D02*
X15110539Y-8728484D01*
X15262920Y-8928484D02*
X15262920Y-8795150D01*
X15262920Y-8814198D02*
X15272443Y-8804674D01*
X15272443Y-8804674D02*
X15291491Y-8795150D01*
X15291491Y-8795150D02*
X15320063Y-8795150D01*
X15320063Y-8795150D02*
X15339110Y-8804674D01*
X15339110Y-8804674D02*
X15348634Y-8823722D01*
X15348634Y-8823722D02*
X15348634Y-8928484D01*
X15348634Y-8823722D02*
X15358158Y-8804674D01*
X15358158Y-8804674D02*
X15377205Y-8795150D01*
X15377205Y-8795150D02*
X15405777Y-8795150D01*
X15405777Y-8795150D02*
X15424824Y-8804674D01*
X15424824Y-8804674D02*
X15434348Y-8823722D01*
X15434348Y-8823722D02*
X15434348Y-8928484D01*
X15529586Y-8928484D02*
X15529586Y-8795150D01*
X15529586Y-8814198D02*
X15539110Y-8804674D01*
X15539110Y-8804674D02*
X15558158Y-8795150D01*
X15558158Y-8795150D02*
X15586729Y-8795150D01*
X15586729Y-8795150D02*
X15605777Y-8804674D01*
X15605777Y-8804674D02*
X15615301Y-8823722D01*
X15615301Y-8823722D02*
X15615301Y-8928484D01*
X15615301Y-8823722D02*
X15624824Y-8804674D01*
X15624824Y-8804674D02*
X15643872Y-8795150D01*
X15643872Y-8795150D02*
X15672443Y-8795150D01*
X15672443Y-8795150D02*
X15691491Y-8804674D01*
X15691491Y-8804674D02*
X15701015Y-8823722D01*
X15701015Y-8823722D02*
X15701015Y-8928484D01*
X16091491Y-8718960D02*
X15920063Y-8976103D01*
X16348634Y-8728484D02*
X16367682Y-8728484D01*
X16367682Y-8728484D02*
X16386729Y-8738008D01*
X16386729Y-8738008D02*
X16396253Y-8747531D01*
X16396253Y-8747531D02*
X16405777Y-8766579D01*
X16405777Y-8766579D02*
X16415301Y-8804674D01*
X16415301Y-8804674D02*
X16415301Y-8852293D01*
X16415301Y-8852293D02*
X16405777Y-8890389D01*
X16405777Y-8890389D02*
X16396253Y-8909436D01*
X16396253Y-8909436D02*
X16386729Y-8918960D01*
X16386729Y-8918960D02*
X16367682Y-8928484D01*
X16367682Y-8928484D02*
X16348634Y-8928484D01*
X16348634Y-8928484D02*
X16329586Y-8918960D01*
X16329586Y-8918960D02*
X16320063Y-8909436D01*
X16320063Y-8909436D02*
X16310539Y-8890389D01*
X16310539Y-8890389D02*
X16301015Y-8852293D01*
X16301015Y-8852293D02*
X16301015Y-8804674D01*
X16301015Y-8804674D02*
X16310539Y-8766579D01*
X16310539Y-8766579D02*
X16320063Y-8747531D01*
X16320063Y-8747531D02*
X16329586Y-8738008D01*
X16329586Y-8738008D02*
X16348634Y-8728484D01*
X16501015Y-8909436D02*
X16510539Y-8918960D01*
X16510539Y-8918960D02*
X16501015Y-8928484D01*
X16501015Y-8928484D02*
X16491491Y-8918960D01*
X16491491Y-8918960D02*
X16501015Y-8909436D01*
X16501015Y-8909436D02*
X16501015Y-8928484D01*
X16634348Y-8728484D02*
X16653396Y-8728484D01*
X16653396Y-8728484D02*
X16672444Y-8738008D01*
X16672444Y-8738008D02*
X16681967Y-8747531D01*
X16681967Y-8747531D02*
X16691491Y-8766579D01*
X16691491Y-8766579D02*
X16701015Y-8804674D01*
X16701015Y-8804674D02*
X16701015Y-8852293D01*
X16701015Y-8852293D02*
X16691491Y-8890389D01*
X16691491Y-8890389D02*
X16681967Y-8909436D01*
X16681967Y-8909436D02*
X16672444Y-8918960D01*
X16672444Y-8918960D02*
X16653396Y-8928484D01*
X16653396Y-8928484D02*
X16634348Y-8928484D01*
X16634348Y-8928484D02*
X16615301Y-8918960D01*
X16615301Y-8918960D02*
X16605777Y-8909436D01*
X16605777Y-8909436D02*
X16596253Y-8890389D01*
X16596253Y-8890389D02*
X16586729Y-8852293D01*
X16586729Y-8852293D02*
X16586729Y-8804674D01*
X16586729Y-8804674D02*
X16596253Y-8766579D01*
X16596253Y-8766579D02*
X16605777Y-8747531D01*
X16605777Y-8747531D02*
X16615301Y-8738008D01*
X16615301Y-8738008D02*
X16634348Y-8728484D01*
X16767682Y-8728484D02*
X16891491Y-8728484D01*
X16891491Y-8728484D02*
X16824825Y-8804674D01*
X16824825Y-8804674D02*
X16853396Y-8804674D01*
X16853396Y-8804674D02*
X16872444Y-8814198D01*
X16872444Y-8814198D02*
X16881968Y-8823722D01*
X16881968Y-8823722D02*
X16891491Y-8842770D01*
X16891491Y-8842770D02*
X16891491Y-8890389D01*
X16891491Y-8890389D02*
X16881968Y-8909436D01*
X16881968Y-8909436D02*
X16872444Y-8918960D01*
X16872444Y-8918960D02*
X16853396Y-8928484D01*
X16853396Y-8928484D02*
X16796253Y-8928484D01*
X16796253Y-8928484D02*
X16777206Y-8918960D01*
X16777206Y-8918960D02*
X16767682Y-8909436D01*
X16958158Y-8728484D02*
X17091491Y-8728484D01*
X17091491Y-8728484D02*
X17005777Y-8928484D01*
X17253396Y-8795150D02*
X17253396Y-8928484D01*
X17205777Y-8718960D02*
X17158158Y-8861817D01*
X17158158Y-8861817D02*
X17281968Y-8861817D01*
X17348634Y-8728484D02*
X17348634Y-8766579D01*
X17424825Y-8728484D02*
X17424825Y-8766579D01*
X17720063Y-9004674D02*
X17710539Y-8995150D01*
X17710539Y-8995150D02*
X17691491Y-8966579D01*
X17691491Y-8966579D02*
X17681968Y-8947531D01*
X17681968Y-8947531D02*
X17672444Y-8918960D01*
X17672444Y-8918960D02*
X17662920Y-8871341D01*
X17662920Y-8871341D02*
X17662920Y-8833246D01*
X17662920Y-8833246D02*
X17672444Y-8785627D01*
X17672444Y-8785627D02*
X17681968Y-8757055D01*
X17681968Y-8757055D02*
X17691491Y-8738008D01*
X17691491Y-8738008D02*
X17710539Y-8709436D01*
X17710539Y-8709436D02*
X17720063Y-8699912D01*
X17881968Y-8795150D02*
X17881968Y-8928484D01*
X17834349Y-8718960D02*
X17786730Y-8861817D01*
X17786730Y-8861817D02*
X17910539Y-8861817D01*
X18139111Y-8928484D02*
X18139111Y-8728484D01*
X18224825Y-8928484D02*
X18224825Y-8823722D01*
X18224825Y-8823722D02*
X18215301Y-8804674D01*
X18215301Y-8804674D02*
X18196253Y-8795150D01*
X18196253Y-8795150D02*
X18167682Y-8795150D01*
X18167682Y-8795150D02*
X18148634Y-8804674D01*
X18148634Y-8804674D02*
X18139111Y-8814198D01*
X18348634Y-8928484D02*
X18329587Y-8918960D01*
X18329587Y-8918960D02*
X18320063Y-8909436D01*
X18320063Y-8909436D02*
X18310539Y-8890389D01*
X18310539Y-8890389D02*
X18310539Y-8833246D01*
X18310539Y-8833246D02*
X18320063Y-8814198D01*
X18320063Y-8814198D02*
X18329587Y-8804674D01*
X18329587Y-8804674D02*
X18348634Y-8795150D01*
X18348634Y-8795150D02*
X18377206Y-8795150D01*
X18377206Y-8795150D02*
X18396253Y-8804674D01*
X18396253Y-8804674D02*
X18405777Y-8814198D01*
X18405777Y-8814198D02*
X18415301Y-8833246D01*
X18415301Y-8833246D02*
X18415301Y-8890389D01*
X18415301Y-8890389D02*
X18405777Y-8909436D01*
X18405777Y-8909436D02*
X18396253Y-8918960D01*
X18396253Y-8918960D02*
X18377206Y-8928484D01*
X18377206Y-8928484D02*
X18348634Y-8928484D01*
X18529587Y-8928484D02*
X18510539Y-8918960D01*
X18510539Y-8918960D02*
X18501015Y-8899912D01*
X18501015Y-8899912D02*
X18501015Y-8728484D01*
X18681968Y-8918960D02*
X18662920Y-8928484D01*
X18662920Y-8928484D02*
X18624825Y-8928484D01*
X18624825Y-8928484D02*
X18605777Y-8918960D01*
X18605777Y-8918960D02*
X18596253Y-8899912D01*
X18596253Y-8899912D02*
X18596253Y-8823722D01*
X18596253Y-8823722D02*
X18605777Y-8804674D01*
X18605777Y-8804674D02*
X18624825Y-8795150D01*
X18624825Y-8795150D02*
X18662920Y-8795150D01*
X18662920Y-8795150D02*
X18681968Y-8804674D01*
X18681968Y-8804674D02*
X18691492Y-8823722D01*
X18691492Y-8823722D02*
X18691492Y-8842770D01*
X18691492Y-8842770D02*
X18596253Y-8861817D01*
X18767682Y-8918960D02*
X18786730Y-8928484D01*
X18786730Y-8928484D02*
X18824825Y-8928484D01*
X18824825Y-8928484D02*
X18843873Y-8918960D01*
X18843873Y-8918960D02*
X18853396Y-8899912D01*
X18853396Y-8899912D02*
X18853396Y-8890389D01*
X18853396Y-8890389D02*
X18843873Y-8871341D01*
X18843873Y-8871341D02*
X18824825Y-8861817D01*
X18824825Y-8861817D02*
X18796253Y-8861817D01*
X18796253Y-8861817D02*
X18777206Y-8852293D01*
X18777206Y-8852293D02*
X18767682Y-8833246D01*
X18767682Y-8833246D02*
X18767682Y-8823722D01*
X18767682Y-8823722D02*
X18777206Y-8804674D01*
X18777206Y-8804674D02*
X18796253Y-8795150D01*
X18796253Y-8795150D02*
X18824825Y-8795150D01*
X18824825Y-8795150D02*
X18843873Y-8804674D01*
X18920063Y-9004674D02*
X18929587Y-8995150D01*
X18929587Y-8995150D02*
X18948634Y-8966579D01*
X18948634Y-8966579D02*
X18958158Y-8947531D01*
X18958158Y-8947531D02*
X18967682Y-8918960D01*
X18967682Y-8918960D02*
X18977206Y-8871341D01*
X18977206Y-8871341D02*
X18977206Y-8833246D01*
X18977206Y-8833246D02*
X18967682Y-8785627D01*
X18967682Y-8785627D02*
X18958158Y-8757055D01*
X18958158Y-8757055D02*
X18948634Y-8738008D01*
X18948634Y-8738008D02*
X18929587Y-8709436D01*
X18929587Y-8709436D02*
X18920063Y-8699912D01*
D10*
X14095000Y-9151000D02*
X14145000Y-9101000D01*
X14095000Y-9051000D01*
X14045000Y-9101000D01*
X14095000Y-9151000D01*
D11*
X14510539Y-9192484D02*
X14396253Y-9192484D01*
X14453396Y-9192484D02*
X14453396Y-8992484D01*
X14453396Y-8992484D02*
X14434348Y-9021055D01*
X14434348Y-9021055D02*
X14415301Y-9040103D01*
X14415301Y-9040103D02*
X14396253Y-9049627D01*
X14596253Y-9173436D02*
X14605777Y-9182960D01*
X14605777Y-9182960D02*
X14596253Y-9192484D01*
X14596253Y-9192484D02*
X14586729Y-9182960D01*
X14586729Y-9182960D02*
X14596253Y-9173436D01*
X14596253Y-9173436D02*
X14596253Y-9192484D01*
X14729586Y-8992484D02*
X14748634Y-8992484D01*
X14748634Y-8992484D02*
X14767682Y-9002008D01*
X14767682Y-9002008D02*
X14777205Y-9011531D01*
X14777205Y-9011531D02*
X14786729Y-9030579D01*
X14786729Y-9030579D02*
X14796253Y-9068674D01*
X14796253Y-9068674D02*
X14796253Y-9116293D01*
X14796253Y-9116293D02*
X14786729Y-9154389D01*
X14786729Y-9154389D02*
X14777205Y-9173436D01*
X14777205Y-9173436D02*
X14767682Y-9182960D01*
X14767682Y-9182960D02*
X14748634Y-9192484D01*
X14748634Y-9192484D02*
X14729586Y-9192484D01*
X14729586Y-9192484D02*
X14710539Y-9182960D01*
X14710539Y-9182960D02*
X14701015Y-9173436D01*
X14701015Y-9173436D02*
X14691491Y-9154389D01*
X14691491Y-9154389D02*
X14681967Y-9116293D01*
X14681967Y-9116293D02*
X14681967Y-9068674D01*
X14681967Y-9068674D02*
X14691491Y-9030579D01*
X14691491Y-9030579D02*
X14701015Y-9011531D01*
X14701015Y-9011531D02*
X14710539Y-9002008D01*
X14710539Y-9002008D02*
X14729586Y-8992484D01*
X14920062Y-8992484D02*
X14939110Y-8992484D01*
X14939110Y-8992484D02*
X14958158Y-9002008D01*
X14958158Y-9002008D02*
X14967682Y-9011531D01*
X14967682Y-9011531D02*
X14977205Y-9030579D01*
X14977205Y-9030579D02*
X14986729Y-9068674D01*
X14986729Y-9068674D02*
X14986729Y-9116293D01*
X14986729Y-9116293D02*
X14977205Y-9154389D01*
X14977205Y-9154389D02*
X14967682Y-9173436D01*
X14967682Y-9173436D02*
X14958158Y-9182960D01*
X14958158Y-9182960D02*
X14939110Y-9192484D01*
X14939110Y-9192484D02*
X14920062Y-9192484D01*
X14920062Y-9192484D02*
X14901015Y-9182960D01*
X14901015Y-9182960D02*
X14891491Y-9173436D01*
X14891491Y-9173436D02*
X14881967Y-9154389D01*
X14881967Y-9154389D02*
X14872443Y-9116293D01*
X14872443Y-9116293D02*
X14872443Y-9068674D01*
X14872443Y-9068674D02*
X14881967Y-9030579D01*
X14881967Y-9030579D02*
X14891491Y-9011531D01*
X14891491Y-9011531D02*
X14901015Y-9002008D01*
X14901015Y-9002008D02*
X14920062Y-8992484D01*
X15110539Y-8992484D02*
X15129586Y-8992484D01*
X15129586Y-8992484D02*
X15148634Y-9002008D01*
X15148634Y-9002008D02*
X15158158Y-9011531D01*
X15158158Y-9011531D02*
X15167682Y-9030579D01*
X15167682Y-9030579D02*
X15177205Y-9068674D01*
X15177205Y-9068674D02*
X15177205Y-9116293D01*
X15177205Y-9116293D02*
X15167682Y-9154389D01*
X15167682Y-9154389D02*
X15158158Y-9173436D01*
X15158158Y-9173436D02*
X15148634Y-9182960D01*
X15148634Y-9182960D02*
X15129586Y-9192484D01*
X15129586Y-9192484D02*
X15110539Y-9192484D01*
X15110539Y-9192484D02*
X15091491Y-9182960D01*
X15091491Y-9182960D02*
X15081967Y-9173436D01*
X15081967Y-9173436D02*
X15072443Y-9154389D01*
X15072443Y-9154389D02*
X15062920Y-9116293D01*
X15062920Y-9116293D02*
X15062920Y-9068674D01*
X15062920Y-9068674D02*
X15072443Y-9030579D01*
X15072443Y-9030579D02*
X15081967Y-9011531D01*
X15081967Y-9011531D02*
X15091491Y-9002008D01*
X15091491Y-9002008D02*
X15110539Y-8992484D01*
X15262920Y-9192484D02*
X15262920Y-9059150D01*
X15262920Y-9078198D02*
X15272443Y-9068674D01*
X15272443Y-9068674D02*
X15291491Y-9059150D01*
X15291491Y-9059150D02*
X15320063Y-9059150D01*
X15320063Y-9059150D02*
X15339110Y-9068674D01*
X15339110Y-9068674D02*
X15348634Y-9087722D01*
X15348634Y-9087722D02*
X15348634Y-9192484D01*
X15348634Y-9087722D02*
X15358158Y-9068674D01*
X15358158Y-9068674D02*
X15377205Y-9059150D01*
X15377205Y-9059150D02*
X15405777Y-9059150D01*
X15405777Y-9059150D02*
X15424824Y-9068674D01*
X15424824Y-9068674D02*
X15434348Y-9087722D01*
X15434348Y-9087722D02*
X15434348Y-9192484D01*
X15529586Y-9192484D02*
X15529586Y-9059150D01*
X15529586Y-9078198D02*
X15539110Y-9068674D01*
X15539110Y-9068674D02*
X15558158Y-9059150D01*
X15558158Y-9059150D02*
X15586729Y-9059150D01*
X15586729Y-9059150D02*
X15605777Y-9068674D01*
X15605777Y-9068674D02*
X15615301Y-9087722D01*
X15615301Y-9087722D02*
X15615301Y-9192484D01*
X15615301Y-9087722D02*
X15624824Y-9068674D01*
X15624824Y-9068674D02*
X15643872Y-9059150D01*
X15643872Y-9059150D02*
X15672443Y-9059150D01*
X15672443Y-9059150D02*
X15691491Y-9068674D01*
X15691491Y-9068674D02*
X15701015Y-9087722D01*
X15701015Y-9087722D02*
X15701015Y-9192484D01*
X16091491Y-8982960D02*
X15920063Y-9240103D01*
X16348634Y-8992484D02*
X16367682Y-8992484D01*
X16367682Y-8992484D02*
X16386729Y-9002008D01*
X16386729Y-9002008D02*
X16396253Y-9011531D01*
X16396253Y-9011531D02*
X16405777Y-9030579D01*
X16405777Y-9030579D02*
X16415301Y-9068674D01*
X16415301Y-9068674D02*
X16415301Y-9116293D01*
X16415301Y-9116293D02*
X16405777Y-9154389D01*
X16405777Y-9154389D02*
X16396253Y-9173436D01*
X16396253Y-9173436D02*
X16386729Y-9182960D01*
X16386729Y-9182960D02*
X16367682Y-9192484D01*
X16367682Y-9192484D02*
X16348634Y-9192484D01*
X16348634Y-9192484D02*
X16329586Y-9182960D01*
X16329586Y-9182960D02*
X16320063Y-9173436D01*
X16320063Y-9173436D02*
X16310539Y-9154389D01*
X16310539Y-9154389D02*
X16301015Y-9116293D01*
X16301015Y-9116293D02*
X16301015Y-9068674D01*
X16301015Y-9068674D02*
X16310539Y-9030579D01*
X16310539Y-9030579D02*
X16320063Y-9011531D01*
X16320063Y-9011531D02*
X16329586Y-9002008D01*
X16329586Y-9002008D02*
X16348634Y-8992484D01*
X16501015Y-9173436D02*
X16510539Y-9182960D01*
X16510539Y-9182960D02*
X16501015Y-9192484D01*
X16501015Y-9192484D02*
X16491491Y-9182960D01*
X16491491Y-9182960D02*
X16501015Y-9173436D01*
X16501015Y-9173436D02*
X16501015Y-9192484D01*
X16634348Y-8992484D02*
X16653396Y-8992484D01*
X16653396Y-8992484D02*
X16672444Y-9002008D01*
X16672444Y-9002008D02*
X16681967Y-9011531D01*
X16681967Y-9011531D02*
X16691491Y-9030579D01*
X16691491Y-9030579D02*
X16701015Y-9068674D01*
X16701015Y-9068674D02*
X16701015Y-9116293D01*
X16701015Y-9116293D02*
X16691491Y-9154389D01*
X16691491Y-9154389D02*
X16681967Y-9173436D01*
X16681967Y-9173436D02*
X16672444Y-9182960D01*
X16672444Y-9182960D02*
X16653396Y-9192484D01*
X16653396Y-9192484D02*
X16634348Y-9192484D01*
X16634348Y-9192484D02*
X16615301Y-9182960D01*
X16615301Y-9182960D02*
X16605777Y-9173436D01*
X16605777Y-9173436D02*
X16596253Y-9154389D01*
X16596253Y-9154389D02*
X16586729Y-9116293D01*
X16586729Y-9116293D02*
X16586729Y-9068674D01*
X16586729Y-9068674D02*
X16596253Y-9030579D01*
X16596253Y-9030579D02*
X16605777Y-9011531D01*
X16605777Y-9011531D02*
X16615301Y-9002008D01*
X16615301Y-9002008D02*
X16634348Y-8992484D01*
X16767682Y-8992484D02*
X16891491Y-8992484D01*
X16891491Y-8992484D02*
X16824825Y-9068674D01*
X16824825Y-9068674D02*
X16853396Y-9068674D01*
X16853396Y-9068674D02*
X16872444Y-9078198D01*
X16872444Y-9078198D02*
X16881968Y-9087722D01*
X16881968Y-9087722D02*
X16891491Y-9106770D01*
X16891491Y-9106770D02*
X16891491Y-9154389D01*
X16891491Y-9154389D02*
X16881968Y-9173436D01*
X16881968Y-9173436D02*
X16872444Y-9182960D01*
X16872444Y-9182960D02*
X16853396Y-9192484D01*
X16853396Y-9192484D02*
X16796253Y-9192484D01*
X16796253Y-9192484D02*
X16777206Y-9182960D01*
X16777206Y-9182960D02*
X16767682Y-9173436D01*
X16986729Y-9192484D02*
X17024825Y-9192484D01*
X17024825Y-9192484D02*
X17043872Y-9182960D01*
X17043872Y-9182960D02*
X17053396Y-9173436D01*
X17053396Y-9173436D02*
X17072444Y-9144865D01*
X17072444Y-9144865D02*
X17081968Y-9106770D01*
X17081968Y-9106770D02*
X17081968Y-9030579D01*
X17081968Y-9030579D02*
X17072444Y-9011531D01*
X17072444Y-9011531D02*
X17062920Y-9002008D01*
X17062920Y-9002008D02*
X17043872Y-8992484D01*
X17043872Y-8992484D02*
X17005777Y-8992484D01*
X17005777Y-8992484D02*
X16986729Y-9002008D01*
X16986729Y-9002008D02*
X16977206Y-9011531D01*
X16977206Y-9011531D02*
X16967682Y-9030579D01*
X16967682Y-9030579D02*
X16967682Y-9078198D01*
X16967682Y-9078198D02*
X16977206Y-9097246D01*
X16977206Y-9097246D02*
X16986729Y-9106770D01*
X16986729Y-9106770D02*
X17005777Y-9116293D01*
X17005777Y-9116293D02*
X17043872Y-9116293D01*
X17043872Y-9116293D02*
X17062920Y-9106770D01*
X17062920Y-9106770D02*
X17072444Y-9097246D01*
X17072444Y-9097246D02*
X17081968Y-9078198D01*
X17253396Y-9059150D02*
X17253396Y-9192484D01*
X17205777Y-8982960D02*
X17158158Y-9125817D01*
X17158158Y-9125817D02*
X17281968Y-9125817D01*
X17348634Y-8992484D02*
X17348634Y-9030579D01*
X17424825Y-8992484D02*
X17424825Y-9030579D01*
X17720063Y-9268674D02*
X17710539Y-9259150D01*
X17710539Y-9259150D02*
X17691491Y-9230579D01*
X17691491Y-9230579D02*
X17681968Y-9211531D01*
X17681968Y-9211531D02*
X17672444Y-9182960D01*
X17672444Y-9182960D02*
X17662920Y-9135341D01*
X17662920Y-9135341D02*
X17662920Y-9097246D01*
X17662920Y-9097246D02*
X17672444Y-9049627D01*
X17672444Y-9049627D02*
X17681968Y-9021055D01*
X17681968Y-9021055D02*
X17691491Y-9002008D01*
X17691491Y-9002008D02*
X17710539Y-8973436D01*
X17710539Y-8973436D02*
X17720063Y-8963912D01*
X17901015Y-9192484D02*
X17786730Y-9192484D01*
X17843872Y-9192484D02*
X17843872Y-8992484D01*
X17843872Y-8992484D02*
X17824825Y-9021055D01*
X17824825Y-9021055D02*
X17805777Y-9040103D01*
X17805777Y-9040103D02*
X17786730Y-9049627D01*
X18091491Y-9192484D02*
X17977206Y-9192484D01*
X18034349Y-9192484D02*
X18034349Y-8992484D01*
X18034349Y-8992484D02*
X18015301Y-9021055D01*
X18015301Y-9021055D02*
X17996253Y-9040103D01*
X17996253Y-9040103D02*
X17977206Y-9049627D01*
X18329587Y-9192484D02*
X18329587Y-8992484D01*
X18415301Y-9192484D02*
X18415301Y-9087722D01*
X18415301Y-9087722D02*
X18405777Y-9068674D01*
X18405777Y-9068674D02*
X18386730Y-9059150D01*
X18386730Y-9059150D02*
X18358158Y-9059150D01*
X18358158Y-9059150D02*
X18339111Y-9068674D01*
X18339111Y-9068674D02*
X18329587Y-9078198D01*
X18539111Y-9192484D02*
X18520063Y-9182960D01*
X18520063Y-9182960D02*
X18510539Y-9173436D01*
X18510539Y-9173436D02*
X18501015Y-9154389D01*
X18501015Y-9154389D02*
X18501015Y-9097246D01*
X18501015Y-9097246D02*
X18510539Y-9078198D01*
X18510539Y-9078198D02*
X18520063Y-9068674D01*
X18520063Y-9068674D02*
X18539111Y-9059150D01*
X18539111Y-9059150D02*
X18567682Y-9059150D01*
X18567682Y-9059150D02*
X18586730Y-9068674D01*
X18586730Y-9068674D02*
X18596253Y-9078198D01*
X18596253Y-9078198D02*
X18605777Y-9097246D01*
X18605777Y-9097246D02*
X18605777Y-9154389D01*
X18605777Y-9154389D02*
X18596253Y-9173436D01*
X18596253Y-9173436D02*
X18586730Y-9182960D01*
X18586730Y-9182960D02*
X18567682Y-9192484D01*
X18567682Y-9192484D02*
X18539111Y-9192484D01*
X18720063Y-9192484D02*
X18701015Y-9182960D01*
X18701015Y-9182960D02*
X18691492Y-9163912D01*
X18691492Y-9163912D02*
X18691492Y-8992484D01*
X18872444Y-9182960D02*
X18853396Y-9192484D01*
X18853396Y-9192484D02*
X18815301Y-9192484D01*
X18815301Y-9192484D02*
X18796253Y-9182960D01*
X18796253Y-9182960D02*
X18786730Y-9163912D01*
X18786730Y-9163912D02*
X18786730Y-9087722D01*
X18786730Y-9087722D02*
X18796253Y-9068674D01*
X18796253Y-9068674D02*
X18815301Y-9059150D01*
X18815301Y-9059150D02*
X18853396Y-9059150D01*
X18853396Y-9059150D02*
X18872444Y-9068674D01*
X18872444Y-9068674D02*
X18881968Y-9087722D01*
X18881968Y-9087722D02*
X18881968Y-9106770D01*
X18881968Y-9106770D02*
X18786730Y-9125817D01*
X18958158Y-9182960D02*
X18977206Y-9192484D01*
X18977206Y-9192484D02*
X19015301Y-9192484D01*
X19015301Y-9192484D02*
X19034349Y-9182960D01*
X19034349Y-9182960D02*
X19043873Y-9163912D01*
X19043873Y-9163912D02*
X19043873Y-9154389D01*
X19043873Y-9154389D02*
X19034349Y-9135341D01*
X19034349Y-9135341D02*
X19015301Y-9125817D01*
X19015301Y-9125817D02*
X18986730Y-9125817D01*
X18986730Y-9125817D02*
X18967682Y-9116293D01*
X18967682Y-9116293D02*
X18958158Y-9097246D01*
X18958158Y-9097246D02*
X18958158Y-9087722D01*
X18958158Y-9087722D02*
X18967682Y-9068674D01*
X18967682Y-9068674D02*
X18986730Y-9059150D01*
X18986730Y-9059150D02*
X19015301Y-9059150D01*
X19015301Y-9059150D02*
X19034349Y-9068674D01*
X19110539Y-9268674D02*
X19120063Y-9259150D01*
X19120063Y-9259150D02*
X19139111Y-9230579D01*
X19139111Y-9230579D02*
X19148634Y-9211531D01*
X19148634Y-9211531D02*
X19158158Y-9182960D01*
X19158158Y-9182960D02*
X19167682Y-9135341D01*
X19167682Y-9135341D02*
X19167682Y-9097246D01*
X19167682Y-9097246D02*
X19158158Y-9049627D01*
X19158158Y-9049627D02*
X19148634Y-9021055D01*
X19148634Y-9021055D02*
X19139111Y-9002008D01*
X19139111Y-9002008D02*
X19120063Y-8973436D01*
X19120063Y-8973436D02*
X19110539Y-8963912D01*
D12*
X14015000Y-9300000D02*
X14145000Y-9430000D01*
X14145000Y-9300000D02*
X14015000Y-9430000D01*
X14145000Y-9365000D02*
G75*
G02*
X14015000Y-9365000I-65000J0D01*
G01*
X14015000Y-9365000D02*
G75*
G02*
X14145000Y-9365000I65000J0D01*
G01*
D11*
X14510539Y-9456484D02*
X14396253Y-9456484D01*
X14453396Y-9456484D02*
X14453396Y-9256484D01*
X14453396Y-9256484D02*
X14434348Y-9285055D01*
X14434348Y-9285055D02*
X14415301Y-9304103D01*
X14415301Y-9304103D02*
X14396253Y-9313627D01*
X14596253Y-9437436D02*
X14605777Y-9446960D01*
X14605777Y-9446960D02*
X14596253Y-9456484D01*
X14596253Y-9456484D02*
X14586729Y-9446960D01*
X14586729Y-9446960D02*
X14596253Y-9437436D01*
X14596253Y-9437436D02*
X14596253Y-9456484D01*
X14672443Y-9256484D02*
X14796253Y-9256484D01*
X14796253Y-9256484D02*
X14729586Y-9332674D01*
X14729586Y-9332674D02*
X14758158Y-9332674D01*
X14758158Y-9332674D02*
X14777205Y-9342198D01*
X14777205Y-9342198D02*
X14786729Y-9351722D01*
X14786729Y-9351722D02*
X14796253Y-9370770D01*
X14796253Y-9370770D02*
X14796253Y-9418389D01*
X14796253Y-9418389D02*
X14786729Y-9437436D01*
X14786729Y-9437436D02*
X14777205Y-9446960D01*
X14777205Y-9446960D02*
X14758158Y-9456484D01*
X14758158Y-9456484D02*
X14701015Y-9456484D01*
X14701015Y-9456484D02*
X14681967Y-9446960D01*
X14681967Y-9446960D02*
X14672443Y-9437436D01*
X14920062Y-9256484D02*
X14939110Y-9256484D01*
X14939110Y-9256484D02*
X14958158Y-9266008D01*
X14958158Y-9266008D02*
X14967682Y-9275531D01*
X14967682Y-9275531D02*
X14977205Y-9294579D01*
X14977205Y-9294579D02*
X14986729Y-9332674D01*
X14986729Y-9332674D02*
X14986729Y-9380293D01*
X14986729Y-9380293D02*
X14977205Y-9418389D01*
X14977205Y-9418389D02*
X14967682Y-9437436D01*
X14967682Y-9437436D02*
X14958158Y-9446960D01*
X14958158Y-9446960D02*
X14939110Y-9456484D01*
X14939110Y-9456484D02*
X14920062Y-9456484D01*
X14920062Y-9456484D02*
X14901015Y-9446960D01*
X14901015Y-9446960D02*
X14891491Y-9437436D01*
X14891491Y-9437436D02*
X14881967Y-9418389D01*
X14881967Y-9418389D02*
X14872443Y-9380293D01*
X14872443Y-9380293D02*
X14872443Y-9332674D01*
X14872443Y-9332674D02*
X14881967Y-9294579D01*
X14881967Y-9294579D02*
X14891491Y-9275531D01*
X14891491Y-9275531D02*
X14901015Y-9266008D01*
X14901015Y-9266008D02*
X14920062Y-9256484D01*
X15110539Y-9256484D02*
X15129586Y-9256484D01*
X15129586Y-9256484D02*
X15148634Y-9266008D01*
X15148634Y-9266008D02*
X15158158Y-9275531D01*
X15158158Y-9275531D02*
X15167682Y-9294579D01*
X15167682Y-9294579D02*
X15177205Y-9332674D01*
X15177205Y-9332674D02*
X15177205Y-9380293D01*
X15177205Y-9380293D02*
X15167682Y-9418389D01*
X15167682Y-9418389D02*
X15158158Y-9437436D01*
X15158158Y-9437436D02*
X15148634Y-9446960D01*
X15148634Y-9446960D02*
X15129586Y-9456484D01*
X15129586Y-9456484D02*
X15110539Y-9456484D01*
X15110539Y-9456484D02*
X15091491Y-9446960D01*
X15091491Y-9446960D02*
X15081967Y-9437436D01*
X15081967Y-9437436D02*
X15072443Y-9418389D01*
X15072443Y-9418389D02*
X15062920Y-9380293D01*
X15062920Y-9380293D02*
X15062920Y-9332674D01*
X15062920Y-9332674D02*
X15072443Y-9294579D01*
X15072443Y-9294579D02*
X15081967Y-9275531D01*
X15081967Y-9275531D02*
X15091491Y-9266008D01*
X15091491Y-9266008D02*
X15110539Y-9256484D01*
X15262920Y-9456484D02*
X15262920Y-9323150D01*
X15262920Y-9342198D02*
X15272443Y-9332674D01*
X15272443Y-9332674D02*
X15291491Y-9323150D01*
X15291491Y-9323150D02*
X15320063Y-9323150D01*
X15320063Y-9323150D02*
X15339110Y-9332674D01*
X15339110Y-9332674D02*
X15348634Y-9351722D01*
X15348634Y-9351722D02*
X15348634Y-9456484D01*
X15348634Y-9351722D02*
X15358158Y-9332674D01*
X15358158Y-9332674D02*
X15377205Y-9323150D01*
X15377205Y-9323150D02*
X15405777Y-9323150D01*
X15405777Y-9323150D02*
X15424824Y-9332674D01*
X15424824Y-9332674D02*
X15434348Y-9351722D01*
X15434348Y-9351722D02*
X15434348Y-9456484D01*
X15529586Y-9456484D02*
X15529586Y-9323150D01*
X15529586Y-9342198D02*
X15539110Y-9332674D01*
X15539110Y-9332674D02*
X15558158Y-9323150D01*
X15558158Y-9323150D02*
X15586729Y-9323150D01*
X15586729Y-9323150D02*
X15605777Y-9332674D01*
X15605777Y-9332674D02*
X15615301Y-9351722D01*
X15615301Y-9351722D02*
X15615301Y-9456484D01*
X15615301Y-9351722D02*
X15624824Y-9332674D01*
X15624824Y-9332674D02*
X15643872Y-9323150D01*
X15643872Y-9323150D02*
X15672443Y-9323150D01*
X15672443Y-9323150D02*
X15691491Y-9332674D01*
X15691491Y-9332674D02*
X15701015Y-9351722D01*
X15701015Y-9351722D02*
X15701015Y-9456484D01*
X16091491Y-9246960D02*
X15920063Y-9504103D01*
X16348634Y-9256484D02*
X16367682Y-9256484D01*
X16367682Y-9256484D02*
X16386729Y-9266008D01*
X16386729Y-9266008D02*
X16396253Y-9275531D01*
X16396253Y-9275531D02*
X16405777Y-9294579D01*
X16405777Y-9294579D02*
X16415301Y-9332674D01*
X16415301Y-9332674D02*
X16415301Y-9380293D01*
X16415301Y-9380293D02*
X16405777Y-9418389D01*
X16405777Y-9418389D02*
X16396253Y-9437436D01*
X16396253Y-9437436D02*
X16386729Y-9446960D01*
X16386729Y-9446960D02*
X16367682Y-9456484D01*
X16367682Y-9456484D02*
X16348634Y-9456484D01*
X16348634Y-9456484D02*
X16329586Y-9446960D01*
X16329586Y-9446960D02*
X16320063Y-9437436D01*
X16320063Y-9437436D02*
X16310539Y-9418389D01*
X16310539Y-9418389D02*
X16301015Y-9380293D01*
X16301015Y-9380293D02*
X16301015Y-9332674D01*
X16301015Y-9332674D02*
X16310539Y-9294579D01*
X16310539Y-9294579D02*
X16320063Y-9275531D01*
X16320063Y-9275531D02*
X16329586Y-9266008D01*
X16329586Y-9266008D02*
X16348634Y-9256484D01*
X16501015Y-9437436D02*
X16510539Y-9446960D01*
X16510539Y-9446960D02*
X16501015Y-9456484D01*
X16501015Y-9456484D02*
X16491491Y-9446960D01*
X16491491Y-9446960D02*
X16501015Y-9437436D01*
X16501015Y-9437436D02*
X16501015Y-9456484D01*
X16634348Y-9256484D02*
X16653396Y-9256484D01*
X16653396Y-9256484D02*
X16672444Y-9266008D01*
X16672444Y-9266008D02*
X16681967Y-9275531D01*
X16681967Y-9275531D02*
X16691491Y-9294579D01*
X16691491Y-9294579D02*
X16701015Y-9332674D01*
X16701015Y-9332674D02*
X16701015Y-9380293D01*
X16701015Y-9380293D02*
X16691491Y-9418389D01*
X16691491Y-9418389D02*
X16681967Y-9437436D01*
X16681967Y-9437436D02*
X16672444Y-9446960D01*
X16672444Y-9446960D02*
X16653396Y-9456484D01*
X16653396Y-9456484D02*
X16634348Y-9456484D01*
X16634348Y-9456484D02*
X16615301Y-9446960D01*
X16615301Y-9446960D02*
X16605777Y-9437436D01*
X16605777Y-9437436D02*
X16596253Y-9418389D01*
X16596253Y-9418389D02*
X16586729Y-9380293D01*
X16586729Y-9380293D02*
X16586729Y-9332674D01*
X16586729Y-9332674D02*
X16596253Y-9294579D01*
X16596253Y-9294579D02*
X16605777Y-9275531D01*
X16605777Y-9275531D02*
X16615301Y-9266008D01*
X16615301Y-9266008D02*
X16634348Y-9256484D01*
X16881968Y-9256484D02*
X16786729Y-9256484D01*
X16786729Y-9256484D02*
X16777206Y-9351722D01*
X16777206Y-9351722D02*
X16786729Y-9342198D01*
X16786729Y-9342198D02*
X16805777Y-9332674D01*
X16805777Y-9332674D02*
X16853396Y-9332674D01*
X16853396Y-9332674D02*
X16872444Y-9342198D01*
X16872444Y-9342198D02*
X16881968Y-9351722D01*
X16881968Y-9351722D02*
X16891491Y-9370770D01*
X16891491Y-9370770D02*
X16891491Y-9418389D01*
X16891491Y-9418389D02*
X16881968Y-9437436D01*
X16881968Y-9437436D02*
X16872444Y-9446960D01*
X16872444Y-9446960D02*
X16853396Y-9456484D01*
X16853396Y-9456484D02*
X16805777Y-9456484D01*
X16805777Y-9456484D02*
X16786729Y-9446960D01*
X16786729Y-9446960D02*
X16777206Y-9437436D01*
X17081968Y-9456484D02*
X16967682Y-9456484D01*
X17024825Y-9456484D02*
X17024825Y-9256484D01*
X17024825Y-9256484D02*
X17005777Y-9285055D01*
X17005777Y-9285055D02*
X16986729Y-9304103D01*
X16986729Y-9304103D02*
X16967682Y-9313627D01*
X17158158Y-9275531D02*
X17167682Y-9266008D01*
X17167682Y-9266008D02*
X17186729Y-9256484D01*
X17186729Y-9256484D02*
X17234349Y-9256484D01*
X17234349Y-9256484D02*
X17253396Y-9266008D01*
X17253396Y-9266008D02*
X17262920Y-9275531D01*
X17262920Y-9275531D02*
X17272444Y-9294579D01*
X17272444Y-9294579D02*
X17272444Y-9313627D01*
X17272444Y-9313627D02*
X17262920Y-9342198D01*
X17262920Y-9342198D02*
X17148634Y-9456484D01*
X17148634Y-9456484D02*
X17272444Y-9456484D01*
X17348634Y-9256484D02*
X17348634Y-9294579D01*
X17424825Y-9256484D02*
X17424825Y-9294579D01*
X17720063Y-9532674D02*
X17710539Y-9523150D01*
X17710539Y-9523150D02*
X17691491Y-9494579D01*
X17691491Y-9494579D02*
X17681968Y-9475531D01*
X17681968Y-9475531D02*
X17672444Y-9446960D01*
X17672444Y-9446960D02*
X17662920Y-9399341D01*
X17662920Y-9399341D02*
X17662920Y-9361246D01*
X17662920Y-9361246D02*
X17672444Y-9313627D01*
X17672444Y-9313627D02*
X17681968Y-9285055D01*
X17681968Y-9285055D02*
X17691491Y-9266008D01*
X17691491Y-9266008D02*
X17710539Y-9237436D01*
X17710539Y-9237436D02*
X17720063Y-9227912D01*
X17786730Y-9275531D02*
X17796253Y-9266008D01*
X17796253Y-9266008D02*
X17815301Y-9256484D01*
X17815301Y-9256484D02*
X17862920Y-9256484D01*
X17862920Y-9256484D02*
X17881968Y-9266008D01*
X17881968Y-9266008D02*
X17891491Y-9275531D01*
X17891491Y-9275531D02*
X17901015Y-9294579D01*
X17901015Y-9294579D02*
X17901015Y-9313627D01*
X17901015Y-9313627D02*
X17891491Y-9342198D01*
X17891491Y-9342198D02*
X17777206Y-9456484D01*
X17777206Y-9456484D02*
X17901015Y-9456484D01*
X18139111Y-9456484D02*
X18139111Y-9256484D01*
X18224825Y-9456484D02*
X18224825Y-9351722D01*
X18224825Y-9351722D02*
X18215301Y-9332674D01*
X18215301Y-9332674D02*
X18196253Y-9323150D01*
X18196253Y-9323150D02*
X18167682Y-9323150D01*
X18167682Y-9323150D02*
X18148634Y-9332674D01*
X18148634Y-9332674D02*
X18139111Y-9342198D01*
X18348634Y-9456484D02*
X18329587Y-9446960D01*
X18329587Y-9446960D02*
X18320063Y-9437436D01*
X18320063Y-9437436D02*
X18310539Y-9418389D01*
X18310539Y-9418389D02*
X18310539Y-9361246D01*
X18310539Y-9361246D02*
X18320063Y-9342198D01*
X18320063Y-9342198D02*
X18329587Y-9332674D01*
X18329587Y-9332674D02*
X18348634Y-9323150D01*
X18348634Y-9323150D02*
X18377206Y-9323150D01*
X18377206Y-9323150D02*
X18396253Y-9332674D01*
X18396253Y-9332674D02*
X18405777Y-9342198D01*
X18405777Y-9342198D02*
X18415301Y-9361246D01*
X18415301Y-9361246D02*
X18415301Y-9418389D01*
X18415301Y-9418389D02*
X18405777Y-9437436D01*
X18405777Y-9437436D02*
X18396253Y-9446960D01*
X18396253Y-9446960D02*
X18377206Y-9456484D01*
X18377206Y-9456484D02*
X18348634Y-9456484D01*
X18529587Y-9456484D02*
X18510539Y-9446960D01*
X18510539Y-9446960D02*
X18501015Y-9427912D01*
X18501015Y-9427912D02*
X18501015Y-9256484D01*
X18681968Y-9446960D02*
X18662920Y-9456484D01*
X18662920Y-9456484D02*
X18624825Y-9456484D01*
X18624825Y-9456484D02*
X18605777Y-9446960D01*
X18605777Y-9446960D02*
X18596253Y-9427912D01*
X18596253Y-9427912D02*
X18596253Y-9351722D01*
X18596253Y-9351722D02*
X18605777Y-9332674D01*
X18605777Y-9332674D02*
X18624825Y-9323150D01*
X18624825Y-9323150D02*
X18662920Y-9323150D01*
X18662920Y-9323150D02*
X18681968Y-9332674D01*
X18681968Y-9332674D02*
X18691492Y-9351722D01*
X18691492Y-9351722D02*
X18691492Y-9370770D01*
X18691492Y-9370770D02*
X18596253Y-9389817D01*
X18767682Y-9446960D02*
X18786730Y-9456484D01*
X18786730Y-9456484D02*
X18824825Y-9456484D01*
X18824825Y-9456484D02*
X18843873Y-9446960D01*
X18843873Y-9446960D02*
X18853396Y-9427912D01*
X18853396Y-9427912D02*
X18853396Y-9418389D01*
X18853396Y-9418389D02*
X18843873Y-9399341D01*
X18843873Y-9399341D02*
X18824825Y-9389817D01*
X18824825Y-9389817D02*
X18796253Y-9389817D01*
X18796253Y-9389817D02*
X18777206Y-9380293D01*
X18777206Y-9380293D02*
X18767682Y-9361246D01*
X18767682Y-9361246D02*
X18767682Y-9351722D01*
X18767682Y-9351722D02*
X18777206Y-9332674D01*
X18777206Y-9332674D02*
X18796253Y-9323150D01*
X18796253Y-9323150D02*
X18824825Y-9323150D01*
X18824825Y-9323150D02*
X18843873Y-9332674D01*
X18920063Y-9532674D02*
X18929587Y-9523150D01*
X18929587Y-9523150D02*
X18948634Y-9494579D01*
X18948634Y-9494579D02*
X18958158Y-9475531D01*
X18958158Y-9475531D02*
X18967682Y-9446960D01*
X18967682Y-9446960D02*
X18977206Y-9399341D01*
X18977206Y-9399341D02*
X18977206Y-9361246D01*
X18977206Y-9361246D02*
X18967682Y-9313627D01*
X18967682Y-9313627D02*
X18958158Y-9285055D01*
X18958158Y-9285055D02*
X18948634Y-9266008D01*
X18948634Y-9266008D02*
X18929587Y-9237436D01*
X18929587Y-9237436D02*
X18920063Y-9227912D01*
M02*
