%TF.GenerationSoftware,KiCad,Pcbnew,8.0.4*%
%TF.CreationDate,2024-09-14T10:12:32+02:00*%
%TF.ProjectId,tmc2208-breakout,746d6332-3230-4382-9d62-7265616b6f75,rev?*%
%TF.SameCoordinates,Original*%
%TF.FileFunction,Drillmap*%
%TF.FilePolarity,Positive*%
%FSLAX45Y45*%
G04 Gerber Fmt 4.5, Leading zero omitted, Abs format (unit mm)*
G04 Created by KiCad (PCBNEW 8.0.4) date 2024-09-14 10:12:32*
%MOMM*%
%LPD*%
G01*
G04 APERTURE LIST*
%ADD10C,0.100000*%
%ADD11C,0.200000*%
%ADD12C,0.220000*%
G04 APERTURE END LIST*
D10*
X14150000Y-7300000D02*
X14150000Y-3900000D01*
X14150000Y-3900000D02*
G75*
G02*
X14250000Y-3800000I100000J0D01*
G01*
X17150000Y-3800000D02*
G75*
G02*
X17250000Y-3900000I0J-100000D01*
G01*
X17150000Y-7400000D02*
X14250000Y-7400000D01*
X17250000Y-3900000D02*
X17250000Y-7300000D01*
X15700000Y-3800000D02*
X14250000Y-3800000D01*
X15700000Y-3800000D02*
X17150000Y-3800000D01*
X14250000Y-7400000D02*
G75*
G02*
X14150000Y-7300000I0J100000D01*
G01*
X17250000Y-7300000D02*
G75*
G02*
X17150000Y-7400000I-100000J0D01*
G01*
D11*
D12*
X14840000Y-3990000D02*
X15060000Y-4210000D01*
X15060000Y-3990000D02*
X14840000Y-4210000D01*
X14840000Y-6990000D02*
X15060000Y-7210000D01*
X15060000Y-6990000D02*
X14840000Y-7210000D01*
X16790000Y-3990000D02*
X17010000Y-4210000D01*
X17010000Y-3990000D02*
X16790000Y-4210000D01*
X16790000Y-6990000D02*
X17010000Y-7210000D01*
X17010000Y-6990000D02*
X16790000Y-7210000D01*
D11*
X14405777Y-7716484D02*
X14405777Y-7516484D01*
X14405777Y-7516484D02*
X14453396Y-7516484D01*
X14453396Y-7516484D02*
X14481967Y-7526008D01*
X14481967Y-7526008D02*
X14501015Y-7545055D01*
X14501015Y-7545055D02*
X14510539Y-7564103D01*
X14510539Y-7564103D02*
X14520062Y-7602198D01*
X14520062Y-7602198D02*
X14520062Y-7630769D01*
X14520062Y-7630769D02*
X14510539Y-7668865D01*
X14510539Y-7668865D02*
X14501015Y-7687912D01*
X14501015Y-7687912D02*
X14481967Y-7706960D01*
X14481967Y-7706960D02*
X14453396Y-7716484D01*
X14453396Y-7716484D02*
X14405777Y-7716484D01*
X14605777Y-7716484D02*
X14605777Y-7583150D01*
X14605777Y-7621246D02*
X14615301Y-7602198D01*
X14615301Y-7602198D02*
X14624824Y-7592674D01*
X14624824Y-7592674D02*
X14643872Y-7583150D01*
X14643872Y-7583150D02*
X14662920Y-7583150D01*
X14729586Y-7716484D02*
X14729586Y-7583150D01*
X14729586Y-7516484D02*
X14720062Y-7526008D01*
X14720062Y-7526008D02*
X14729586Y-7535531D01*
X14729586Y-7535531D02*
X14739110Y-7526008D01*
X14739110Y-7526008D02*
X14729586Y-7516484D01*
X14729586Y-7516484D02*
X14729586Y-7535531D01*
X14853396Y-7716484D02*
X14834348Y-7706960D01*
X14834348Y-7706960D02*
X14824824Y-7687912D01*
X14824824Y-7687912D02*
X14824824Y-7516484D01*
X14958158Y-7716484D02*
X14939110Y-7706960D01*
X14939110Y-7706960D02*
X14929586Y-7687912D01*
X14929586Y-7687912D02*
X14929586Y-7516484D01*
X15186729Y-7716484D02*
X15186729Y-7516484D01*
X15186729Y-7516484D02*
X15253396Y-7659341D01*
X15253396Y-7659341D02*
X15320062Y-7516484D01*
X15320062Y-7516484D02*
X15320062Y-7716484D01*
X15501015Y-7716484D02*
X15501015Y-7611722D01*
X15501015Y-7611722D02*
X15491491Y-7592674D01*
X15491491Y-7592674D02*
X15472443Y-7583150D01*
X15472443Y-7583150D02*
X15434348Y-7583150D01*
X15434348Y-7583150D02*
X15415301Y-7592674D01*
X15501015Y-7706960D02*
X15481967Y-7716484D01*
X15481967Y-7716484D02*
X15434348Y-7716484D01*
X15434348Y-7716484D02*
X15415301Y-7706960D01*
X15415301Y-7706960D02*
X15405777Y-7687912D01*
X15405777Y-7687912D02*
X15405777Y-7668865D01*
X15405777Y-7668865D02*
X15415301Y-7649817D01*
X15415301Y-7649817D02*
X15434348Y-7640293D01*
X15434348Y-7640293D02*
X15481967Y-7640293D01*
X15481967Y-7640293D02*
X15501015Y-7630769D01*
X15596253Y-7583150D02*
X15596253Y-7783150D01*
X15596253Y-7592674D02*
X15615301Y-7583150D01*
X15615301Y-7583150D02*
X15653396Y-7583150D01*
X15653396Y-7583150D02*
X15672443Y-7592674D01*
X15672443Y-7592674D02*
X15681967Y-7602198D01*
X15681967Y-7602198D02*
X15691491Y-7621246D01*
X15691491Y-7621246D02*
X15691491Y-7678388D01*
X15691491Y-7678388D02*
X15681967Y-7697436D01*
X15681967Y-7697436D02*
X15672443Y-7706960D01*
X15672443Y-7706960D02*
X15653396Y-7716484D01*
X15653396Y-7716484D02*
X15615301Y-7716484D01*
X15615301Y-7716484D02*
X15596253Y-7706960D01*
X15777205Y-7697436D02*
X15786729Y-7706960D01*
X15786729Y-7706960D02*
X15777205Y-7716484D01*
X15777205Y-7716484D02*
X15767682Y-7706960D01*
X15767682Y-7706960D02*
X15777205Y-7697436D01*
X15777205Y-7697436D02*
X15777205Y-7716484D01*
X15777205Y-7592674D02*
X15786729Y-7602198D01*
X15786729Y-7602198D02*
X15777205Y-7611722D01*
X15777205Y-7611722D02*
X15767682Y-7602198D01*
X15767682Y-7602198D02*
X15777205Y-7592674D01*
X15777205Y-7592674D02*
X15777205Y-7611722D01*
X13945000Y-7945000D02*
X14145000Y-8145000D01*
X14145000Y-7945000D02*
X13945000Y-8145000D01*
X14396253Y-7955531D02*
X14405777Y-7946008D01*
X14405777Y-7946008D02*
X14424824Y-7936484D01*
X14424824Y-7936484D02*
X14472443Y-7936484D01*
X14472443Y-7936484D02*
X14491491Y-7946008D01*
X14491491Y-7946008D02*
X14501015Y-7955531D01*
X14501015Y-7955531D02*
X14510539Y-7974579D01*
X14510539Y-7974579D02*
X14510539Y-7993627D01*
X14510539Y-7993627D02*
X14501015Y-8022198D01*
X14501015Y-8022198D02*
X14386729Y-8136484D01*
X14386729Y-8136484D02*
X14510539Y-8136484D01*
X14596253Y-8117436D02*
X14605777Y-8126960D01*
X14605777Y-8126960D02*
X14596253Y-8136484D01*
X14596253Y-8136484D02*
X14586729Y-8126960D01*
X14586729Y-8126960D02*
X14596253Y-8117436D01*
X14596253Y-8117436D02*
X14596253Y-8136484D01*
X14681967Y-7955531D02*
X14691491Y-7946008D01*
X14691491Y-7946008D02*
X14710539Y-7936484D01*
X14710539Y-7936484D02*
X14758158Y-7936484D01*
X14758158Y-7936484D02*
X14777205Y-7946008D01*
X14777205Y-7946008D02*
X14786729Y-7955531D01*
X14786729Y-7955531D02*
X14796253Y-7974579D01*
X14796253Y-7974579D02*
X14796253Y-7993627D01*
X14796253Y-7993627D02*
X14786729Y-8022198D01*
X14786729Y-8022198D02*
X14672443Y-8136484D01*
X14672443Y-8136484D02*
X14796253Y-8136484D01*
X14920062Y-7936484D02*
X14939110Y-7936484D01*
X14939110Y-7936484D02*
X14958158Y-7946008D01*
X14958158Y-7946008D02*
X14967682Y-7955531D01*
X14967682Y-7955531D02*
X14977205Y-7974579D01*
X14977205Y-7974579D02*
X14986729Y-8012674D01*
X14986729Y-8012674D02*
X14986729Y-8060293D01*
X14986729Y-8060293D02*
X14977205Y-8098388D01*
X14977205Y-8098388D02*
X14967682Y-8117436D01*
X14967682Y-8117436D02*
X14958158Y-8126960D01*
X14958158Y-8126960D02*
X14939110Y-8136484D01*
X14939110Y-8136484D02*
X14920062Y-8136484D01*
X14920062Y-8136484D02*
X14901015Y-8126960D01*
X14901015Y-8126960D02*
X14891491Y-8117436D01*
X14891491Y-8117436D02*
X14881967Y-8098388D01*
X14881967Y-8098388D02*
X14872443Y-8060293D01*
X14872443Y-8060293D02*
X14872443Y-8012674D01*
X14872443Y-8012674D02*
X14881967Y-7974579D01*
X14881967Y-7974579D02*
X14891491Y-7955531D01*
X14891491Y-7955531D02*
X14901015Y-7946008D01*
X14901015Y-7946008D02*
X14920062Y-7936484D01*
X15110539Y-7936484D02*
X15129586Y-7936484D01*
X15129586Y-7936484D02*
X15148634Y-7946008D01*
X15148634Y-7946008D02*
X15158158Y-7955531D01*
X15158158Y-7955531D02*
X15167682Y-7974579D01*
X15167682Y-7974579D02*
X15177205Y-8012674D01*
X15177205Y-8012674D02*
X15177205Y-8060293D01*
X15177205Y-8060293D02*
X15167682Y-8098388D01*
X15167682Y-8098388D02*
X15158158Y-8117436D01*
X15158158Y-8117436D02*
X15148634Y-8126960D01*
X15148634Y-8126960D02*
X15129586Y-8136484D01*
X15129586Y-8136484D02*
X15110539Y-8136484D01*
X15110539Y-8136484D02*
X15091491Y-8126960D01*
X15091491Y-8126960D02*
X15081967Y-8117436D01*
X15081967Y-8117436D02*
X15072443Y-8098388D01*
X15072443Y-8098388D02*
X15062920Y-8060293D01*
X15062920Y-8060293D02*
X15062920Y-8012674D01*
X15062920Y-8012674D02*
X15072443Y-7974579D01*
X15072443Y-7974579D02*
X15081967Y-7955531D01*
X15081967Y-7955531D02*
X15091491Y-7946008D01*
X15091491Y-7946008D02*
X15110539Y-7936484D01*
X15262920Y-8136484D02*
X15262920Y-8003150D01*
X15262920Y-8022198D02*
X15272443Y-8012674D01*
X15272443Y-8012674D02*
X15291491Y-8003150D01*
X15291491Y-8003150D02*
X15320063Y-8003150D01*
X15320063Y-8003150D02*
X15339110Y-8012674D01*
X15339110Y-8012674D02*
X15348634Y-8031722D01*
X15348634Y-8031722D02*
X15348634Y-8136484D01*
X15348634Y-8031722D02*
X15358158Y-8012674D01*
X15358158Y-8012674D02*
X15377205Y-8003150D01*
X15377205Y-8003150D02*
X15405777Y-8003150D01*
X15405777Y-8003150D02*
X15424824Y-8012674D01*
X15424824Y-8012674D02*
X15434348Y-8031722D01*
X15434348Y-8031722D02*
X15434348Y-8136484D01*
X15529586Y-8136484D02*
X15529586Y-8003150D01*
X15529586Y-8022198D02*
X15539110Y-8012674D01*
X15539110Y-8012674D02*
X15558158Y-8003150D01*
X15558158Y-8003150D02*
X15586729Y-8003150D01*
X15586729Y-8003150D02*
X15605777Y-8012674D01*
X15605777Y-8012674D02*
X15615301Y-8031722D01*
X15615301Y-8031722D02*
X15615301Y-8136484D01*
X15615301Y-8031722D02*
X15624824Y-8012674D01*
X15624824Y-8012674D02*
X15643872Y-8003150D01*
X15643872Y-8003150D02*
X15672443Y-8003150D01*
X15672443Y-8003150D02*
X15691491Y-8012674D01*
X15691491Y-8012674D02*
X15701015Y-8031722D01*
X15701015Y-8031722D02*
X15701015Y-8136484D01*
X16091491Y-7926960D02*
X15920063Y-8184103D01*
X16348634Y-7936484D02*
X16367682Y-7936484D01*
X16367682Y-7936484D02*
X16386729Y-7946008D01*
X16386729Y-7946008D02*
X16396253Y-7955531D01*
X16396253Y-7955531D02*
X16405777Y-7974579D01*
X16405777Y-7974579D02*
X16415301Y-8012674D01*
X16415301Y-8012674D02*
X16415301Y-8060293D01*
X16415301Y-8060293D02*
X16405777Y-8098388D01*
X16405777Y-8098388D02*
X16396253Y-8117436D01*
X16396253Y-8117436D02*
X16386729Y-8126960D01*
X16386729Y-8126960D02*
X16367682Y-8136484D01*
X16367682Y-8136484D02*
X16348634Y-8136484D01*
X16348634Y-8136484D02*
X16329586Y-8126960D01*
X16329586Y-8126960D02*
X16320063Y-8117436D01*
X16320063Y-8117436D02*
X16310539Y-8098388D01*
X16310539Y-8098388D02*
X16301015Y-8060293D01*
X16301015Y-8060293D02*
X16301015Y-8012674D01*
X16301015Y-8012674D02*
X16310539Y-7974579D01*
X16310539Y-7974579D02*
X16320063Y-7955531D01*
X16320063Y-7955531D02*
X16329586Y-7946008D01*
X16329586Y-7946008D02*
X16348634Y-7936484D01*
X16501015Y-8117436D02*
X16510539Y-8126960D01*
X16510539Y-8126960D02*
X16501015Y-8136484D01*
X16501015Y-8136484D02*
X16491491Y-8126960D01*
X16491491Y-8126960D02*
X16501015Y-8117436D01*
X16501015Y-8117436D02*
X16501015Y-8136484D01*
X16634348Y-7936484D02*
X16653396Y-7936484D01*
X16653396Y-7936484D02*
X16672444Y-7946008D01*
X16672444Y-7946008D02*
X16681967Y-7955531D01*
X16681967Y-7955531D02*
X16691491Y-7974579D01*
X16691491Y-7974579D02*
X16701015Y-8012674D01*
X16701015Y-8012674D02*
X16701015Y-8060293D01*
X16701015Y-8060293D02*
X16691491Y-8098388D01*
X16691491Y-8098388D02*
X16681967Y-8117436D01*
X16681967Y-8117436D02*
X16672444Y-8126960D01*
X16672444Y-8126960D02*
X16653396Y-8136484D01*
X16653396Y-8136484D02*
X16634348Y-8136484D01*
X16634348Y-8136484D02*
X16615301Y-8126960D01*
X16615301Y-8126960D02*
X16605777Y-8117436D01*
X16605777Y-8117436D02*
X16596253Y-8098388D01*
X16596253Y-8098388D02*
X16586729Y-8060293D01*
X16586729Y-8060293D02*
X16586729Y-8012674D01*
X16586729Y-8012674D02*
X16596253Y-7974579D01*
X16596253Y-7974579D02*
X16605777Y-7955531D01*
X16605777Y-7955531D02*
X16615301Y-7946008D01*
X16615301Y-7946008D02*
X16634348Y-7936484D01*
X16815301Y-8022198D02*
X16796253Y-8012674D01*
X16796253Y-8012674D02*
X16786729Y-8003150D01*
X16786729Y-8003150D02*
X16777206Y-7984103D01*
X16777206Y-7984103D02*
X16777206Y-7974579D01*
X16777206Y-7974579D02*
X16786729Y-7955531D01*
X16786729Y-7955531D02*
X16796253Y-7946008D01*
X16796253Y-7946008D02*
X16815301Y-7936484D01*
X16815301Y-7936484D02*
X16853396Y-7936484D01*
X16853396Y-7936484D02*
X16872444Y-7946008D01*
X16872444Y-7946008D02*
X16881968Y-7955531D01*
X16881968Y-7955531D02*
X16891491Y-7974579D01*
X16891491Y-7974579D02*
X16891491Y-7984103D01*
X16891491Y-7984103D02*
X16881968Y-8003150D01*
X16881968Y-8003150D02*
X16872444Y-8012674D01*
X16872444Y-8012674D02*
X16853396Y-8022198D01*
X16853396Y-8022198D02*
X16815301Y-8022198D01*
X16815301Y-8022198D02*
X16796253Y-8031722D01*
X16796253Y-8031722D02*
X16786729Y-8041246D01*
X16786729Y-8041246D02*
X16777206Y-8060293D01*
X16777206Y-8060293D02*
X16777206Y-8098388D01*
X16777206Y-8098388D02*
X16786729Y-8117436D01*
X16786729Y-8117436D02*
X16796253Y-8126960D01*
X16796253Y-8126960D02*
X16815301Y-8136484D01*
X16815301Y-8136484D02*
X16853396Y-8136484D01*
X16853396Y-8136484D02*
X16872444Y-8126960D01*
X16872444Y-8126960D02*
X16881968Y-8117436D01*
X16881968Y-8117436D02*
X16891491Y-8098388D01*
X16891491Y-8098388D02*
X16891491Y-8060293D01*
X16891491Y-8060293D02*
X16881968Y-8041246D01*
X16881968Y-8041246D02*
X16872444Y-8031722D01*
X16872444Y-8031722D02*
X16853396Y-8022198D01*
X17062920Y-7936484D02*
X17024825Y-7936484D01*
X17024825Y-7936484D02*
X17005777Y-7946008D01*
X17005777Y-7946008D02*
X16996253Y-7955531D01*
X16996253Y-7955531D02*
X16977206Y-7984103D01*
X16977206Y-7984103D02*
X16967682Y-8022198D01*
X16967682Y-8022198D02*
X16967682Y-8098388D01*
X16967682Y-8098388D02*
X16977206Y-8117436D01*
X16977206Y-8117436D02*
X16986729Y-8126960D01*
X16986729Y-8126960D02*
X17005777Y-8136484D01*
X17005777Y-8136484D02*
X17043872Y-8136484D01*
X17043872Y-8136484D02*
X17062920Y-8126960D01*
X17062920Y-8126960D02*
X17072444Y-8117436D01*
X17072444Y-8117436D02*
X17081968Y-8098388D01*
X17081968Y-8098388D02*
X17081968Y-8050769D01*
X17081968Y-8050769D02*
X17072444Y-8031722D01*
X17072444Y-8031722D02*
X17062920Y-8022198D01*
X17062920Y-8022198D02*
X17043872Y-8012674D01*
X17043872Y-8012674D02*
X17005777Y-8012674D01*
X17005777Y-8012674D02*
X16986729Y-8022198D01*
X16986729Y-8022198D02*
X16977206Y-8031722D01*
X16977206Y-8031722D02*
X16967682Y-8050769D01*
X17253396Y-7936484D02*
X17215301Y-7936484D01*
X17215301Y-7936484D02*
X17196253Y-7946008D01*
X17196253Y-7946008D02*
X17186729Y-7955531D01*
X17186729Y-7955531D02*
X17167682Y-7984103D01*
X17167682Y-7984103D02*
X17158158Y-8022198D01*
X17158158Y-8022198D02*
X17158158Y-8098388D01*
X17158158Y-8098388D02*
X17167682Y-8117436D01*
X17167682Y-8117436D02*
X17177206Y-8126960D01*
X17177206Y-8126960D02*
X17196253Y-8136484D01*
X17196253Y-8136484D02*
X17234349Y-8136484D01*
X17234349Y-8136484D02*
X17253396Y-8126960D01*
X17253396Y-8126960D02*
X17262920Y-8117436D01*
X17262920Y-8117436D02*
X17272444Y-8098388D01*
X17272444Y-8098388D02*
X17272444Y-8050769D01*
X17272444Y-8050769D02*
X17262920Y-8031722D01*
X17262920Y-8031722D02*
X17253396Y-8022198D01*
X17253396Y-8022198D02*
X17234349Y-8012674D01*
X17234349Y-8012674D02*
X17196253Y-8012674D01*
X17196253Y-8012674D02*
X17177206Y-8022198D01*
X17177206Y-8022198D02*
X17167682Y-8031722D01*
X17167682Y-8031722D02*
X17158158Y-8050769D01*
X17348634Y-7936484D02*
X17348634Y-7974579D01*
X17424825Y-7936484D02*
X17424825Y-7974579D01*
X17720063Y-8212674D02*
X17710539Y-8203150D01*
X17710539Y-8203150D02*
X17691491Y-8174579D01*
X17691491Y-8174579D02*
X17681968Y-8155531D01*
X17681968Y-8155531D02*
X17672444Y-8126960D01*
X17672444Y-8126960D02*
X17662920Y-8079341D01*
X17662920Y-8079341D02*
X17662920Y-8041246D01*
X17662920Y-8041246D02*
X17672444Y-7993627D01*
X17672444Y-7993627D02*
X17681968Y-7965055D01*
X17681968Y-7965055D02*
X17691491Y-7946008D01*
X17691491Y-7946008D02*
X17710539Y-7917436D01*
X17710539Y-7917436D02*
X17720063Y-7907912D01*
X17881968Y-8003150D02*
X17881968Y-8136484D01*
X17834349Y-7926960D02*
X17786730Y-8069817D01*
X17786730Y-8069817D02*
X17910539Y-8069817D01*
X18139111Y-8136484D02*
X18139111Y-7936484D01*
X18224825Y-8136484D02*
X18224825Y-8031722D01*
X18224825Y-8031722D02*
X18215301Y-8012674D01*
X18215301Y-8012674D02*
X18196253Y-8003150D01*
X18196253Y-8003150D02*
X18167682Y-8003150D01*
X18167682Y-8003150D02*
X18148634Y-8012674D01*
X18148634Y-8012674D02*
X18139111Y-8022198D01*
X18348634Y-8136484D02*
X18329587Y-8126960D01*
X18329587Y-8126960D02*
X18320063Y-8117436D01*
X18320063Y-8117436D02*
X18310539Y-8098388D01*
X18310539Y-8098388D02*
X18310539Y-8041246D01*
X18310539Y-8041246D02*
X18320063Y-8022198D01*
X18320063Y-8022198D02*
X18329587Y-8012674D01*
X18329587Y-8012674D02*
X18348634Y-8003150D01*
X18348634Y-8003150D02*
X18377206Y-8003150D01*
X18377206Y-8003150D02*
X18396253Y-8012674D01*
X18396253Y-8012674D02*
X18405777Y-8022198D01*
X18405777Y-8022198D02*
X18415301Y-8041246D01*
X18415301Y-8041246D02*
X18415301Y-8098388D01*
X18415301Y-8098388D02*
X18405777Y-8117436D01*
X18405777Y-8117436D02*
X18396253Y-8126960D01*
X18396253Y-8126960D02*
X18377206Y-8136484D01*
X18377206Y-8136484D02*
X18348634Y-8136484D01*
X18529587Y-8136484D02*
X18510539Y-8126960D01*
X18510539Y-8126960D02*
X18501015Y-8107912D01*
X18501015Y-8107912D02*
X18501015Y-7936484D01*
X18681968Y-8126960D02*
X18662920Y-8136484D01*
X18662920Y-8136484D02*
X18624825Y-8136484D01*
X18624825Y-8136484D02*
X18605777Y-8126960D01*
X18605777Y-8126960D02*
X18596253Y-8107912D01*
X18596253Y-8107912D02*
X18596253Y-8031722D01*
X18596253Y-8031722D02*
X18605777Y-8012674D01*
X18605777Y-8012674D02*
X18624825Y-8003150D01*
X18624825Y-8003150D02*
X18662920Y-8003150D01*
X18662920Y-8003150D02*
X18681968Y-8012674D01*
X18681968Y-8012674D02*
X18691492Y-8031722D01*
X18691492Y-8031722D02*
X18691492Y-8050769D01*
X18691492Y-8050769D02*
X18596253Y-8069817D01*
X18767682Y-8126960D02*
X18786730Y-8136484D01*
X18786730Y-8136484D02*
X18824825Y-8136484D01*
X18824825Y-8136484D02*
X18843873Y-8126960D01*
X18843873Y-8126960D02*
X18853396Y-8107912D01*
X18853396Y-8107912D02*
X18853396Y-8098388D01*
X18853396Y-8098388D02*
X18843873Y-8079341D01*
X18843873Y-8079341D02*
X18824825Y-8069817D01*
X18824825Y-8069817D02*
X18796253Y-8069817D01*
X18796253Y-8069817D02*
X18777206Y-8060293D01*
X18777206Y-8060293D02*
X18767682Y-8041246D01*
X18767682Y-8041246D02*
X18767682Y-8031722D01*
X18767682Y-8031722D02*
X18777206Y-8012674D01*
X18777206Y-8012674D02*
X18796253Y-8003150D01*
X18796253Y-8003150D02*
X18824825Y-8003150D01*
X18824825Y-8003150D02*
X18843873Y-8012674D01*
X18920063Y-8212674D02*
X18929587Y-8203150D01*
X18929587Y-8203150D02*
X18948634Y-8174579D01*
X18948634Y-8174579D02*
X18958158Y-8155531D01*
X18958158Y-8155531D02*
X18967682Y-8126960D01*
X18967682Y-8126960D02*
X18977206Y-8079341D01*
X18977206Y-8079341D02*
X18977206Y-8041246D01*
X18977206Y-8041246D02*
X18967682Y-7993627D01*
X18967682Y-7993627D02*
X18958158Y-7965055D01*
X18958158Y-7965055D02*
X18948634Y-7946008D01*
X18948634Y-7946008D02*
X18929587Y-7917436D01*
X18929587Y-7917436D02*
X18920063Y-7907912D01*
X19281968Y-8212674D02*
X19272444Y-8203150D01*
X19272444Y-8203150D02*
X19253396Y-8174579D01*
X19253396Y-8174579D02*
X19243873Y-8155531D01*
X19243873Y-8155531D02*
X19234349Y-8126960D01*
X19234349Y-8126960D02*
X19224825Y-8079341D01*
X19224825Y-8079341D02*
X19224825Y-8041246D01*
X19224825Y-8041246D02*
X19234349Y-7993627D01*
X19234349Y-7993627D02*
X19243873Y-7965055D01*
X19243873Y-7965055D02*
X19253396Y-7946008D01*
X19253396Y-7946008D02*
X19272444Y-7917436D01*
X19272444Y-7917436D02*
X19281968Y-7907912D01*
X19358158Y-8003150D02*
X19358158Y-8136484D01*
X19358158Y-8022198D02*
X19367682Y-8012674D01*
X19367682Y-8012674D02*
X19386730Y-8003150D01*
X19386730Y-8003150D02*
X19415301Y-8003150D01*
X19415301Y-8003150D02*
X19434349Y-8012674D01*
X19434349Y-8012674D02*
X19443873Y-8031722D01*
X19443873Y-8031722D02*
X19443873Y-8136484D01*
X19567682Y-8136484D02*
X19548634Y-8126960D01*
X19548634Y-8126960D02*
X19539111Y-8117436D01*
X19539111Y-8117436D02*
X19529587Y-8098388D01*
X19529587Y-8098388D02*
X19529587Y-8041246D01*
X19529587Y-8041246D02*
X19539111Y-8022198D01*
X19539111Y-8022198D02*
X19548634Y-8012674D01*
X19548634Y-8012674D02*
X19567682Y-8003150D01*
X19567682Y-8003150D02*
X19596254Y-8003150D01*
X19596254Y-8003150D02*
X19615301Y-8012674D01*
X19615301Y-8012674D02*
X19624825Y-8022198D01*
X19624825Y-8022198D02*
X19634349Y-8041246D01*
X19634349Y-8041246D02*
X19634349Y-8098388D01*
X19634349Y-8098388D02*
X19624825Y-8117436D01*
X19624825Y-8117436D02*
X19615301Y-8126960D01*
X19615301Y-8126960D02*
X19596254Y-8136484D01*
X19596254Y-8136484D02*
X19567682Y-8136484D01*
X19691492Y-8003150D02*
X19767682Y-8003150D01*
X19720063Y-7936484D02*
X19720063Y-8107912D01*
X19720063Y-8107912D02*
X19729587Y-8126960D01*
X19729587Y-8126960D02*
X19748634Y-8136484D01*
X19748634Y-8136484D02*
X19767682Y-8136484D01*
X19986730Y-8003150D02*
X19986730Y-8203150D01*
X19986730Y-8012674D02*
X20005777Y-8003150D01*
X20005777Y-8003150D02*
X20043873Y-8003150D01*
X20043873Y-8003150D02*
X20062920Y-8012674D01*
X20062920Y-8012674D02*
X20072444Y-8022198D01*
X20072444Y-8022198D02*
X20081968Y-8041246D01*
X20081968Y-8041246D02*
X20081968Y-8098388D01*
X20081968Y-8098388D02*
X20072444Y-8117436D01*
X20072444Y-8117436D02*
X20062920Y-8126960D01*
X20062920Y-8126960D02*
X20043873Y-8136484D01*
X20043873Y-8136484D02*
X20005777Y-8136484D01*
X20005777Y-8136484D02*
X19986730Y-8126960D01*
X20196254Y-8136484D02*
X20177206Y-8126960D01*
X20177206Y-8126960D02*
X20167682Y-8107912D01*
X20167682Y-8107912D02*
X20167682Y-7936484D01*
X20358158Y-8136484D02*
X20358158Y-8031722D01*
X20358158Y-8031722D02*
X20348635Y-8012674D01*
X20348635Y-8012674D02*
X20329587Y-8003150D01*
X20329587Y-8003150D02*
X20291492Y-8003150D01*
X20291492Y-8003150D02*
X20272444Y-8012674D01*
X20358158Y-8126960D02*
X20339111Y-8136484D01*
X20339111Y-8136484D02*
X20291492Y-8136484D01*
X20291492Y-8136484D02*
X20272444Y-8126960D01*
X20272444Y-8126960D02*
X20262920Y-8107912D01*
X20262920Y-8107912D02*
X20262920Y-8088865D01*
X20262920Y-8088865D02*
X20272444Y-8069817D01*
X20272444Y-8069817D02*
X20291492Y-8060293D01*
X20291492Y-8060293D02*
X20339111Y-8060293D01*
X20339111Y-8060293D02*
X20358158Y-8050769D01*
X20424825Y-8003150D02*
X20501015Y-8003150D01*
X20453396Y-7936484D02*
X20453396Y-8107912D01*
X20453396Y-8107912D02*
X20462920Y-8126960D01*
X20462920Y-8126960D02*
X20481968Y-8136484D01*
X20481968Y-8136484D02*
X20501015Y-8136484D01*
X20643873Y-8126960D02*
X20624825Y-8136484D01*
X20624825Y-8136484D02*
X20586730Y-8136484D01*
X20586730Y-8136484D02*
X20567682Y-8126960D01*
X20567682Y-8126960D02*
X20558158Y-8107912D01*
X20558158Y-8107912D02*
X20558158Y-8031722D01*
X20558158Y-8031722D02*
X20567682Y-8012674D01*
X20567682Y-8012674D02*
X20586730Y-8003150D01*
X20586730Y-8003150D02*
X20624825Y-8003150D01*
X20624825Y-8003150D02*
X20643873Y-8012674D01*
X20643873Y-8012674D02*
X20653396Y-8031722D01*
X20653396Y-8031722D02*
X20653396Y-8050769D01*
X20653396Y-8050769D02*
X20558158Y-8069817D01*
X20824825Y-8136484D02*
X20824825Y-7936484D01*
X20824825Y-8126960D02*
X20805777Y-8136484D01*
X20805777Y-8136484D02*
X20767682Y-8136484D01*
X20767682Y-8136484D02*
X20748635Y-8126960D01*
X20748635Y-8126960D02*
X20739111Y-8117436D01*
X20739111Y-8117436D02*
X20729587Y-8098388D01*
X20729587Y-8098388D02*
X20729587Y-8041246D01*
X20729587Y-8041246D02*
X20739111Y-8022198D01*
X20739111Y-8022198D02*
X20748635Y-8012674D01*
X20748635Y-8012674D02*
X20767682Y-8003150D01*
X20767682Y-8003150D02*
X20805777Y-8003150D01*
X20805777Y-8003150D02*
X20824825Y-8012674D01*
X20901016Y-8212674D02*
X20910539Y-8203150D01*
X20910539Y-8203150D02*
X20929587Y-8174579D01*
X20929587Y-8174579D02*
X20939111Y-8155531D01*
X20939111Y-8155531D02*
X20948635Y-8126960D01*
X20948635Y-8126960D02*
X20958158Y-8079341D01*
X20958158Y-8079341D02*
X20958158Y-8041246D01*
X20958158Y-8041246D02*
X20948635Y-7993627D01*
X20948635Y-7993627D02*
X20939111Y-7965055D01*
X20939111Y-7965055D02*
X20929587Y-7946008D01*
X20929587Y-7946008D02*
X20910539Y-7917436D01*
X20910539Y-7917436D02*
X20901016Y-7907912D01*
M02*
